<?xml version="1.0" encoding="UTF-8" standalone="no"?>
<!DOCTYPE svg PUBLIC "-//W3C//DTD SVG 1.1//EN"
 "http://www.w3.org/Graphics/SVG/1.1/DTD/svg11.dtd">
<!-- Generated by graphviz version 2.40.1 (20161225.0304)
 -->
<!-- Title: %3 Pages: 1 -->
<svg width="2098pt" height="1261pt"
 viewBox="0.00 0.00 2097.96 1261.40" xmlns="http://www.w3.org/2000/svg" xmlns:xlink="http://www.w3.org/1999/xlink">
<g id="graph0" class="graph" transform="scale(1 1) rotate(0) translate(4 1257.4)">
<title>%3</title>
<polygon fill="#ffffff" stroke="transparent" points="-4,4 -4,-1257.4 2093.9624,-1257.4 2093.9624,4 -4,4"/>
<!-- core&#45;service&#45;admin&#45;server -->
<g id="node1" class="node">
<title>core&#45;service&#45;admin&#45;server</title>
<ellipse fill="none" stroke="#000000" cx="245.1104" cy="-806" rx="102.8142" ry="18"/>
<text text-anchor="middle" x="245.1104" y="-801.8" font-family="Times,serif" font-size="14.00" fill="#000000">core&#45;service&#45;admin&#45;server</text>
</g>
<!-- core&#45;service&#45;logging&#45;support -->
<g id="node2" class="node">
<title>core&#45;service&#45;logging&#45;support</title>
<ellipse fill="none" stroke="#000000" cx="593.1104" cy="-448" rx="112.5052" ry="18"/>
<text text-anchor="middle" x="593.1104" y="-443.8" font-family="Times,serif" font-size="14.00" fill="#000000">core&#45;service&#45;logging&#45;support</text>
</g>
<!-- core&#45;service&#45;admin&#45;server&#45;&gt;core&#45;service&#45;logging&#45;support -->
<g id="edge1" class="edge">
<title>core&#45;service&#45;admin&#45;server&#45;&gt;core&#45;service&#45;logging&#45;support</title>
<path fill="none" stroke="#000000" d="M319.2274,-793.1578C319.2274,-734.8664 319.2274,-498 319.2274,-498 319.2274,-498 510.9126,-498 510.9126,-498 510.9126,-498 510.9126,-470.3596 510.9126,-470.3596"/>
<polygon fill="#000000" stroke="#000000" points="514.4127,-470.3595 510.9126,-460.3596 507.4127,-470.3596 514.4127,-470.3595"/>
</g>
<!-- core&#45;service&#45;discovery&#45;support -->
<g id="node3" class="node">
<title>core&#45;service&#45;discovery&#45;support</title>
<ellipse fill="none" stroke="#000000" cx="120.1104" cy="-448" rx="120.2209" ry="18"/>
<text text-anchor="middle" x="120.1104" y="-443.8" font-family="Times,serif" font-size="14.00" fill="#000000">core&#45;service&#45;discovery&#45;support</text>
</g>
<!-- core&#45;service&#45;admin&#45;server&#45;&gt;core&#45;service&#45;discovery&#45;support -->
<g id="edge2" class="edge">
<title>core&#45;service&#45;admin&#45;server&#45;&gt;core&#45;service&#45;discovery&#45;support</title>
<path fill="none" stroke="#000000" d="M166.7077,-794.0887C166.7077,-794.0887 166.7077,-474.6901 166.7077,-474.6901"/>
<polygon fill="#000000" stroke="#000000" points="170.2078,-474.6901 166.7077,-464.6901 163.2078,-474.6901 170.2078,-474.6901"/>
</g>
<!-- core&#45;service&#45;web&#45;support -->
<g id="node4" class="node">
<title>core&#45;service&#45;web&#45;support</title>
<ellipse fill="none" stroke="#000000" cx="362.1104" cy="-448" rx="100.4261" ry="18"/>
<text text-anchor="middle" x="362.1104" y="-443.8" font-family="Times,serif" font-size="14.00" fill="#000000">core&#45;service&#45;web&#45;support</text>
</g>
<!-- core&#45;service&#45;admin&#45;server&#45;&gt;core&#45;service&#45;web&#45;support -->
<g id="edge3" class="edge">
<title>core&#45;service&#45;admin&#45;server&#45;&gt;core&#45;service&#45;web&#45;support</title>
<path fill="none" stroke="#000000" d="M290.4374,-789.6872C290.4374,-789.6872 290.4374,-470.8949 290.4374,-470.8949"/>
<polygon fill="#000000" stroke="#000000" points="293.9375,-470.8949 290.4374,-460.8949 286.9375,-470.895 293.9375,-470.8949"/>
</g>
<!-- core&#45;service&#45;module -->
<g id="node8" class="node">
<title>core&#45;service&#45;module</title>
<ellipse fill="none" stroke="#000000" cx="1043.1104" cy="-90" rx="82.5614" ry="18"/>
<text text-anchor="middle" x="1043.1104" y="-85.8" font-family="Times,serif" font-size="14.00" fill="#000000">core&#45;service&#45;module</text>
</g>
<!-- core&#45;service&#45;logging&#45;support&#45;&gt;core&#45;service&#45;module -->
<g id="edge22" class="edge">
<title>core&#45;service&#45;logging&#45;support&#45;&gt;core&#45;service&#45;module</title>
<path fill="none" stroke="#000000" d="M593.1104,-429.7276C593.1104,-357.9183 593.1104,-99 593.1104,-99 593.1104,-99 961.309,-99 961.309,-99"/>
<polygon fill="#000000" stroke="#000000" points="961.309,-102.5001 971.309,-99 961.3089,-95.5001 961.309,-102.5001"/>
</g>
<!-- core&#45;service&#45;discovery&#45;support&#45;&gt;core&#45;service&#45;module -->
<g id="edge10" class="edge">
<title>core&#45;service&#45;discovery&#45;support&#45;&gt;core&#45;service&#45;module</title>
<path fill="none" stroke="#000000" d="M120.1104,-429.8004C120.1104,-355.7474 120.1104,-81 120.1104,-81 120.1104,-81 961.0686,-81 961.0686,-81"/>
<polygon fill="#000000" stroke="#000000" points="961.0686,-84.5001 971.0686,-81 961.0685,-77.5001 961.0686,-84.5001"/>
</g>
<!-- core&#45;service&#45;web&#45;support&#45;&gt;core&#45;service&#45;module -->
<g id="edge25" class="edge">
<title>core&#45;service&#45;web&#45;support&#45;&gt;core&#45;service&#45;module</title>
<path fill="none" stroke="#000000" d="M362.1104,-429.7545C362.1104,-356.8011 362.1104,-90 362.1104,-90 362.1104,-90 950.2872,-90 950.2872,-90"/>
<polygon fill="#000000" stroke="#000000" points="950.2873,-93.5001 960.2872,-90 950.2872,-86.5001 950.2873,-93.5001"/>
</g>
<!-- core&#45;service&#45;api&#45;support -->
<g id="node5" class="node">
<title>core&#45;service&#45;api&#45;support</title>
<ellipse fill="none" stroke="#000000" cx="1907.1104" cy="-448" rx="96.5671" ry="18"/>
<text text-anchor="middle" x="1907.1104" y="-443.8" font-family="Times,serif" font-size="14.00" fill="#000000">core&#45;service&#45;api&#45;support</text>
</g>
<!-- core&#45;service&#45;web&#45;common&#45;lib -->
<g id="node6" class="node">
<title>core&#45;service&#45;web&#45;common&#45;lib</title>
<ellipse fill="none" stroke="#000000" cx="1261.1104" cy="-90" rx="117.3225" ry="18"/>
<text text-anchor="middle" x="1261.1104" y="-85.8" font-family="Times,serif" font-size="14.00" fill="#000000">core&#45;service&#45;web&#45;common&#45;lib</text>
</g>
<!-- core&#45;service&#45;api&#45;support&#45;&gt;core&#45;service&#45;web&#45;common&#45;lib -->
<g id="edge4" class="edge">
<title>core&#45;service&#45;api&#45;support&#45;&gt;core&#45;service&#45;web&#45;common&#45;lib</title>
<path fill="none" stroke="#000000" d="M1907.1104,-429.7545C1907.1104,-356.8011 1907.1104,-90 1907.1104,-90 1907.1104,-90 1388.4706,-90 1388.4706,-90"/>
<polygon fill="#000000" stroke="#000000" points="1388.4707,-86.5001 1378.4706,-90 1388.4706,-93.5001 1388.4707,-86.5001"/>
</g>
<!-- core&#45;service&#45;bus&#45;support -->
<g id="node7" class="node">
<title>core&#45;service&#45;bus&#45;support</title>
<ellipse fill="none" stroke="#000000" cx="1070.1104" cy="-448" rx="98.0293" ry="18"/>
<text text-anchor="middle" x="1070.1104" y="-443.8" font-family="Times,serif" font-size="14.00" fill="#000000">core&#45;service&#45;bus&#45;support</text>
</g>
<!-- core&#45;service&#45;bus&#45;support&#45;&gt;core&#45;service&#45;module -->
<g id="edge5" class="edge">
<title>core&#45;service&#45;bus&#45;support&#45;&gt;core&#45;service&#45;module</title>
<path fill="none" stroke="#000000" d="M1002.8547,-434.834C1002.8547,-434.834 1002.8547,-116.0652 1002.8547,-116.0652"/>
<polygon fill="#000000" stroke="#000000" points="1006.3548,-116.0652 1002.8547,-106.0652 999.3548,-116.0652 1006.3548,-116.0652"/>
</g>
<!-- core&#45;service&#45;cache&#45;support -->
<g id="node9" class="node">
<title>core&#45;service&#45;cache&#45;support</title>
<ellipse fill="none" stroke="#000000" cx="1984.1104" cy="-806" rx="105.7043" ry="18"/>
<text text-anchor="middle" x="1984.1104" y="-801.8" font-family="Times,serif" font-size="14.00" fill="#000000">core&#45;service&#45;cache&#45;support</text>
</g>
<!-- core&#45;service&#45;cache&#45;support&#45;&gt;core&#45;service&#45;module -->
<g id="edge6" class="edge">
<title>core&#45;service&#45;cache&#45;support&#45;&gt;core&#45;service&#45;module</title>
<path fill="none" stroke="#000000" d="M1940.9512,-789.2289C1940.9512,-734.1024 1940.9512,-562 1940.9512,-562 1940.9512,-562 968.1738,-562 968.1738,-562 968.1738,-562 968.1738,-107.7986 968.1738,-107.7986"/>
<polygon fill="#000000" stroke="#000000" points="971.6739,-107.7986 968.1738,-97.7986 964.6739,-107.7987 971.6739,-107.7986"/>
</g>
<!-- core&#45;service&#45;config&#45;server -->
<g id="node10" class="node">
<title>core&#45;service&#45;config&#45;server</title>
<ellipse fill="none" stroke="#000000" cx="469.1104" cy="-806" rx="102.8229" ry="18"/>
<text text-anchor="middle" x="469.1104" y="-801.8" font-family="Times,serif" font-size="14.00" fill="#000000">core&#45;service&#45;config&#45;server</text>
</g>
<!-- core&#45;service&#45;config&#45;server&#45;&gt;core&#45;service&#45;logging&#45;support -->
<g id="edge7" class="edge">
<title>core&#45;service&#45;config&#45;server&#45;&gt;core&#45;service&#45;logging&#45;support</title>
<path fill="none" stroke="#000000" d="M541.4672,-792.834C541.4672,-792.834 541.4672,-474.0652 541.4672,-474.0652"/>
<polygon fill="#000000" stroke="#000000" points="544.9673,-474.0652 541.4672,-464.0652 537.9673,-474.0652 544.9673,-474.0652"/>
</g>
<!-- core&#45;service&#45;config&#45;support -->
<g id="node11" class="node">
<title>core&#45;service&#45;config&#45;support</title>
<ellipse fill="none" stroke="#000000" cx="1370.1104" cy="-448" rx="107.6769" ry="18"/>
<text text-anchor="middle" x="1370.1104" y="-443.8" font-family="Times,serif" font-size="14.00" fill="#000000">core&#45;service&#45;config&#45;support</text>
</g>
<!-- core&#45;service&#45;config&#45;support&#45;&gt;core&#45;service&#45;module -->
<g id="edge8" class="edge">
<title>core&#45;service&#45;config&#45;support&#45;&gt;core&#45;service&#45;module</title>
<path fill="none" stroke="#000000" d="M1320.2718,-431.6522C1320.2718,-403.5334 1320.2718,-349 1320.2718,-349 1320.2718,-349 1033.6137,-349 1033.6137,-349 1033.6137,-349 1033.6137,-118.2124 1033.6137,-118.2124"/>
<polygon fill="#000000" stroke="#000000" points="1037.1138,-118.2123 1033.6137,-108.2124 1030.1138,-118.2124 1037.1138,-118.2123"/>
</g>
<!-- core&#45;service&#45;discovery&#45;server -->
<g id="node12" class="node">
<title>core&#45;service&#45;discovery&#45;server</title>
<ellipse fill="none" stroke="#000000" cx="705.1104" cy="-806" rx="115.3672" ry="18"/>
<text text-anchor="middle" x="705.1104" y="-801.8" font-family="Times,serif" font-size="14.00" fill="#000000">core&#45;service&#45;discovery&#45;server</text>
</g>
<!-- core&#45;service&#45;discovery&#45;server&#45;&gt;core&#45;service&#45;logging&#45;support -->
<g id="edge9" class="edge">
<title>core&#45;service&#45;discovery&#45;server&#45;&gt;core&#45;service&#45;logging&#45;support</title>
<path fill="none" stroke="#000000" d="M618.9109,-793.6768C618.9109,-793.6768 618.9109,-475.9084 618.9109,-475.9084"/>
<polygon fill="#000000" stroke="#000000" points="622.411,-475.9083 618.9109,-465.9084 615.411,-475.9084 622.411,-475.9083"/>
</g>
<!-- core&#45;service&#45;endpoint&#45;support -->
<g id="node13" class="node">
<title>core&#45;service&#45;endpoint&#45;support</title>
<ellipse fill="none" stroke="#000000" cx="993.1104" cy="-806" rx="116.8553" ry="18"/>
<text text-anchor="middle" x="993.1104" y="-801.8" font-family="Times,serif" font-size="14.00" fill="#000000">core&#45;service&#45;endpoint&#45;support</text>
</g>
<!-- core&#45;service&#45;endpoint&#45;support&#45;&gt;core&#45;service&#45;logging&#45;support -->
<g id="edge13" class="edge">
<title>core&#45;service&#45;endpoint&#45;support&#45;&gt;core&#45;service&#45;logging&#45;support</title>
<path fill="none" stroke="#000000" d="M915.2835,-792.5459C915.2835,-750.9174 915.2835,-627 915.2835,-627 915.2835,-627 647.8948,-627 647.8948,-627 647.8948,-627 647.8948,-473.8851 647.8948,-473.8851"/>
<polygon fill="#000000" stroke="#000000" points="651.3949,-473.885 647.8948,-463.8851 644.3949,-473.8851 651.3949,-473.885"/>
</g>
<!-- core&#45;service&#45;endpoint&#45;support&#45;&gt;core&#45;service&#45;web&#45;support -->
<g id="edge11" class="edge">
<title>core&#45;service&#45;endpoint&#45;support&#45;&gt;core&#45;service&#45;web&#45;support</title>
<path fill="none" stroke="#000000" d="M895.8582,-795.8961C895.8582,-762.6846 895.8582,-659 895.8582,-659 895.8582,-659 414.3862,-659 414.3862,-659 414.3862,-659 414.3862,-473.5153 414.3862,-473.5153"/>
<polygon fill="#000000" stroke="#000000" points="417.8863,-473.5153 414.3862,-463.5153 410.8863,-473.5154 417.8863,-473.5153"/>
</g>
<!-- core&#45;service&#45;endpoint&#45;support&#45;&gt;core&#45;service&#45;web&#45;common&#45;lib -->
<g id="edge14" class="edge">
<title>core&#45;service&#45;endpoint&#45;support&#45;&gt;core&#45;service&#45;web&#45;common&#45;lib</title>
<path fill="none" stroke="#000000" d="M1040.9418,-789.5233C1040.9418,-757.7248 1040.9418,-691 1040.9418,-691 1040.9418,-691 1199.5074,-691 1199.5074,-691 1199.5074,-691 1199.5074,-115.4602 1199.5074,-115.4602"/>
<polygon fill="#000000" stroke="#000000" points="1203.0075,-115.4602 1199.5074,-105.4602 1196.0075,-115.4603 1203.0075,-115.4602"/>
</g>
<!-- core&#45;service&#45;swagger&#45;support -->
<g id="node14" class="node">
<title>core&#45;service&#45;swagger&#45;support</title>
<ellipse fill="none" stroke="#000000" cx="839.1104" cy="-448" rx="115.0473" ry="18"/>
<text text-anchor="middle" x="839.1104" y="-443.8" font-family="Times,serif" font-size="14.00" fill="#000000">core&#45;service&#45;swagger&#45;support</text>
</g>
<!-- core&#45;service&#45;endpoint&#45;support&#45;&gt;core&#45;service&#45;swagger&#45;support -->
<g id="edge12" class="edge">
<title>core&#45;service&#45;endpoint&#45;support&#45;&gt;core&#45;service&#45;swagger&#45;support</title>
<path fill="none" stroke="#000000" d="M934.7088,-790.1553C934.7088,-790.1553 934.7088,-468.1413 934.7088,-468.1413"/>
<polygon fill="#000000" stroke="#000000" points="938.2089,-468.1412 934.7088,-458.1413 931.2089,-468.1413 938.2089,-468.1412"/>
</g>
<!-- core&#45;service&#45;swagger&#45;support&#45;&gt;core&#45;service&#45;module -->
<g id="edge23" class="edge">
<title>core&#45;service&#45;swagger&#45;support&#45;&gt;core&#45;service&#45;module</title>
<path fill="none" stroke="#000000" d="M954.4322,-448C960.5551,-448 964.2519,-448 964.2519,-448 964.2519,-448 964.2519,-105.6233 964.2519,-105.6233"/>
<polygon fill="#000000" stroke="#000000" points="967.752,-105.6233 964.2519,-95.6233 960.752,-105.6234 967.752,-105.6233"/>
</g>
<!-- core&#45;service&#45;gateway&#45;server -->
<g id="node15" class="node">
<title>core&#45;service&#45;gateway&#45;server</title>
<ellipse fill="none" stroke="#000000" cx="1238.1104" cy="-806" rx="110.0307" ry="18"/>
<text text-anchor="middle" x="1238.1104" y="-801.8" font-family="Times,serif" font-size="14.00" fill="#000000">core&#45;service&#45;gateway&#45;server</text>
</g>
<!-- core&#45;service&#45;gateway&#45;server&#45;&gt;core&#45;service&#45;logging&#45;support -->
<g id="edge17" class="edge">
<title>core&#45;service&#45;gateway&#45;server&#45;&gt;core&#45;service&#45;logging&#45;support</title>
<path fill="none" stroke="#000000" d="M1147.9852,-795.4869C1147.9852,-752.7097 1147.9852,-594 1147.9852,-594 1147.9852,-594 676.8788,-594 676.8788,-594 676.8788,-594 676.8788,-470.1968 676.8788,-470.1968"/>
<polygon fill="#000000" stroke="#000000" points="680.3789,-470.1967 676.8788,-460.1968 673.3789,-470.1968 680.3789,-470.1967"/>
</g>
<!-- core&#45;service&#45;gateway&#45;server&#45;&gt;core&#45;service&#45;discovery&#45;support -->
<g id="edge18" class="edge">
<title>core&#45;service&#45;gateway&#45;server&#45;&gt;core&#45;service&#45;discovery&#45;support</title>
<path fill="none" stroke="#000000" d="M1137.9152,-798.4748C1137.9152,-784.2883 1137.9152,-755 1137.9152,-755 1137.9152,-755 191.212,-755 191.212,-755 191.212,-755 191.212,-472.8072 191.212,-472.8072"/>
<polygon fill="#000000" stroke="#000000" points="194.7121,-472.8072 191.212,-462.8072 187.7121,-472.8073 194.7121,-472.8072"/>
</g>
<!-- core&#45;service&#45;gateway&#45;server&#45;&gt;core&#45;service&#45;web&#45;common&#45;lib -->
<g id="edge15" class="edge">
<title>core&#45;service&#45;gateway&#45;server&#45;&gt;core&#45;service&#45;web&#45;common&#45;lib</title>
<path fill="none" stroke="#000000" d="M1230.8897,-787.9429C1230.8897,-787.9429 1230.8897,-117.6844 1230.8897,-117.6844"/>
<polygon fill="#000000" stroke="#000000" points="1234.3898,-117.6843 1230.8897,-107.6844 1227.3898,-117.6844 1234.3898,-117.6843"/>
</g>
<!-- core&#45;service&#45;gateway&#45;server&#45;&gt;core&#45;service&#45;bus&#45;support -->
<g id="edge20" class="edge">
<title>core&#45;service&#45;gateway&#45;server&#45;&gt;core&#45;service&#45;bus&#45;support</title>
<path fill="none" stroke="#000000" d="M1158.0551,-793.2586C1158.0551,-793.2586 1158.0551,-466.1875 1158.0551,-466.1875"/>
<polygon fill="#000000" stroke="#000000" points="1161.5552,-466.1875 1158.0551,-456.1875 1154.5552,-466.1876 1161.5552,-466.1875"/>
</g>
<!-- core&#45;service&#45;gateway&#45;server&#45;&gt;core&#45;service&#45;config&#45;support -->
<g id="edge16" class="edge">
<title>core&#45;service&#45;gateway&#45;server&#45;&gt;core&#45;service&#45;config&#45;support</title>
<path fill="none" stroke="#000000" d="M1290.9732,-790.1553C1290.9732,-790.1553 1290.9732,-470.5822 1290.9732,-470.5822"/>
<polygon fill="#000000" stroke="#000000" points="1294.4733,-470.5822 1290.9732,-460.5822 1287.4733,-470.5822 1294.4733,-470.5822"/>
</g>
<!-- core&#45;service&#45;tracing&#45;support -->
<g id="node16" class="node">
<title>core&#45;service&#45;tracing&#45;support</title>
<ellipse fill="none" stroke="#000000" cx="1606.1104" cy="-448" rx="110.0652" ry="18"/>
<text text-anchor="middle" x="1606.1104" y="-443.8" font-family="Times,serif" font-size="14.00" fill="#000000">core&#45;service&#45;tracing&#45;support</text>
</g>
<!-- core&#45;service&#45;gateway&#45;server&#45;&gt;core&#45;service&#45;tracing&#45;support -->
<g id="edge19" class="edge">
<title>core&#45;service&#45;gateway&#45;server&#45;&gt;core&#45;service&#45;tracing&#45;support</title>
<path fill="none" stroke="#000000" d="M1319.6743,-793.7845C1319.6743,-740.3702 1319.6743,-530 1319.6743,-530 1319.6743,-530 1527.736,-530 1527.736,-530 1527.736,-530 1527.736,-470.8125 1527.736,-470.8125"/>
<polygon fill="#000000" stroke="#000000" points="1531.2361,-470.8125 1527.736,-460.8125 1524.2361,-470.8125 1531.2361,-470.8125"/>
</g>
<!-- core&#45;service&#45;tracing&#45;support&#45;&gt;core&#45;service&#45;module -->
<g id="edge24" class="edge">
<title>core&#45;service&#45;tracing&#45;support&#45;&gt;core&#45;service&#45;module</title>
<path fill="none" stroke="#000000" d="M1606.1104,-429.7173C1606.1104,-370.5358 1606.1104,-188 1606.1104,-188 1606.1104,-188 1095.1318,-188 1095.1318,-188 1095.1318,-188 1095.1318,-114.041 1095.1318,-114.041"/>
<polygon fill="#000000" stroke="#000000" points="1098.6319,-114.041 1095.1318,-104.041 1091.6319,-114.041 1098.6319,-114.041"/>
</g>
<!-- core&#45;service&#45;jpa&#45;support -->
<g id="node17" class="node">
<title>core&#45;service&#45;jpa&#45;support</title>
<ellipse fill="none" stroke="#000000" cx="1463.1104" cy="-806" rx="96.5671" ry="18"/>
<text text-anchor="middle" x="1463.1104" y="-801.8" font-family="Times,serif" font-size="14.00" fill="#000000">core&#45;service&#45;jpa&#45;support</text>
</g>
<!-- core&#45;service&#45;jpa&#45;support&#45;&gt;core&#45;service&#45;module -->
<g id="edge21" class="edge">
<title>core&#45;service&#45;jpa&#45;support&#45;&gt;core&#45;service&#45;module</title>
<path fill="none" stroke="#000000" d="M1486.8884,-788.4384C1486.8884,-695.8899 1486.8884,-269 1486.8884,-269 1486.8884,-269 1064.3728,-269 1064.3728,-269 1064.3728,-269 1064.3728,-117.4892 1064.3728,-117.4892"/>
<polygon fill="#000000" stroke="#000000" points="1067.8729,-117.4892 1064.3728,-107.4892 1060.8729,-117.4892 1067.8729,-117.4892"/>
</g>
<!-- examples&#45;debug&#45;service -->
<g id="node18" class="node">
<title>examples&#45;debug&#45;service</title>
<ellipse fill="none" stroke="#000000" cx="921.1104" cy="-1164" rx="96.0913" ry="18"/>
<text text-anchor="middle" x="921.1104" y="-1159.8" font-family="Times,serif" font-size="14.00" fill="#000000">examples&#45;debug&#45;service</text>
</g>
<!-- examples&#45;debug&#45;service&#45;&gt;core&#45;service&#45;discovery&#45;support -->
<g id="edge28" class="edge">
<title>examples&#45;debug&#45;service&#45;&gt;core&#45;service&#45;discovery&#45;support</title>
<path fill="none" stroke="#000000" d="M824.6898,-1164C597.4658,-1164 47.4011,-1164 47.4011,-1164 47.4011,-1164 47.4011,-472.6268 47.4011,-472.6268"/>
<polygon fill="#000000" stroke="#000000" points="50.9012,-472.6268 47.4011,-462.6268 43.9012,-472.6269 50.9012,-472.6268"/>
</g>
<!-- examples&#45;debug&#45;service&#45;&gt;core&#45;service&#45;bus&#45;support -->
<g id="edge29" class="edge">
<title>examples&#45;debug&#45;service&#45;&gt;core&#45;service&#45;bus&#45;support</title>
<path fill="none" stroke="#000000" d="M1011.8625,-1158C1063.8362,-1158 1118.8166,-1158 1118.8166,-1158 1118.8166,-1158 1118.8166,-473.8248 1118.8166,-473.8248"/>
<polygon fill="#000000" stroke="#000000" points="1122.3167,-473.8248 1118.8166,-463.8248 1115.3167,-473.8249 1122.3167,-473.8248"/>
</g>
<!-- examples&#45;debug&#45;service&#45;&gt;core&#45;service&#45;endpoint&#45;support -->
<g id="edge26" class="edge">
<title>examples&#45;debug&#45;service&#45;&gt;core&#45;service&#45;endpoint&#45;support</title>
<path fill="none" stroke="#000000" d="M923.3406,-1145.7545C923.3406,-1145.7545 923.3406,-830.5473 923.3406,-830.5473"/>
<polygon fill="#000000" stroke="#000000" points="926.8407,-830.5472 923.3406,-820.5473 919.8407,-830.5473 926.8407,-830.5472"/>
</g>
<!-- examples&#45;debug&#45;service&#45;&gt;core&#45;service&#45;jpa&#45;support -->
<g id="edge27" class="edge">
<title>examples&#45;debug&#45;service&#45;&gt;core&#45;service&#45;jpa&#45;support</title>
<path fill="none" stroke="#000000" d="M970.2483,-1148.3702C970.2483,-1089.9842 970.2483,-888 970.2483,-888 970.2483,-888 1410.7566,-888 1410.7566,-888 1410.7566,-888 1410.7566,-831.4236 1410.7566,-831.4236"/>
<polygon fill="#000000" stroke="#000000" points="1414.2567,-831.4235 1410.7566,-821.4236 1407.2567,-831.4236 1414.2567,-831.4235"/>
</g>
<!-- examples&#45;order&#45;service -->
<g id="node19" class="node">
<title>examples&#45;order&#45;service</title>
<ellipse fill="none" stroke="#000000" cx="1258.1104" cy="-1164" rx="92.8387" ry="18"/>
<text text-anchor="middle" x="1258.1104" y="-1159.8" font-family="Times,serif" font-size="14.00" fill="#000000">examples&#45;order&#45;service</text>
</g>
<!-- examples&#45;order&#45;service&#45;&gt;core&#45;service&#45;discovery&#45;support -->
<g id="edge32" class="edge">
<title>examples&#45;order&#45;service&#45;&gt;core&#45;service&#45;discovery&#45;support</title>
<path fill="none" stroke="#000000" d="M1226.2525,-1146.8023C1226.2525,-1122.4911 1226.2525,-1081 1226.2525,-1081 1226.2525,-1081 94.8022,-1081 94.8022,-1081 94.8022,-1081 94.8022,-475.9248 94.8022,-475.9248"/>
<polygon fill="#000000" stroke="#000000" points="98.3023,-475.9248 94.8022,-465.9248 91.3023,-475.9248 98.3023,-475.9248"/>
</g>
<!-- examples&#45;order&#45;service&#45;&gt;core&#45;service&#45;endpoint&#45;support -->
<g id="edge30" class="edge">
<title>examples&#45;order&#45;service&#45;&gt;core&#45;service&#45;endpoint&#45;support</title>
<path fill="none" stroke="#000000" d="M1170.236,-1170C1112.6694,-1170 1048.0333,-1170 1048.0333,-1170 1048.0333,-1170 1048.0333,-832.1103 1048.0333,-832.1103"/>
<polygon fill="#000000" stroke="#000000" points="1051.5334,-832.1103 1048.0333,-822.1103 1044.5334,-832.1103 1051.5334,-832.1103"/>
</g>
<!-- examples&#45;order&#45;service&#45;&gt;core&#45;service&#45;jpa&#45;support -->
<g id="edge31" class="edge">
<title>examples&#45;order&#45;service&#45;&gt;core&#45;service&#45;jpa&#45;support</title>
<path fill="none" stroke="#000000" d="M1345.8742,-1158C1398.3611,-1158 1454.9364,-1158 1454.9364,-1158 1454.9364,-1158 1454.9364,-833.9397 1454.9364,-833.9397"/>
<polygon fill="#000000" stroke="#000000" points="1458.4365,-833.9396 1454.9364,-823.9397 1451.4365,-833.9397 1458.4365,-833.9396"/>
</g>
<!-- examples&#45;user&#45;service&#45;api -->
<g id="node20" class="node">
<title>examples&#45;user&#45;service&#45;api</title>
<ellipse fill="none" stroke="#000000" cx="1757.1104" cy="-806" rx="102.9866" ry="18"/>
<text text-anchor="middle" x="1757.1104" y="-801.8" font-family="Times,serif" font-size="14.00" fill="#000000">examples&#45;user&#45;service&#45;api</text>
</g>
<!-- examples&#45;order&#45;service&#45;&gt;examples&#45;user&#45;service&#45;api -->
<g id="edge33" class="edge">
<title>examples&#45;order&#45;service&#45;&gt;examples&#45;user&#45;service&#45;api</title>
<path fill="none" stroke="#000000" d="M1287.314,-1146.6512C1287.314,-1096.0193 1287.314,-952 1287.314,-952 1287.314,-952 1661.9464,-952 1661.9464,-952 1661.9464,-952 1661.9464,-823.0419 1661.9464,-823.0419"/>
<polygon fill="#000000" stroke="#000000" points="1665.4465,-823.0418 1661.9464,-813.0419 1658.4465,-823.0419 1665.4465,-823.0418"/>
</g>
<!-- examples&#45;user&#45;service&#45;api&#45;&gt;core&#45;service&#45;api&#45;support -->
<g id="edge41" class="edge">
<title>examples&#45;user&#45;service&#45;api&#45;&gt;core&#45;service&#45;api&#45;support</title>
<path fill="none" stroke="#000000" d="M1835.2151,-794.0887C1835.2151,-794.0887 1835.2151,-470.3232 1835.2151,-470.3232"/>
<polygon fill="#000000" stroke="#000000" points="1838.7152,-470.3231 1835.2151,-460.3232 1831.7152,-470.3232 1838.7152,-470.3231"/>
</g>
<!-- examples&#45;user&#45;service -->
<g id="node21" class="node">
<title>examples&#45;user&#45;service</title>
<ellipse fill="none" stroke="#000000" cx="1588.1104" cy="-1164" rx="88.9883" ry="18"/>
<text text-anchor="middle" x="1588.1104" y="-1159.8" font-family="Times,serif" font-size="14.00" fill="#000000">examples&#45;user&#45;service</text>
</g>
<!-- examples&#45;user&#45;service&#45;&gt;core&#45;service&#45;discovery&#45;support -->
<g id="edge37" class="edge">
<title>examples&#45;user&#45;service&#45;&gt;core&#45;service&#45;discovery&#45;support</title>
<path fill="none" stroke="#000000" d="M1591.2184,-1145.8901C1591.2184,-1062.9054 1591.2184,-723 1591.2184,-723 1591.2184,-723 215.7164,-723 215.7164,-723 215.7164,-723 215.7164,-469.1209 215.7164,-469.1209"/>
<polygon fill="#000000" stroke="#000000" points="219.2165,-469.1209 215.7164,-459.1209 212.2165,-469.121 219.2165,-469.1209"/>
</g>
<!-- examples&#45;user&#45;service&#45;&gt;core&#45;service&#45;cache&#45;support -->
<g id="edge35" class="edge">
<title>examples&#45;user&#45;service&#45;&gt;core&#45;service&#45;cache&#45;support</title>
<path fill="none" stroke="#000000" d="M1677.4743,-1164C1794.2704,-1164 1984.1104,-1164 1984.1104,-1164 1984.1104,-1164 1984.1104,-834.2455 1984.1104,-834.2455"/>
<polygon fill="#000000" stroke="#000000" points="1987.6105,-834.2454 1984.1104,-824.2455 1980.6105,-834.2455 1987.6105,-834.2454"/>
</g>
<!-- examples&#45;user&#45;service&#45;&gt;core&#45;service&#45;config&#45;support -->
<g id="edge38" class="edge">
<title>examples&#45;user&#45;service&#45;&gt;core&#45;service&#45;config&#45;support</title>
<path fill="none" stroke="#000000" d="M1504.0269,-1170C1438.5828,-1170 1358.8033,-1170 1358.8033,-1170 1358.8033,-1170 1358.8033,-476.2084 1358.8033,-476.2084"/>
<polygon fill="#000000" stroke="#000000" points="1362.3034,-476.2084 1358.8033,-466.2084 1355.3034,-476.2084 1362.3034,-476.2084"/>
</g>
<!-- examples&#45;user&#45;service&#45;&gt;core&#45;service&#45;endpoint&#45;support -->
<g id="edge34" class="edge">
<title>examples&#45;user&#45;service&#45;&gt;core&#45;service&#45;endpoint&#45;support</title>
<path fill="none" stroke="#000000" d="M1519.2921,-1152.4652C1519.2921,-1117.8113 1519.2921,-1017 1519.2921,-1017 1519.2921,-1017 1078.9106,-1017 1078.9106,-1017 1078.9106,-1017 1078.9106,-828.2563 1078.9106,-828.2563"/>
<polygon fill="#000000" stroke="#000000" points="1082.4107,-828.2562 1078.9106,-818.2563 1075.4107,-828.2563 1082.4107,-828.2562"/>
</g>
<!-- examples&#45;user&#45;service&#45;&gt;core&#45;service&#45;tracing&#45;support -->
<g id="edge39" class="edge">
<title>examples&#45;user&#45;service&#45;&gt;core&#45;service&#45;tracing&#45;support</title>
<path fill="none" stroke="#000000" d="M1622.7929,-1147.3553C1622.7929,-1147.3553 1622.7929,-475.8322 1622.7929,-475.8322"/>
<polygon fill="#000000" stroke="#000000" points="1626.293,-475.8321 1622.7929,-465.8322 1619.293,-475.8322 1626.293,-475.8321"/>
</g>
<!-- examples&#45;user&#45;service&#45;&gt;core&#45;service&#45;jpa&#45;support -->
<g id="edge36" class="edge">
<title>examples&#45;user&#45;service&#45;&gt;core&#45;service&#45;jpa&#45;support</title>
<path fill="none" stroke="#000000" d="M1539.468,-1148.6172C1539.468,-1148.6172 1539.468,-827.206 1539.468,-827.206"/>
<polygon fill="#000000" stroke="#000000" points="1542.9681,-827.2059 1539.468,-817.206 1535.9681,-827.206 1542.9681,-827.2059"/>
</g>
<!-- examples&#45;user&#45;service&#45;&gt;examples&#45;user&#45;service&#45;api -->
<g id="edge40" class="edge">
<title>examples&#45;user&#45;service&#45;&gt;examples&#45;user&#45;service&#45;api</title>
<path fill="none" stroke="#000000" d="M1669.5255,-1156.5227C1669.5255,-1156.5227 1669.5255,-825.677 1669.5255,-825.677"/>
<polygon fill="#000000" stroke="#000000" points="1673.0256,-825.6769 1669.5255,-815.677 1666.0256,-825.677 1673.0256,-825.6769"/>
</g>
</g>
</svg>
