<?xml version="1.0" encoding="UTF-8" standalone="no"?>
<!DOCTYPE svg PUBLIC "-//W3C//DTD SVG 1.1//EN"
 "http://www.w3.org/Graphics/SVG/1.1/DTD/svg11.dtd">
<!-- Generated by graphviz version 2.40.1 (20161225.0304)
 -->
<!-- Title: %3 Pages: 1 -->
<svg width="1480pt" height="891pt"
 viewBox="0.00 0.00 1479.64 890.60" xmlns="http://www.w3.org/2000/svg" xmlns:xlink="http://www.w3.org/1999/xlink">
<g id="graph0" class="graph" transform="scale(1 1) rotate(0) translate(4 886.6)">
<title>%3</title>
<polygon fill="#ffffff" stroke="transparent" points="-4,4 -4,-886.6 1475.644,-886.6 1475.644,4 -4,4"/>
<!-- core&#45;service&#45;api&#45;support -->
<g id="node1" class="node">
<title>core&#45;service&#45;api&#45;support</title>
<ellipse fill="none" stroke="#000000" cx="1375.1104" cy="-315" rx="96.5671" ry="18"/>
<text text-anchor="middle" x="1375.1104" y="-310.8" font-family="Times,serif" font-size="14.00" fill="#000000">core&#45;service&#45;api&#45;support</text>
</g>
<!-- core&#45;service&#45;web&#45;common&#45;lib -->
<g id="node2" class="node">
<title>core&#45;service&#45;web&#45;common&#45;lib</title>
<ellipse fill="none" stroke="#000000" cx="1250.1104" cy="-63" rx="117.3225" ry="18"/>
<text text-anchor="middle" x="1250.1104" y="-58.8" font-family="Times,serif" font-size="14.00" fill="#000000">core&#45;service&#45;web&#45;common&#45;lib</text>
</g>
<!-- core&#45;service&#45;api&#45;support&#45;&gt;core&#45;service&#45;web&#45;common&#45;lib -->
<g id="edge1" class="edge">
<title>core&#45;service&#45;api&#45;support&#45;&gt;core&#45;service&#45;web&#45;common&#45;lib</title>
<path fill="none" stroke="#000000" d="M1322.9242,-299.6156C1322.9242,-299.6156 1322.9242,-87.24 1322.9242,-87.24"/>
<polygon fill="#000000" stroke="#000000" points="1326.4243,-87.24 1322.9242,-77.24 1319.4243,-87.24 1326.4243,-87.24"/>
</g>
<!-- core&#45;service&#45;cache&#45;support -->
<g id="node3" class="node">
<title>core&#45;service&#45;cache&#45;support</title>
<ellipse fill="none" stroke="#000000" cx="1071.1104" cy="-567" rx="105.7043" ry="18"/>
<text text-anchor="middle" x="1071.1104" y="-562.8" font-family="Times,serif" font-size="14.00" fill="#000000">core&#45;service&#45;cache&#45;support</text>
</g>
<!-- core&#45;service&#45;module -->
<g id="node4" class="node">
<title>core&#45;service&#45;module</title>
<ellipse fill="none" stroke="#000000" cx="606.1104" cy="-63" rx="82.5614" ry="18"/>
<text text-anchor="middle" x="606.1104" y="-58.8" font-family="Times,serif" font-size="14.00" fill="#000000">core&#45;service&#45;module</text>
</g>
<!-- core&#45;service&#45;cache&#45;support&#45;&gt;core&#45;service&#45;module -->
<g id="edge2" class="edge">
<title>core&#45;service&#45;cache&#45;support&#45;&gt;core&#45;service&#45;module</title>
<path fill="none" stroke="#000000" d="M979.1854,-576C964.3326,-576 953.7116,-576 953.7116,-576 953.7116,-576 953.7116,-63 953.7116,-63 953.7116,-63 698.9279,-63 698.9279,-63"/>
<polygon fill="#000000" stroke="#000000" points="698.928,-59.5001 688.9279,-63 698.9279,-66.5001 698.928,-59.5001"/>
</g>
<!-- core&#45;service&#45;config&#45;server -->
<g id="node5" class="node">
<title>core&#45;service&#45;config&#45;server</title>
<ellipse fill="none" stroke="#000000" cx="803.1104" cy="-820" rx="102.8229" ry="18"/>
<text text-anchor="middle" x="803.1104" y="-815.8" font-family="Times,serif" font-size="14.00" fill="#000000">core&#45;service&#45;config&#45;server</text>
</g>
<!-- core&#45;service&#45;config&#45;support -->
<g id="node6" class="node">
<title>core&#45;service&#45;config&#45;support</title>
<ellipse fill="none" stroke="#000000" cx="1076.1104" cy="-315" rx="107.6769" ry="18"/>
<text text-anchor="middle" x="1076.1104" y="-310.8" font-family="Times,serif" font-size="14.00" fill="#000000">core&#45;service&#45;config&#45;support</text>
</g>
<!-- core&#45;service&#45;config&#45;support&#45;&gt;core&#45;service&#45;module -->
<g id="edge3" class="edge">
<title>core&#45;service&#45;config&#45;support&#45;&gt;core&#45;service&#45;module</title>
<path fill="none" stroke="#000000" d="M1050.6106,-297.2683C1050.6106,-238.0762 1050.6106,-51 1050.6106,-51 1050.6106,-51 677.9162,-51 677.9162,-51"/>
<polygon fill="#000000" stroke="#000000" points="677.9163,-47.5001 667.9162,-51 677.9162,-54.5001 677.9163,-47.5001"/>
</g>
<!-- core&#45;service&#45;discovery&#45;server -->
<g id="node7" class="node">
<title>core&#45;service&#45;discovery&#45;server</title>
<ellipse fill="none" stroke="#000000" cx="1039.1104" cy="-820" rx="115.3672" ry="18"/>
<text text-anchor="middle" x="1039.1104" y="-815.8" font-family="Times,serif" font-size="14.00" fill="#000000">core&#45;service&#45;discovery&#45;server</text>
</g>
<!-- core&#45;service&#45;discovery&#45;support -->
<g id="node8" class="node">
<title>core&#45;service&#45;discovery&#45;support</title>
<ellipse fill="none" stroke="#000000" cx="120.1104" cy="-315" rx="120.2209" ry="18"/>
<text text-anchor="middle" x="120.1104" y="-310.8" font-family="Times,serif" font-size="14.00" fill="#000000">core&#45;service&#45;discovery&#45;support</text>
</g>
<!-- core&#45;service&#45;discovery&#45;support&#45;&gt;core&#45;service&#45;module -->
<g id="edge4" class="edge">
<title>core&#45;service&#45;discovery&#45;support&#45;&gt;core&#45;service&#45;module</title>
<path fill="none" stroke="#000000" d="M120.1104,-296.647C120.1104,-237.2378 120.1104,-54 120.1104,-54 120.1104,-54 524.3994,-54 524.3994,-54"/>
<polygon fill="#000000" stroke="#000000" points="524.3994,-57.5001 534.3994,-54 524.3994,-50.5001 524.3994,-57.5001"/>
</g>
<!-- core&#45;service&#45;endpoint&#45;support -->
<g id="node9" class="node">
<title>core&#45;service&#45;endpoint&#45;support</title>
<ellipse fill="none" stroke="#000000" cx="589.1104" cy="-567" rx="116.8553" ry="18"/>
<text text-anchor="middle" x="589.1104" y="-562.8" font-family="Times,serif" font-size="14.00" fill="#000000">core&#45;service&#45;endpoint&#45;support</text>
</g>
<!-- core&#45;service&#45;web&#45;support -->
<g id="node10" class="node">
<title>core&#45;service&#45;web&#45;support</title>
<ellipse fill="none" stroke="#000000" cx="606.1104" cy="-315" rx="100.4261" ry="18"/>
<text text-anchor="middle" x="606.1104" y="-310.8" font-family="Times,serif" font-size="14.00" fill="#000000">core&#45;service&#45;web&#45;support</text>
</g>
<!-- core&#45;service&#45;endpoint&#45;support&#45;&gt;core&#45;service&#45;web&#45;support -->
<g id="edge5" class="edge">
<title>core&#45;service&#45;endpoint&#45;support&#45;&gt;core&#45;service&#45;web&#45;support</title>
<path fill="none" stroke="#000000" d="M605.7176,-548.8768C605.7176,-548.8768 605.7176,-343.2976 605.7176,-343.2976"/>
<polygon fill="#000000" stroke="#000000" points="609.2177,-343.2976 605.7176,-333.2976 602.2177,-343.2976 609.2177,-343.2976"/>
</g>
<!-- core&#45;service&#45;swagger&#45;support -->
<g id="node11" class="node">
<title>core&#45;service&#45;swagger&#45;support</title>
<ellipse fill="none" stroke="#000000" cx="373.1104" cy="-315" rx="115.0473" ry="18"/>
<text text-anchor="middle" x="373.1104" y="-310.8" font-family="Times,serif" font-size="14.00" fill="#000000">core&#45;service&#45;swagger&#45;support</text>
</g>
<!-- core&#45;service&#45;endpoint&#45;support&#45;&gt;core&#45;service&#45;swagger&#45;support -->
<g id="edge6" class="edge">
<title>core&#45;service&#45;endpoint&#45;support&#45;&gt;core&#45;service&#45;swagger&#45;support</title>
<path fill="none" stroke="#000000" d="M480.2835,-560.2596C480.2835,-560.2596 480.2835,-331.8793 480.2835,-331.8793"/>
<polygon fill="#000000" stroke="#000000" points="483.7836,-331.8793 480.2835,-321.8793 476.7836,-331.8793 483.7836,-331.8793"/>
</g>
<!-- core&#45;service&#45;logging&#45;support -->
<g id="node12" class="node">
<title>core&#45;service&#45;logging&#45;support</title>
<ellipse fill="none" stroke="#000000" cx="837.1104" cy="-315" rx="112.5052" ry="18"/>
<text text-anchor="middle" x="837.1104" y="-310.8" font-family="Times,serif" font-size="14.00" fill="#000000">core&#45;service&#45;logging&#45;support</text>
</g>
<!-- core&#45;service&#45;endpoint&#45;support&#45;&gt;core&#45;service&#45;logging&#45;support -->
<g id="edge7" class="edge">
<title>core&#45;service&#45;endpoint&#45;support&#45;&gt;core&#45;service&#45;logging&#45;support</title>
<path fill="none" stroke="#000000" d="M705.9685,-567C711.9008,-567 715.4657,-567 715.4657,-567 715.4657,-567 715.4657,-315 715.4657,-315 715.4657,-315 716.3406,-315 716.3406,-315"/>
<polygon fill="#000000" stroke="#000000" points="714.2142,-318.5001 724.2141,-315 714.2141,-311.5001 714.2142,-318.5001"/>
</g>
<!-- core&#45;service&#45;web&#45;support&#45;&gt;core&#45;service&#45;web&#45;common&#45;lib -->
<g id="edge16" class="edge">
<title>core&#45;service&#45;web&#45;support&#45;&gt;core&#45;service&#45;web&#45;common&#45;lib</title>
<path fill="none" stroke="#000000" d="M697.7321,-307.5568C697.7321,-265.255 697.7321,-57 697.7321,-57 697.7321,-57 1129.3246,-57 1129.3246,-57"/>
<polygon fill="#000000" stroke="#000000" points="1129.3246,-60.5001 1139.3246,-57 1129.3246,-53.5001 1129.3246,-60.5001"/>
</g>
<!-- core&#45;service&#45;web&#45;support&#45;&gt;core&#45;service&#45;module -->
<g id="edge15" class="edge">
<title>core&#45;service&#45;web&#45;support&#45;&gt;core&#45;service&#45;module</title>
<path fill="none" stroke="#000000" d="M606.1104,-296.8768C606.1104,-296.8768 606.1104,-91.2976 606.1104,-91.2976"/>
<polygon fill="#000000" stroke="#000000" points="609.6105,-91.2976 606.1104,-81.2976 602.6105,-91.2976 609.6105,-91.2976"/>
</g>
<!-- core&#45;service&#45;swagger&#45;support&#45;&gt;core&#45;service&#45;module -->
<g id="edge14" class="edge">
<title>core&#45;service&#45;swagger&#45;support&#45;&gt;core&#45;service&#45;module</title>
<path fill="none" stroke="#000000" d="M373.1104,-296.7355C373.1104,-240.2231 373.1104,-72 373.1104,-72 373.1104,-72 524.3015,-72 524.3015,-72"/>
<polygon fill="#000000" stroke="#000000" points="524.3015,-75.5001 534.3015,-72 524.3015,-68.5001 524.3015,-75.5001"/>
</g>
<!-- core&#45;service&#45;logging&#45;support&#45;&gt;core&#45;service&#45;module -->
<g id="edge13" class="edge">
<title>core&#45;service&#45;logging&#45;support&#45;&gt;core&#45;service&#45;module</title>
<path fill="none" stroke="#000000" d="M837.1104,-296.911C837.1104,-240.1004 837.1104,-69 837.1104,-69 837.1104,-69 694.3164,-69 694.3164,-69"/>
<polygon fill="#000000" stroke="#000000" points="694.3165,-65.5001 684.3164,-69 694.3164,-72.5001 694.3165,-65.5001"/>
</g>
<!-- core&#45;service&#45;gateway&#45;server -->
<g id="node13" class="node">
<title>core&#45;service&#45;gateway&#45;server</title>
<ellipse fill="none" stroke="#000000" cx="837.1104" cy="-567" rx="110.0307" ry="18"/>
<text text-anchor="middle" x="837.1104" y="-562.8" font-family="Times,serif" font-size="14.00" fill="#000000">core&#45;service&#45;gateway&#45;server</text>
</g>
<!-- core&#45;service&#45;gateway&#45;server&#45;&gt;core&#45;service&#45;web&#45;common&#45;lib -->
<g id="edge8" class="edge">
<title>core&#45;service&#45;gateway&#45;server&#45;&gt;core&#45;service&#45;web&#45;common&#45;lib</title>
<path fill="none" stroke="#000000" d="M932.6032,-558C947.2222,-558 957.5605,-558 957.5605,-558 957.5605,-558 957.5605,-75 957.5605,-75 957.5605,-75 1152.7321,-75 1152.7321,-75"/>
<polygon fill="#000000" stroke="#000000" points="1152.7321,-78.5001 1162.7321,-75 1152.732,-71.5001 1152.7321,-78.5001"/>
</g>
<!-- core&#45;service&#45;gateway&#45;server&#45;&gt;core&#45;service&#45;config&#45;support -->
<g id="edge9" class="edge">
<title>core&#45;service&#45;gateway&#45;server&#45;&gt;core&#45;service&#45;config&#45;support</title>
<path fill="none" stroke="#000000" d="M947.6324,-567C956.0818,-567 961.4095,-567 961.4095,-567 961.4095,-567 961.4095,-315 961.4095,-315 961.4095,-315 962.0926,-315 962.0926,-315"/>
<polygon fill="#000000" stroke="#000000" points="958.2411,-318.5002 968.241,-315 958.241,-311.5002 958.2411,-318.5002"/>
</g>
<!-- core&#45;service&#45;gateway&#45;server&#45;&gt;core&#45;service&#45;discovery&#45;support -->
<g id="edge11" class="edge">
<title>core&#45;service&#45;gateway&#45;server&#45;&gt;core&#45;service&#45;discovery&#45;support</title>
<path fill="none" stroke="#000000" d="M800.3553,-550.0071C800.3553,-515.6145 800.3553,-441 800.3553,-441 800.3553,-441 201.8988,-441 201.8988,-441 201.8988,-441 201.8988,-338.4842 201.8988,-338.4842"/>
<polygon fill="#000000" stroke="#000000" points="205.3989,-338.4842 201.8988,-328.4842 198.3989,-338.4842 205.3989,-338.4842"/>
</g>
<!-- core&#45;service&#45;gateway&#45;server&#45;&gt;core&#45;service&#45;logging&#45;support -->
<g id="edge10" class="edge">
<title>core&#45;service&#45;gateway&#45;server&#45;&gt;core&#45;service&#45;logging&#45;support</title>
<path fill="none" stroke="#000000" d="M873.8654,-549.679C873.8654,-549.679 873.8654,-342.109 873.8654,-342.109"/>
<polygon fill="#000000" stroke="#000000" points="877.3655,-342.1089 873.8654,-332.109 870.3655,-342.109 877.3655,-342.1089"/>
</g>
<!-- core&#45;service&#45;jpa&#45;support -->
<g id="node14" class="node">
<title>core&#45;service&#45;jpa&#45;support</title>
<ellipse fill="none" stroke="#000000" cx="260.1104" cy="-567" rx="96.5671" ry="18"/>
<text text-anchor="middle" x="260.1104" y="-562.8" font-family="Times,serif" font-size="14.00" fill="#000000">core&#45;service&#45;jpa&#45;support</text>
</g>
<!-- core&#45;service&#45;jpa&#45;support&#45;&gt;core&#45;service&#45;module -->
<g id="edge12" class="edge">
<title>core&#45;service&#45;jpa&#45;support&#45;&gt;core&#45;service&#45;module</title>
<path fill="none" stroke="#000000" d="M249.1537,-549.0624C249.1537,-459.2802 249.1537,-63 249.1537,-63 249.1537,-63 513.3201,-63 513.3201,-63"/>
<polygon fill="#000000" stroke="#000000" points="513.3202,-66.5001 523.3201,-63 513.3201,-59.5001 513.3202,-66.5001"/>
</g>
<!-- examples&#45;debug&#45;service -->
<g id="node15" class="node">
<title>examples&#45;debug&#45;service</title>
<ellipse fill="none" stroke="#000000" cx="186.1104" cy="-820" rx="96.0913" ry="18"/>
<text text-anchor="middle" x="186.1104" y="-815.8" font-family="Times,serif" font-size="14.00" fill="#000000">examples&#45;debug&#45;service</text>
</g>
<!-- examples&#45;debug&#45;service&#45;&gt;core&#45;service&#45;discovery&#45;support -->
<g id="edge19" class="edge">
<title>examples&#45;debug&#45;service&#45;&gt;core&#45;service&#45;discovery&#45;support</title>
<path fill="none" stroke="#000000" d="M108.4428,-808.9827C108.4428,-808.9827 108.4428,-342.9251 108.4428,-342.9251"/>
<polygon fill="#000000" stroke="#000000" points="111.9429,-342.925 108.4428,-332.9251 104.9429,-342.9251 111.9429,-342.925"/>
</g>
<!-- examples&#45;debug&#45;service&#45;&gt;core&#45;service&#45;endpoint&#45;support -->
<g id="edge17" class="edge">
<title>examples&#45;debug&#45;service&#45;&gt;core&#45;service&#45;endpoint&#45;support</title>
<path fill="none" stroke="#000000" d="M242.6296,-805.188C242.6296,-761.9599 242.6296,-639 242.6296,-639 242.6296,-639 475.8321,-639 475.8321,-639 475.8321,-639 475.8321,-581.7241 475.8321,-581.7241"/>
<polygon fill="#000000" stroke="#000000" points="479.3322,-581.7241 475.8321,-571.7241 472.3322,-581.7242 479.3322,-581.7241"/>
</g>
<!-- examples&#45;debug&#45;service&#45;&gt;core&#45;service&#45;jpa&#45;support -->
<g id="edge18" class="edge">
<title>examples&#45;debug&#45;service&#45;&gt;core&#45;service&#45;jpa&#45;support</title>
<path fill="none" stroke="#000000" d="M203.1032,-802.2095C203.1032,-802.2095 203.1032,-591.5377 203.1032,-591.5377"/>
<polygon fill="#000000" stroke="#000000" points="206.6033,-591.5377 203.1032,-581.5377 199.6033,-591.5378 206.6033,-591.5377"/>
</g>
<!-- examples&#45;order&#45;service -->
<g id="node16" class="node">
<title>examples&#45;order&#45;service</title>
<ellipse fill="none" stroke="#000000" cx="393.1104" cy="-820" rx="92.8387" ry="18"/>
<text text-anchor="middle" x="393.1104" y="-815.8" font-family="Times,serif" font-size="14.00" fill="#000000">examples&#45;order&#45;service</text>
</g>
<!-- examples&#45;order&#45;service&#45;&gt;core&#45;service&#45;discovery&#45;support -->
<g id="edge22" class="edge">
<title>examples&#45;order&#45;service&#45;&gt;core&#45;service&#45;discovery&#45;support</title>
<path fill="none" stroke="#000000" d="M314.3043,-810.4116C314.3043,-785.3824 314.3043,-720 314.3043,-720 314.3043,-720 126.8208,-720 126.8208,-720 126.8208,-720 126.8208,-343.1888 126.8208,-343.1888"/>
<polygon fill="#000000" stroke="#000000" points="130.3209,-343.1888 126.8208,-333.1888 123.3209,-343.1888 130.3209,-343.1888"/>
</g>
<!-- examples&#45;order&#45;service&#45;&gt;core&#45;service&#45;endpoint&#45;support -->
<g id="edge20" class="edge">
<title>examples&#45;order&#45;service&#45;&gt;core&#45;service&#45;endpoint&#45;support</title>
<path fill="none" stroke="#000000" d="M479.2313,-813.2329C479.2313,-813.2329 479.2313,-583.4382 479.2313,-583.4382"/>
<polygon fill="#000000" stroke="#000000" points="482.7314,-583.4382 479.2313,-573.4382 475.7314,-583.4383 482.7314,-583.4382"/>
</g>
<!-- examples&#45;order&#45;service&#45;&gt;core&#45;service&#45;jpa&#45;support -->
<g id="edge21" class="edge">
<title>examples&#45;order&#45;service&#45;&gt;core&#45;service&#45;jpa&#45;support</title>
<path fill="none" stroke="#000000" d="M328.4175,-806.7538C328.4175,-806.7538 328.4175,-589.8129 328.4175,-589.8129"/>
<polygon fill="#000000" stroke="#000000" points="331.9176,-589.8129 328.4175,-579.8129 324.9176,-589.8129 331.9176,-589.8129"/>
</g>
<!-- examples&#45;user&#45;service&#45;api -->
<g id="node17" class="node">
<title>examples&#45;user&#45;service&#45;api</title>
<ellipse fill="none" stroke="#000000" cx="1298.1104" cy="-567" rx="102.9866" ry="18"/>
<text text-anchor="middle" x="1298.1104" y="-562.8" font-family="Times,serif" font-size="14.00" fill="#000000">examples&#45;user&#45;service&#45;api</text>
</g>
<!-- examples&#45;order&#45;service&#45;&gt;examples&#45;user&#45;service&#45;api -->
<g id="edge23" class="edge">
<title>examples&#45;order&#45;service&#45;&gt;examples&#45;user&#45;service&#45;api</title>
<path fill="none" stroke="#000000" d="M482.6305,-814.75C482.6305,-798.0118 482.6305,-747 482.6305,-747 482.6305,-747 1263.8627,-747 1263.8627,-747 1263.8627,-747 1263.8627,-594.2592 1263.8627,-594.2592"/>
<polygon fill="#000000" stroke="#000000" points="1267.3628,-594.2591 1263.8627,-584.2592 1260.3628,-594.2592 1267.3628,-594.2591"/>
</g>
<!-- examples&#45;user&#45;service&#45;api&#45;&gt;core&#45;service&#45;api&#45;support -->
<g id="edge29" class="edge">
<title>examples&#45;user&#45;service&#45;api&#45;&gt;core&#45;service&#45;api&#45;support</title>
<path fill="none" stroke="#000000" d="M1339.7151,-550.4656C1339.7151,-550.4656 1339.7151,-341.9257 1339.7151,-341.9257"/>
<polygon fill="#000000" stroke="#000000" points="1343.2152,-341.9257 1339.7151,-331.9257 1336.2152,-341.9258 1343.2152,-341.9257"/>
</g>
<!-- examples&#45;user&#45;service -->
<g id="node18" class="node">
<title>examples&#45;user&#45;service</title>
<ellipse fill="none" stroke="#000000" cx="593.1104" cy="-820" rx="88.9883" ry="18"/>
<text text-anchor="middle" x="593.1104" y="-815.8" font-family="Times,serif" font-size="14.00" fill="#000000">examples&#45;user&#45;service</text>
</g>
<!-- examples&#45;user&#45;service&#45;&gt;core&#45;service&#45;cache&#45;support -->
<g id="edge25" class="edge">
<title>examples&#45;user&#45;service&#45;&gt;core&#45;service&#45;cache&#45;support</title>
<path fill="none" stroke="#000000" d="M622.7751,-802.9309C622.7751,-762.8351 622.7751,-666 622.7751,-666 622.7751,-666 1059.7761,-666 1059.7761,-666 1059.7761,-666 1059.7761,-595.1581 1059.7761,-595.1581"/>
<polygon fill="#000000" stroke="#000000" points="1063.2762,-595.1581 1059.7761,-585.1581 1056.2762,-595.1582 1063.2762,-595.1581"/>
</g>
<!-- examples&#45;user&#45;service&#45;&gt;core&#45;service&#45;discovery&#45;support -->
<g id="edge27" class="edge">
<title>examples&#45;user&#45;service&#45;&gt;core&#45;service&#45;discovery&#45;support</title>
<path fill="none" stroke="#000000" d="M533.7809,-806.4088C533.7809,-773.6462 533.7809,-693 533.7809,-693 533.7809,-693 145.1988,-693 145.1988,-693 145.1988,-693 145.1988,-342.7247 145.1988,-342.7247"/>
<polygon fill="#000000" stroke="#000000" points="148.6989,-342.7247 145.1988,-332.7247 141.6989,-342.7248 148.6989,-342.7247"/>
</g>
<!-- examples&#45;user&#45;service&#45;&gt;core&#45;service&#45;endpoint&#45;support -->
<g id="edge24" class="edge">
<title>examples&#45;user&#45;service&#45;&gt;core&#45;service&#45;endpoint&#45;support</title>
<path fill="none" stroke="#000000" d="M593.1104,-801.8049C593.1104,-801.8049 593.1104,-595.0303 593.1104,-595.0303"/>
<polygon fill="#000000" stroke="#000000" points="596.6105,-595.0302 593.1104,-585.0303 589.6105,-595.0303 596.6105,-595.0302"/>
</g>
<!-- examples&#45;user&#45;service&#45;&gt;core&#45;service&#45;jpa&#45;support -->
<g id="edge26" class="edge">
<title>examples&#45;user&#45;service&#45;&gt;core&#45;service&#45;jpa&#45;support</title>
<path fill="none" stroke="#000000" d="M563.4457,-802.9785C563.4457,-753.302 563.4457,-612 563.4457,-612 563.4457,-612 342.5307,-612 342.5307,-612 342.5307,-612 342.5307,-586.5433 342.5307,-586.5433"/>
<polygon fill="#000000" stroke="#000000" points="346.0308,-586.5433 342.5307,-576.5433 339.0308,-586.5434 346.0308,-586.5433"/>
</g>
<!-- examples&#45;user&#45;service&#45;&gt;examples&#45;user&#45;service&#45;api -->
<g id="edge28" class="edge">
<title>examples&#45;user&#45;service&#45;&gt;examples&#45;user&#45;service&#45;api</title>
<path fill="none" stroke="#000000" d="M652.4398,-806.4473C652.4398,-792.8784 652.4398,-774 652.4398,-774 652.4398,-774 1332.358,-774 1332.358,-774 1332.358,-774 1332.358,-594.2927 1332.358,-594.2927"/>
<polygon fill="#000000" stroke="#000000" points="1335.8581,-594.2926 1332.358,-584.2927 1328.8581,-594.2927 1335.8581,-594.2926"/>
</g>
</g>
</svg>
