<?xml version="1.0" encoding="UTF-8" standalone="no"?>
<!DOCTYPE svg PUBLIC "-//W3C//DTD SVG 1.1//EN"
 "http://www.w3.org/Graphics/SVG/1.1/DTD/svg11.dtd">
<!-- Generated by graphviz version 2.40.1 (20161225.0304)
 -->
<!-- Title: %3 Pages: 1 -->
<svg width="2281pt" height="1372pt"
 viewBox="0.00 0.00 2281.17 1371.80" xmlns="http://www.w3.org/2000/svg" xmlns:xlink="http://www.w3.org/1999/xlink">
<g id="graph0" class="graph" transform="scale(1 1) rotate(0) translate(4 1367.8)">
<title>%3</title>
<polygon fill="#ffffff" stroke="transparent" points="-4,4 -4,-1367.8 2277.1722,-1367.8 2277.1722,4 -4,4"/>
<!-- core&#45;service&#45;admin&#45;server -->
<g id="node1" class="node">
<title>core&#45;service&#45;admin&#45;server</title>
<ellipse fill="none" stroke="#000000" cx="102.9071" cy="-1266" rx="102.8142" ry="18"/>
<text text-anchor="middle" x="102.9071" y="-1261.8" font-family="Times,serif" font-size="14.00" fill="#000000">core&#45;service&#45;admin&#45;server</text>
</g>
<!-- core&#45;service&#45;logging&#45;support -->
<g id="node2" class="node">
<title>core&#45;service&#45;logging&#45;support</title>
<ellipse fill="none" stroke="#000000" cx="979.9071" cy="-487" rx="112.5052" ry="18"/>
<text text-anchor="middle" x="979.9071" y="-482.8" font-family="Times,serif" font-size="14.00" fill="#000000">core&#45;service&#45;logging&#45;support</text>
</g>
<!-- core&#45;service&#45;admin&#45;server&#45;&gt;core&#45;service&#45;logging&#45;support -->
<g id="edge1" class="edge">
<title>core&#45;service&#45;admin&#45;server&#45;&gt;core&#45;service&#45;logging&#45;support</title>
<path fill="none" stroke="#000000" d="M65.3983,-1249.1318C65.3983,-1147.68 65.3983,-623 65.3983,-623 65.3983,-623 923.5309,-623 923.5309,-623 923.5309,-623 923.5309,-512.6009 923.5309,-512.6009"/>
<polygon fill="#000000" stroke="#000000" points="927.031,-512.6009 923.5309,-502.6009 920.031,-512.601 927.031,-512.6009"/>
</g>
<!-- core&#45;service&#45;discovery&#45;support -->
<g id="node3" class="node">
<title>core&#45;service&#45;discovery&#45;support</title>
<ellipse fill="none" stroke="#000000" cx="250.9071" cy="-877" rx="120.2209" ry="18"/>
<text text-anchor="middle" x="250.9071" y="-872.8" font-family="Times,serif" font-size="14.00" fill="#000000">core&#45;service&#45;discovery&#45;support</text>
</g>
<!-- core&#45;service&#45;admin&#45;server&#45;&gt;core&#45;service&#45;discovery&#45;support -->
<g id="edge2" class="edge">
<title>core&#45;service&#45;admin&#45;server&#45;&gt;core&#45;service&#45;discovery&#45;support</title>
<path fill="none" stroke="#000000" d="M168.3054,-1251.6939C168.3054,-1251.6939 168.3054,-900.2216 168.3054,-900.2216"/>
<polygon fill="#000000" stroke="#000000" points="171.8055,-900.2216 168.3054,-890.2216 164.8055,-900.2217 171.8055,-900.2216"/>
</g>
<!-- core&#45;service&#45;web&#45;support -->
<g id="node4" class="node">
<title>core&#45;service&#45;web&#45;support</title>
<ellipse fill="none" stroke="#000000" cx="424.9071" cy="-487" rx="100.4261" ry="18"/>
<text text-anchor="middle" x="424.9071" y="-482.8" font-family="Times,serif" font-size="14.00" fill="#000000">core&#45;service&#45;web&#45;support</text>
</g>
<!-- core&#45;service&#45;admin&#45;server&#45;&gt;core&#45;service&#45;web&#45;support -->
<g id="edge3" class="edge">
<title>core&#45;service&#45;admin&#45;server&#45;&gt;core&#45;service&#45;web&#45;support</title>
<path fill="none" stroke="#000000" d="M200.2534,-1260C280.1306,-1260 380.1235,-1260 380.1235,-1260 380.1235,-1260 380.1235,-513.1452 380.1235,-513.1452"/>
<polygon fill="#000000" stroke="#000000" points="383.6236,-513.1452 380.1235,-503.1452 376.6236,-513.1452 383.6236,-513.1452"/>
</g>
<!-- core&#45;service&#45;module -->
<g id="node8" class="node">
<title>core&#45;service&#45;module</title>
<ellipse fill="none" stroke="#000000" cx="1208.9071" cy="-97" rx="82.5614" ry="18"/>
<text text-anchor="middle" x="1208.9071" y="-92.8" font-family="Times,serif" font-size="14.00" fill="#000000">core&#45;service&#45;module</text>
</g>
<!-- core&#45;service&#45;logging&#45;support&#45;&gt;core&#45;service&#45;module -->
<g id="edge21" class="edge">
<title>core&#45;service&#45;logging&#45;support&#45;&gt;core&#45;service&#45;module</title>
<path fill="none" stroke="#000000" d="M1086.4412,-481C1126.731,-481 1163.0486,-481 1163.0486,-481 1163.0486,-481 1163.0486,-122.0533 1163.0486,-122.0533"/>
<polygon fill="#000000" stroke="#000000" points="1166.5487,-122.0532 1163.0486,-112.0533 1159.5487,-122.0533 1166.5487,-122.0532"/>
</g>
<!-- core&#45;service&#45;discovery&#45;support&#45;&gt;core&#45;service&#45;module -->
<g id="edge10" class="edge">
<title>core&#45;service&#45;discovery&#45;support&#45;&gt;core&#45;service&#45;module</title>
<path fill="none" stroke="#000000" d="M227.6204,-859.0382C227.6204,-741.5953 227.6204,-88 227.6204,-88 227.6204,-88 1127.1483,-88 1127.1483,-88"/>
<polygon fill="#000000" stroke="#000000" points="1127.1483,-91.5001 1137.1483,-88 1127.1483,-84.5001 1127.1483,-91.5001"/>
</g>
<!-- core&#45;service&#45;web&#45;support&#45;&gt;core&#45;service&#45;module -->
<g id="edge27" class="edge">
<title>core&#45;service&#45;web&#45;support&#45;&gt;core&#45;service&#45;module</title>
<path fill="none" stroke="#000000" d="M424.9071,-468.9717C424.9071,-392.2705 424.9071,-97 424.9071,-97 424.9071,-97 1116.1177,-97 1116.1177,-97"/>
<polygon fill="#000000" stroke="#000000" points="1116.1177,-100.5001 1126.1177,-97 1116.1177,-93.5001 1116.1177,-100.5001"/>
</g>
<!-- core&#45;service&#45;api&#45;support -->
<g id="node5" class="node">
<title>core&#45;service&#45;api&#45;support</title>
<ellipse fill="none" stroke="#000000" cx="1695.9071" cy="-487" rx="96.5671" ry="18"/>
<text text-anchor="middle" x="1695.9071" y="-482.8" font-family="Times,serif" font-size="14.00" fill="#000000">core&#45;service&#45;api&#45;support</text>
</g>
<!-- core&#45;service&#45;web&#45;common -->
<g id="node6" class="node">
<title>core&#45;service&#45;web&#45;common</title>
<ellipse fill="none" stroke="#000000" cx="1695.9071" cy="-97" rx="104.761" ry="18"/>
<text text-anchor="middle" x="1695.9071" y="-92.8" font-family="Times,serif" font-size="14.00" fill="#000000">core&#45;service&#45;web&#45;common</text>
</g>
<!-- core&#45;service&#45;api&#45;support&#45;&gt;core&#45;service&#45;web&#45;common -->
<g id="edge4" class="edge">
<title>core&#45;service&#45;api&#45;support&#45;&gt;core&#45;service&#45;web&#45;common</title>
<path fill="none" stroke="#000000" d="M1728.0849,-469.9914C1728.0849,-469.9914 1728.0849,-124.5415 1728.0849,-124.5415"/>
<polygon fill="#000000" stroke="#000000" points="1731.585,-124.5415 1728.0849,-114.5415 1724.585,-124.5416 1731.585,-124.5415"/>
</g>
<!-- core&#45;service&#45;bus&#45;support -->
<g id="node7" class="node">
<title>core&#45;service&#45;bus&#45;support</title>
<ellipse fill="none" stroke="#000000" cx="1334.9071" cy="-487" rx="98.0293" ry="18"/>
<text text-anchor="middle" x="1334.9071" y="-482.8" font-family="Times,serif" font-size="14.00" fill="#000000">core&#45;service&#45;bus&#45;support</text>
</g>
<!-- core&#45;service&#45;bus&#45;support&#45;&gt;core&#45;service&#45;module -->
<g id="edge5" class="edge">
<title>core&#45;service&#45;bus&#45;support&#45;&gt;core&#45;service&#45;module</title>
<path fill="none" stroke="#000000" d="M1250.5912,-477.7442C1250.5912,-477.7442 1250.5912,-122.6539 1250.5912,-122.6539"/>
<polygon fill="#000000" stroke="#000000" points="1254.0913,-122.6539 1250.5912,-112.6539 1247.0913,-122.6539 1254.0913,-122.6539"/>
</g>
<!-- core&#45;service&#45;cache&#45;support -->
<g id="node9" class="node">
<title>core&#45;service&#45;cache&#45;support</title>
<ellipse fill="none" stroke="#000000" cx="1468.9071" cy="-877" rx="105.7043" ry="18"/>
<text text-anchor="middle" x="1468.9071" y="-872.8" font-family="Times,serif" font-size="14.00" fill="#000000">core&#45;service&#45;cache&#45;support</text>
</g>
<!-- core&#45;service&#45;cache&#45;support&#45;&gt;core&#45;service&#45;module -->
<g id="edge6" class="edge">
<title>core&#45;service&#45;cache&#45;support&#45;&gt;core&#45;service&#45;module</title>
<path fill="none" stroke="#000000" d="M1503.8404,-859.9832C1503.8404,-745.9159 1503.8404,-97 1503.8404,-97 1503.8404,-97 1301.8473,-97 1301.8473,-97"/>
<polygon fill="#000000" stroke="#000000" points="1301.8474,-93.5001 1291.8473,-97 1301.8473,-100.5001 1301.8474,-93.5001"/>
</g>
<!-- core&#45;service&#45;config&#45;server -->
<g id="node10" class="node">
<title>core&#45;service&#45;config&#45;server</title>
<ellipse fill="none" stroke="#000000" cx="743.9071" cy="-877" rx="102.8229" ry="18"/>
<text text-anchor="middle" x="743.9071" y="-872.8" font-family="Times,serif" font-size="14.00" fill="#000000">core&#45;service&#45;config&#45;server</text>
</g>
<!-- core&#45;service&#45;config&#45;server&#45;&gt;core&#45;service&#45;logging&#45;support -->
<g id="edge7" class="edge">
<title>core&#45;service&#45;config&#45;server&#45;&gt;core&#45;service&#45;logging&#45;support</title>
<path fill="none" stroke="#000000" d="M828.8746,-866.5684C828.8746,-804.5475 828.8746,-487 828.8746,-487 828.8746,-487 856.9865,-487 856.9865,-487"/>
<polygon fill="#000000" stroke="#000000" points="856.9865,-490.5001 866.9865,-487 856.9864,-483.5001 856.9865,-490.5001"/>
</g>
<!-- core&#45;service&#45;config&#45;support -->
<g id="node11" class="node">
<title>core&#45;service&#45;config&#45;support</title>
<ellipse fill="none" stroke="#000000" cx="2162.9071" cy="-877" rx="107.6769" ry="18"/>
<text text-anchor="middle" x="2162.9071" y="-872.8" font-family="Times,serif" font-size="14.00" fill="#000000">core&#45;service&#45;config&#45;support</text>
</g>
<!-- core&#45;service&#45;config&#45;support&#45;&gt;core&#45;service&#45;module -->
<g id="edge8" class="edge">
<title>core&#45;service&#45;config&#45;support&#45;&gt;core&#45;service&#45;module</title>
<path fill="none" stroke="#000000" d="M2162.9071,-858.9721C2162.9071,-751.7871 2162.9071,-203 2162.9071,-203 2162.9071,-203 1277.9887,-203 1277.9887,-203 1277.9887,-203 1277.9887,-117.1637 1277.9887,-117.1637"/>
<polygon fill="#000000" stroke="#000000" points="1281.4888,-117.1637 1277.9887,-107.1637 1274.4888,-117.1638 1281.4888,-117.1637"/>
</g>
<!-- core&#45;service&#45;discovery&#45;server -->
<g id="node12" class="node">
<title>core&#45;service&#45;discovery&#45;server</title>
<ellipse fill="none" stroke="#000000" cx="979.9071" cy="-877" rx="115.3672" ry="18"/>
<text text-anchor="middle" x="979.9071" y="-872.8" font-family="Times,serif" font-size="14.00" fill="#000000">core&#45;service&#45;discovery&#45;server</text>
</g>
<!-- core&#45;service&#45;discovery&#45;server&#45;&gt;core&#45;service&#45;logging&#45;support -->
<g id="edge9" class="edge">
<title>core&#45;service&#45;discovery&#45;server&#45;&gt;core&#45;service&#45;logging&#45;support</title>
<path fill="none" stroke="#000000" d="M1036.2833,-861.2285C1036.2833,-861.2285 1036.2833,-512.9677 1036.2833,-512.9677"/>
<polygon fill="#000000" stroke="#000000" points="1039.7834,-512.9677 1036.2833,-502.9677 1032.7834,-512.9678 1039.7834,-512.9677"/>
</g>
<!-- core&#45;service&#45;endpoint&#45;support -->
<g id="node13" class="node">
<title>core&#45;service&#45;endpoint&#45;support</title>
<ellipse fill="none" stroke="#000000" cx="505.9071" cy="-877" rx="116.8553" ry="18"/>
<text text-anchor="middle" x="505.9071" y="-872.8" font-family="Times,serif" font-size="14.00" fill="#000000">core&#45;service&#45;endpoint&#45;support</text>
</g>
<!-- core&#45;service&#45;endpoint&#45;support&#45;&gt;core&#45;service&#45;logging&#45;support -->
<g id="edge14" class="edge">
<title>core&#45;service&#45;endpoint&#45;support&#45;&gt;core&#45;service&#45;logging&#45;support</title>
<path fill="none" stroke="#000000" d="M608.6842,-868.0767C608.6842,-837.8203 608.6842,-741 608.6842,-741 608.6842,-741 979.9071,-741 979.9071,-741 979.9071,-741 979.9071,-515.2671 979.9071,-515.2671"/>
<polygon fill="#000000" stroke="#000000" points="983.4072,-515.267 979.9071,-505.2671 976.4072,-515.2671 983.4072,-515.267"/>
</g>
<!-- core&#45;service&#45;endpoint&#45;support&#45;&gt;core&#45;service&#45;web&#45;support -->
<g id="edge12" class="edge">
<title>core&#45;service&#45;endpoint&#45;support&#45;&gt;core&#45;service&#45;web&#45;support</title>
<path fill="none" stroke="#000000" d="M457.2998,-860.2422C457.2998,-860.2422 457.2998,-514.1346 457.2998,-514.1346"/>
<polygon fill="#000000" stroke="#000000" points="460.7999,-514.1346 457.2998,-504.1346 453.7999,-514.1346 460.7999,-514.1346"/>
</g>
<!-- core&#45;service&#45;endpoint&#45;support&#45;&gt;core&#45;service&#45;web&#45;common -->
<g id="edge11" class="edge">
<title>core&#45;service&#45;endpoint&#45;support&#45;&gt;core&#45;service&#45;web&#45;common</title>
<path fill="none" stroke="#000000" d="M553.1268,-860.4639C553.1268,-774.2268 553.1268,-380 553.1268,-380 553.1268,-380 1663.7292,-380 1663.7292,-380 1663.7292,-380 1663.7292,-124.2769 1663.7292,-124.2769"/>
<polygon fill="#000000" stroke="#000000" points="1667.2293,-124.2769 1663.7292,-114.2769 1660.2293,-124.2769 1667.2293,-124.2769"/>
</g>
<!-- core&#45;service&#45;swagger&#45;support -->
<g id="node14" class="node">
<title>core&#45;service&#45;swagger&#45;support</title>
<ellipse fill="none" stroke="#000000" cx="695.9071" cy="-487" rx="115.0473" ry="18"/>
<text text-anchor="middle" x="695.9071" y="-482.8" font-family="Times,serif" font-size="14.00" fill="#000000">core&#45;service&#45;swagger&#45;support</text>
</g>
<!-- core&#45;service&#45;endpoint&#45;support&#45;&gt;core&#45;service&#45;swagger&#45;support -->
<g id="edge13" class="edge">
<title>core&#45;service&#45;endpoint&#45;support&#45;&gt;core&#45;service&#45;swagger&#45;support</title>
<path fill="none" stroke="#000000" d="M594.7838,-865.3281C594.7838,-865.3281 594.7838,-505.7744 594.7838,-505.7744"/>
<polygon fill="#000000" stroke="#000000" points="598.2839,-505.7743 594.7838,-495.7744 591.2839,-505.7744 598.2839,-505.7743"/>
</g>
<!-- core&#45;service&#45;swagger&#45;support&#45;&gt;core&#45;service&#45;module -->
<g id="edge22" class="edge">
<title>core&#45;service&#45;swagger&#45;support&#45;&gt;core&#45;service&#45;module</title>
<path fill="none" stroke="#000000" d="M695.9071,-468.8799C695.9071,-393.1631 695.9071,-106 695.9071,-106 695.9071,-106 1127.0365,-106 1127.0365,-106"/>
<polygon fill="#000000" stroke="#000000" points="1127.0365,-109.5001 1137.0365,-106 1127.0364,-102.5001 1127.0365,-109.5001"/>
</g>
<!-- core&#45;service&#45;gateway&#45;server -->
<g id="node15" class="node">
<title>core&#45;service&#45;gateway&#45;server</title>
<ellipse fill="none" stroke="#000000" cx="2162.9071" cy="-1266" rx="110.0307" ry="18"/>
<text text-anchor="middle" x="2162.9071" y="-1261.8" font-family="Times,serif" font-size="14.00" fill="#000000">core&#45;service&#45;gateway&#45;server</text>
</g>
<!-- core&#45;service&#45;gateway&#45;server&#45;&gt;core&#45;service&#45;logging&#45;support -->
<g id="edge17" class="edge">
<title>core&#45;service&#45;gateway&#45;server&#45;&gt;core&#45;service&#45;logging&#45;support</title>
<path fill="none" stroke="#000000" d="M2162.9071,-1247.7739C2162.9071,-1177.3601 2162.9071,-927 2162.9071,-927 2162.9071,-927 1104.232,-927 1104.232,-927 1104.232,-927 1104.232,-493 1104.232,-493 1104.232,-493 1096.4193,-493 1096.4193,-493"/>
<polygon fill="#000000" stroke="#000000" points="1096.4193,-489.5001 1086.4193,-493 1096.4192,-496.5001 1096.4193,-489.5001"/>
</g>
<!-- core&#45;service&#45;gateway&#45;server&#45;&gt;core&#45;service&#45;discovery&#45;support -->
<g id="edge18" class="edge">
<title>core&#45;service&#45;gateway&#45;server&#45;&gt;core&#45;service&#45;discovery&#45;support</title>
<path fill="none" stroke="#000000" d="M2108.9879,-1250.0561C2108.9879,-1195.9951 2108.9879,-1023 2108.9879,-1023 2108.9879,-1023 343.4836,-1023 343.4836,-1023 343.4836,-1023 343.4836,-898.701 343.4836,-898.701"/>
<polygon fill="#000000" stroke="#000000" points="346.9837,-898.701 343.4836,-888.701 339.9837,-898.701 346.9837,-898.701"/>
</g>
<!-- core&#45;service&#45;gateway&#45;server&#45;&gt;core&#45;service&#45;web&#45;common -->
<g id="edge15" class="edge">
<title>core&#45;service&#45;gateway&#45;server&#45;&gt;core&#45;service&#45;web&#45;common</title>
<path fill="none" stroke="#000000" d="M2080.4884,-1278C2059.295,-1278 2042.3403,-1278 2042.3403,-1278 2042.3403,-1278 2042.3403,-97 2042.3403,-97 2042.3403,-97 1810.7886,-97 1810.7886,-97"/>
<polygon fill="#000000" stroke="#000000" points="1810.7886,-93.5001 1800.7886,-97 1810.7886,-100.5001 1810.7886,-93.5001"/>
</g>
<!-- core&#45;service&#45;gateway&#45;server&#45;&gt;core&#45;service&#45;config&#45;support -->
<g id="edge16" class="edge">
<title>core&#45;service&#45;gateway&#45;server&#45;&gt;core&#45;service&#45;config&#45;support</title>
<path fill="none" stroke="#000000" d="M2216.8263,-1250.2689C2216.8263,-1250.2689 2216.8263,-902.9268 2216.8263,-902.9268"/>
<polygon fill="#000000" stroke="#000000" points="2220.3264,-902.9268 2216.8263,-892.9268 2213.3264,-902.9268 2220.3264,-902.9268"/>
</g>
<!-- core&#45;service&#45;tracing&#45;support -->
<g id="node16" class="node">
<title>core&#45;service&#45;tracing&#45;support</title>
<ellipse fill="none" stroke="#000000" cx="1926.9071" cy="-877" rx="110.0652" ry="18"/>
<text text-anchor="middle" x="1926.9071" y="-872.8" font-family="Times,serif" font-size="14.00" fill="#000000">core&#45;service&#45;tracing&#45;support</text>
</g>
<!-- core&#45;service&#45;gateway&#45;server&#45;&gt;core&#45;service&#45;tracing&#45;support -->
<g id="edge19" class="edge">
<title>core&#45;service&#45;gateway&#45;server&#45;&gt;core&#45;service&#45;tracing&#45;support</title>
<path fill="none" stroke="#000000" d="M2058.7487,-1260C2018.5451,-1260 1982.0483,-1260 1982.0483,-1260 1982.0483,-1260 1982.0483,-902.9694 1982.0483,-902.9694"/>
<polygon fill="#000000" stroke="#000000" points="1985.5484,-902.9694 1982.0483,-892.9694 1978.5484,-902.9695 1985.5484,-902.9694"/>
</g>
<!-- core&#45;service&#45;tracing&#45;support&#45;&gt;core&#45;service&#45;module -->
<g id="edge23" class="edge">
<title>core&#45;service&#45;tracing&#45;support&#45;&gt;core&#45;service&#45;module</title>
<path fill="none" stroke="#000000" d="M1926.9071,-858.8506C1926.9071,-760.1089 1926.9071,-292 1926.9071,-292 1926.9071,-292 1264.29,-292 1264.29,-292 1264.29,-292 1264.29,-120.4031 1264.29,-120.4031"/>
<polygon fill="#000000" stroke="#000000" points="1267.7901,-120.4031 1264.29,-110.4031 1260.7901,-120.4032 1267.7901,-120.4031"/>
</g>
<!-- core&#45;service&#45;jpa&#45;support -->
<g id="node17" class="node">
<title>core&#45;service&#45;jpa&#45;support</title>
<ellipse fill="none" stroke="#000000" cx="1209.9071" cy="-877" rx="96.5671" ry="18"/>
<text text-anchor="middle" x="1209.9071" y="-872.8" font-family="Times,serif" font-size="14.00" fill="#000000">core&#45;service&#45;jpa&#45;support</text>
</g>
<!-- core&#45;service&#45;jpa&#45;support&#45;&gt;core&#45;service&#45;module -->
<g id="edge20" class="edge">
<title>core&#45;service&#45;jpa&#45;support&#45;&gt;core&#45;service&#45;module</title>
<path fill="none" stroke="#000000" d="M1199.9705,-858.8675C1199.9705,-858.8675 1199.9705,-125.0331 1199.9705,-125.0331"/>
<polygon fill="#000000" stroke="#000000" points="1203.4706,-125.0331 1199.9705,-115.0331 1196.4706,-125.0331 1203.4706,-125.0331"/>
</g>
<!-- core&#45;service&#45;trigger&#45;server -->
<g id="node18" class="node">
<title>core&#45;service&#45;trigger&#45;server</title>
<ellipse fill="none" stroke="#000000" cx="505.9071" cy="-1266" rx="104.4054" ry="18"/>
<text text-anchor="middle" x="505.9071" y="-1261.8" font-family="Times,serif" font-size="14.00" fill="#000000">core&#45;service&#45;trigger&#45;server</text>
</g>
<!-- core&#45;service&#45;trigger&#45;server&#45;&gt;core&#45;service&#45;discovery&#45;support -->
<g id="edge25" class="edge">
<title>core&#45;service&#45;trigger&#45;server&#45;&gt;core&#45;service&#45;discovery&#45;support</title>
<path fill="none" stroke="#000000" d="M407.507,-1272C329.4358,-1272 233.348,-1272 233.348,-1272 233.348,-1272 233.348,-904.9987 233.348,-904.9987"/>
<polygon fill="#000000" stroke="#000000" points="236.8481,-904.9987 233.348,-894.9987 229.8481,-904.9988 236.8481,-904.9987"/>
</g>
<!-- core&#45;service&#45;trigger&#45;server&#45;&gt;core&#45;service&#45;endpoint&#45;support -->
<g id="edge24" class="edge">
<title>core&#45;service&#45;trigger&#45;server&#45;&gt;core&#45;service&#45;endpoint&#45;support</title>
<path fill="none" stroke="#000000" d="M471.1729,-1248.7832C471.1729,-1248.7832 471.1729,-904.4593 471.1729,-904.4593"/>
<polygon fill="#000000" stroke="#000000" points="474.673,-904.4593 471.1729,-894.4593 467.673,-904.4593 474.673,-904.4593"/>
</g>
<!-- core&#45;service&#45;trigger&#45;server&#45;&gt;core&#45;service&#45;jpa&#45;support -->
<g id="edge26" class="edge">
<title>core&#45;service&#45;trigger&#45;server&#45;&gt;core&#45;service&#45;jpa&#45;support</title>
<path fill="none" stroke="#000000" d="M540.6412,-1248.534C540.6412,-1216.3631 540.6412,-1151 540.6412,-1151 540.6412,-1151 1122.8695,-1151 1122.8695,-1151 1122.8695,-1151 1122.8695,-894.9048 1122.8695,-894.9048"/>
<polygon fill="#000000" stroke="#000000" points="1126.3696,-894.9048 1122.8695,-884.9048 1119.3696,-894.9048 1126.3696,-894.9048"/>
</g>
<!-- examples&#45;debug&#45;service -->
<g id="node19" class="node">
<title>examples&#45;debug&#45;service</title>
<ellipse fill="none" stroke="#000000" cx="1237.9071" cy="-1266" rx="96.0913" ry="18"/>
<text text-anchor="middle" x="1237.9071" y="-1261.8" font-family="Times,serif" font-size="14.00" fill="#000000">examples&#45;debug&#45;service</text>
</g>
<!-- examples&#45;debug&#45;service&#45;&gt;core&#45;service&#45;discovery&#45;support -->
<g id="edge30" class="edge">
<title>examples&#45;debug&#45;service&#45;&gt;core&#45;service&#45;discovery&#45;support</title>
<path fill="none" stroke="#000000" d="M1183.0063,-1251.0464C1183.0063,-1208.0256 1183.0063,-1087 1183.0063,-1087 1183.0063,-1087 288.4158,-1087 288.4158,-1087 288.4158,-1087 288.4158,-904.1852 288.4158,-904.1852"/>
<polygon fill="#000000" stroke="#000000" points="291.9159,-904.1851 288.4158,-894.1852 284.9159,-904.1852 291.9159,-904.1851"/>
</g>
<!-- examples&#45;debug&#45;service&#45;&gt;core&#45;service&#45;bus&#45;support -->
<g id="edge31" class="edge">
<title>examples&#45;debug&#45;service&#45;&gt;core&#45;service&#45;bus&#45;support</title>
<path fill="none" stroke="#000000" d="M1324.782,-1258.29C1324.782,-1258.29 1324.782,-515.1844 1324.782,-515.1844"/>
<polygon fill="#000000" stroke="#000000" points="1328.2821,-515.1843 1324.782,-505.1844 1321.2821,-515.1844 1328.2821,-515.1843"/>
</g>
<!-- examples&#45;debug&#45;service&#45;&gt;core&#45;service&#45;cache&#45;support -->
<g id="edge32" class="edge">
<title>examples&#45;debug&#45;service&#45;&gt;core&#45;service&#45;cache&#45;support</title>
<path fill="none" stroke="#000000" d="M1328.4841,-1260C1352.3064,-1260 1371.484,-1260 1371.484,-1260 1371.484,-1260 1371.484,-894.3089 1371.484,-894.3089"/>
<polygon fill="#000000" stroke="#000000" points="1374.9841,-894.3089 1371.484,-884.3089 1367.9841,-894.309 1374.9841,-894.3089"/>
</g>
<!-- examples&#45;debug&#45;service&#45;&gt;core&#45;service&#45;endpoint&#45;support -->
<g id="edge28" class="edge">
<title>examples&#45;debug&#45;service&#45;&gt;core&#45;service&#45;endpoint&#45;support</title>
<path fill="none" stroke="#000000" d="M1224.1511,-1247.9565C1224.1511,-1186.7764 1224.1511,-991 1224.1511,-991 1224.1511,-991 616.3471,-991 616.3471,-991 616.3471,-991 616.3471,-892.81 616.3471,-892.81"/>
<polygon fill="#000000" stroke="#000000" points="619.8472,-892.81 616.3471,-882.81 612.8472,-892.81 619.8472,-892.81"/>
</g>
<!-- examples&#45;debug&#45;service&#45;&gt;core&#45;service&#45;tracing&#45;support -->
<g id="edge33" class="edge">
<title>examples&#45;debug&#45;service&#45;&gt;core&#45;service&#45;tracing&#45;support</title>
<path fill="none" stroke="#000000" d="M1315.6113,-1255.1842C1315.6113,-1240.2136 1315.6113,-1215 1315.6113,-1215 1315.6113,-1215 1871.7659,-1215 1871.7659,-1215 1871.7659,-1215 1871.7659,-902.8491 1871.7659,-902.8491"/>
<polygon fill="#000000" stroke="#000000" points="1875.266,-902.8491 1871.7659,-892.8491 1868.266,-902.8491 1875.266,-902.8491"/>
</g>
<!-- examples&#45;debug&#45;service&#45;&gt;core&#45;service&#45;jpa&#45;support -->
<g id="edge29" class="edge">
<title>examples&#45;debug&#45;service&#45;&gt;core&#45;service&#45;jpa&#45;support</title>
<path fill="none" stroke="#000000" d="M1265.2958,-1248.5298C1265.2958,-1248.5298 1265.2958,-901.8559 1265.2958,-901.8559"/>
<polygon fill="#000000" stroke="#000000" points="1268.7959,-901.8558 1265.2958,-891.8559 1261.7959,-901.8559 1268.7959,-901.8558"/>
</g>
<!-- examples&#45;order&#45;service -->
<g id="node20" class="node">
<title>examples&#45;order&#45;service</title>
<ellipse fill="none" stroke="#000000" cx="889.9071" cy="-1266" rx="92.8387" ry="18"/>
<text text-anchor="middle" x="889.9071" y="-1261.8" font-family="Times,serif" font-size="14.00" fill="#000000">examples&#45;order&#45;service</text>
</g>
<!-- examples&#45;order&#45;service&#45;&gt;core&#45;service&#45;discovery&#45;support -->
<g id="edge36" class="edge">
<title>examples&#45;order&#45;service&#45;&gt;core&#45;service&#45;discovery&#45;support</title>
<path fill="none" stroke="#000000" d="M821.9031,-1253.7197C821.9031,-1218.3898 821.9031,-1119 821.9031,-1119 821.9031,-1119 260.8819,-1119 260.8819,-1119 260.8819,-1119 260.8819,-905.1893 260.8819,-905.1893"/>
<polygon fill="#000000" stroke="#000000" points="264.382,-905.1893 260.8819,-895.1893 257.382,-905.1894 264.382,-905.1893"/>
</g>
<!-- examples&#45;order&#45;service&#45;&gt;core&#45;service&#45;endpoint&#45;support -->
<g id="edge34" class="edge">
<title>examples&#45;order&#45;service&#45;&gt;core&#45;service&#45;endpoint&#45;support</title>
<path fill="none" stroke="#000000" d="M796.622,-1266C716.2992,-1266 613.2283,-1266 613.2283,-1266 613.2283,-1266 613.2283,-894.0839 613.2283,-894.0839"/>
<polygon fill="#000000" stroke="#000000" points="616.7284,-894.0839 613.2283,-884.0839 609.7284,-894.0839 616.7284,-894.0839"/>
</g>
<!-- examples&#45;order&#45;service&#45;&gt;core&#45;service&#45;jpa&#45;support -->
<g id="edge35" class="edge">
<title>examples&#45;order&#45;service&#45;&gt;core&#45;service&#45;jpa&#45;support</title>
<path fill="none" stroke="#000000" d="M982.9544,-1266C1051.329,-1266 1132.3655,-1266 1132.3655,-1266 1132.3655,-1266 1132.3655,-897.8101 1132.3655,-897.8101"/>
<polygon fill="#000000" stroke="#000000" points="1135.8656,-897.8101 1132.3655,-887.8101 1128.8656,-897.8101 1135.8656,-897.8101"/>
</g>
<!-- examples&#45;user&#45;service&#45;api -->
<g id="node21" class="node">
<title>examples&#45;user&#45;service&#45;api</title>
<ellipse fill="none" stroke="#000000" cx="1695.9071" cy="-877" rx="102.9866" ry="18"/>
<text text-anchor="middle" x="1695.9071" y="-872.8" font-family="Times,serif" font-size="14.00" fill="#000000">examples&#45;user&#45;service&#45;api</text>
</g>
<!-- examples&#45;order&#45;service&#45;&gt;examples&#45;user&#45;service&#45;api -->
<g id="edge37" class="edge">
<title>examples&#45;order&#45;service&#45;&gt;examples&#45;user&#45;service&#45;api</title>
<path fill="none" stroke="#000000" d="M923.775,-1249.2037C923.775,-1224.9509 923.775,-1183 923.775,-1183 923.775,-1183 1661.6594,-1183 1661.6594,-1183 1661.6594,-1183 1661.6594,-904.3286 1661.6594,-904.3286"/>
<polygon fill="#000000" stroke="#000000" points="1665.1595,-904.3286 1661.6594,-894.3286 1658.1595,-904.3287 1665.1595,-904.3286"/>
</g>
<!-- examples&#45;user&#45;service&#45;api&#45;&gt;core&#45;service&#45;api&#45;support -->
<g id="edge45" class="edge">
<title>examples&#45;user&#45;service&#45;api&#45;&gt;core&#45;service&#45;api&#45;support</title>
<path fill="none" stroke="#000000" d="M1695.9071,-858.9717C1695.9071,-858.9717 1695.9071,-515.2869 1695.9071,-515.2869"/>
<polygon fill="#000000" stroke="#000000" points="1699.4072,-515.2869 1695.9071,-505.2869 1692.4072,-515.2869 1699.4072,-515.2869"/>
</g>
<!-- examples&#45;user&#45;service -->
<g id="node22" class="node">
<title>examples&#45;user&#45;service</title>
<ellipse fill="none" stroke="#000000" cx="1468.9071" cy="-1266" rx="88.9883" ry="18"/>
<text text-anchor="middle" x="1468.9071" y="-1261.8" font-family="Times,serif" font-size="14.00" fill="#000000">examples&#45;user&#45;service</text>
</g>
<!-- examples&#45;user&#45;service&#45;&gt;core&#45;service&#45;discovery&#45;support -->
<g id="edge41" class="edge">
<title>examples&#45;user&#45;service&#45;&gt;core&#45;service&#45;discovery&#45;support</title>
<path fill="none" stroke="#000000" d="M1424.41,-1250.1407C1424.41,-1201.0702 1424.41,-1055 1424.41,-1055 1424.41,-1055 315.9497,-1055 315.9497,-1055 315.9497,-1055 315.9497,-902.1762 315.9497,-902.1762"/>
<polygon fill="#000000" stroke="#000000" points="319.4498,-902.1761 315.9497,-892.1762 312.4498,-902.1762 319.4498,-902.1761"/>
</g>
<!-- examples&#45;user&#45;service&#45;&gt;core&#45;service&#45;cache&#45;support -->
<g id="edge39" class="edge">
<title>examples&#45;user&#45;service&#45;&gt;core&#45;service&#45;cache&#45;support</title>
<path fill="none" stroke="#000000" d="M1513.4042,-1250.2689C1513.4042,-1250.2689 1513.4042,-903.3582 1513.4042,-903.3582"/>
<polygon fill="#000000" stroke="#000000" points="1516.9043,-903.3582 1513.4042,-893.3582 1509.9043,-903.3582 1516.9043,-903.3582"/>
</g>
<!-- examples&#45;user&#45;service&#45;&gt;core&#45;service&#45;config&#45;support -->
<g id="edge42" class="edge">
<title>examples&#45;user&#45;service&#45;&gt;core&#45;service&#45;config&#45;support</title>
<path fill="none" stroke="#000000" d="M1553.0382,-1272C1713.5071,-1272 2047.4911,-1272 2047.4911,-1272 2047.4911,-1272 2047.4911,-877 2047.4911,-877 2047.4911,-877 2048.2484,-877 2048.2484,-877"/>
<polygon fill="#000000" stroke="#000000" points="2045.0639,-880.5001 2055.0639,-877 2045.0638,-873.5001 2045.0639,-880.5001"/>
</g>
<!-- examples&#45;user&#45;service&#45;&gt;core&#45;service&#45;endpoint&#45;support -->
<g id="edge38" class="edge">
<title>examples&#45;user&#45;service&#45;&gt;core&#45;service&#45;endpoint&#45;support</title>
<path fill="none" stroke="#000000" d="M1468.9071,-1247.7151C1468.9071,-1181.6237 1468.9071,-959 1468.9071,-959 1468.9071,-959 619.4658,-959 619.4658,-959 619.4658,-959 619.4658,-891.4087 619.4658,-891.4087"/>
<polygon fill="#000000" stroke="#000000" points="622.9659,-891.4086 619.4658,-881.4087 615.9659,-891.4087 622.9659,-891.4086"/>
</g>
<!-- examples&#45;user&#45;service&#45;&gt;core&#45;service&#45;tracing&#45;support -->
<g id="edge43" class="edge">
<title>examples&#45;user&#45;service&#45;&gt;core&#45;service&#45;tracing&#45;support</title>
<path fill="none" stroke="#000000" d="M1558.0291,-1266C1691.267,-1266 1926.9071,-1266 1926.9071,-1266 1926.9071,-1266 1926.9071,-905.2405 1926.9071,-905.2405"/>
<polygon fill="#000000" stroke="#000000" points="1930.4072,-905.2405 1926.9071,-895.2405 1923.4072,-905.2406 1930.4072,-905.2405"/>
</g>
<!-- examples&#45;user&#45;service&#45;&gt;core&#45;service&#45;jpa&#45;support -->
<g id="edge40" class="edge">
<title>examples&#45;user&#45;service&#45;&gt;core&#45;service&#45;jpa&#45;support</title>
<path fill="none" stroke="#000000" d="M1384.9556,-1272C1364.5652,-1272 1348.5039,-1272 1348.5039,-1272 1348.5039,-1272 1348.5039,-877 1348.5039,-877 1348.5039,-877 1316.5442,-877 1316.5442,-877"/>
<polygon fill="#000000" stroke="#000000" points="1316.5442,-873.5001 1306.5442,-877 1316.5441,-880.5001 1316.5442,-873.5001"/>
</g>
<!-- examples&#45;user&#45;service&#45;&gt;examples&#45;user&#45;service&#45;api -->
<g id="edge44" class="edge">
<title>examples&#45;user&#45;service&#45;&gt;examples&#45;user&#45;service&#45;api</title>
<path fill="none" stroke="#000000" d="M1535.5069,-1254C1612.908,-1254 1730.1547,-1254 1730.1547,-1254 1730.1547,-1254 1730.1547,-904.1785 1730.1547,-904.1785"/>
<polygon fill="#000000" stroke="#000000" points="1733.6548,-904.1785 1730.1547,-894.1785 1726.6548,-904.1786 1733.6548,-904.1785"/>
</g>
</g>
</svg>
