<?xml version="1.0" encoding="UTF-8" standalone="no"?>
<!DOCTYPE svg PUBLIC "-//W3C//DTD SVG 1.1//EN"
 "http://www.w3.org/Graphics/SVG/1.1/DTD/svg11.dtd">
<!-- Generated by graphviz version 2.43.0 (0)
 -->
<!-- Title: %3 Pages: 1 -->
<svg width="2083pt" height="1252pt"
 viewBox="0.00 0.00 2082.96 1252.40" xmlns="http://www.w3.org/2000/svg" xmlns:xlink="http://www.w3.org/1999/xlink">
<g id="graph0" class="graph" transform="scale(1 1) rotate(0) translate(4 1248.4)">
<title>%3</title>
<polygon fill="white" stroke="transparent" points="-4,4 -4,-1248.4 2078.96,-1248.4 2078.96,4 -4,4"/>
<!-- core&#45;service&#45;admin&#45;server -->
<g id="node1" class="node">
<title>core&#45;service&#45;admin&#45;server</title>
<ellipse fill="none" stroke="black" cx="350.11" cy="-800" rx="102.81" ry="18"/>
<text text-anchor="middle" x="350.11" y="-795.8" font-family="Times,serif" font-size="14.00">core&#45;service&#45;admin&#45;server</text>
</g>
<!-- core&#45;service&#45;logging&#45;support -->
<g id="node2" class="node">
<title>core&#45;service&#45;logging&#45;support</title>
<ellipse fill="none" stroke="black" cx="804.11" cy="-444" rx="112.51" ry="18"/>
<text text-anchor="middle" x="804.11" y="-439.8" font-family="Times,serif" font-size="14.00">core&#45;service&#45;logging&#45;support</text>
</g>
<!-- core&#45;service&#45;admin&#45;server&#45;&gt;core&#45;service&#45;logging&#45;support -->
<g id="edge1" class="edge">
<title>core&#45;service&#45;admin&#45;server&#45;&gt;core&#45;service&#45;logging&#45;support</title>
<path fill="none" stroke="black" d="M404.42,-784.62C404.42,-738.42 404.42,-604 404.42,-604 404.42,-604 694.67,-604 694.67,-604 694.67,-604 694.67,-458.62 694.67,-458.62"/>
<polygon fill="black" stroke="black" points="698.17,-458.62 694.67,-448.62 691.17,-458.62 698.17,-458.62"/>
</g>
<!-- core&#45;service&#45;discovery&#45;support -->
<g id="node3" class="node">
<title>core&#45;service&#45;discovery&#45;support</title>
<ellipse fill="none" stroke="black" cx="120.11" cy="-444" rx="120.22" ry="18"/>
<text text-anchor="middle" x="120.11" y="-439.8" font-family="Times,serif" font-size="14.00">core&#45;service&#45;discovery&#45;support</text>
</g>
<!-- core&#45;service&#45;admin&#45;server&#45;&gt;core&#45;service&#45;discovery&#45;support -->
<g id="edge2" class="edge">
<title>core&#45;service&#45;admin&#45;server&#45;&gt;core&#45;service&#45;discovery&#45;support</title>
<path fill="none" stroke="black" d="M252.93,-793.82C252.93,-746.55 252.93,-444 252.93,-444 252.93,-444 250.67,-444 250.67,-444"/>
<polygon fill="black" stroke="black" points="250.67,-440.5 240.67,-444 250.67,-447.5 250.67,-440.5"/>
</g>
<!-- core&#45;service&#45;web&#45;support -->
<g id="node4" class="node">
<title>core&#45;service&#45;web&#45;support</title>
<ellipse fill="none" stroke="black" cx="359.11" cy="-444" rx="100.43" ry="18"/>
<text text-anchor="middle" x="359.11" y="-439.8" font-family="Times,serif" font-size="14.00">core&#45;service&#45;web&#45;support</text>
</g>
<!-- core&#45;service&#45;admin&#45;server&#45;&gt;core&#45;service&#45;web&#45;support -->
<g id="edge3" class="edge">
<title>core&#45;service&#45;admin&#45;server&#45;&gt;core&#45;service&#45;web&#45;support</title>
<path fill="none" stroke="black" d="M307.24,-783.31C307.24,-783.31 307.24,-469.44 307.24,-469.44"/>
<polygon fill="black" stroke="black" points="310.74,-469.44 307.24,-459.44 303.74,-469.44 310.74,-469.44"/>
</g>
<!-- core&#45;service&#45;module -->
<g id="node6" class="node">
<title>core&#45;service&#45;module</title>
<ellipse fill="none" stroke="black" cx="1163.11" cy="-89" rx="82.56" ry="18"/>
<text text-anchor="middle" x="1163.11" y="-84.8" font-family="Times,serif" font-size="14.00">core&#45;service&#45;module</text>
</g>
<!-- core&#45;service&#45;logging&#45;support&#45;&gt;core&#45;service&#45;module -->
<g id="edge22" class="edge">
<title>core&#45;service&#45;logging&#45;support&#45;&gt;core&#45;service&#45;module</title>
<path fill="none" stroke="black" d="M804.11,-425.94C804.11,-354.95 804.11,-99 804.11,-99 804.11,-99 1083.89,-99 1083.89,-99"/>
<polygon fill="black" stroke="black" points="1083.89,-102.5 1093.89,-99 1083.89,-95.5 1083.89,-102.5"/>
</g>
<!-- core&#45;service&#45;discovery&#45;support&#45;&gt;core&#45;service&#45;module -->
<g id="edge11" class="edge">
<title>core&#45;service&#45;discovery&#45;support&#45;&gt;core&#45;service&#45;module</title>
<path fill="none" stroke="black" d="M120.11,-425.85C120.11,-352 120.11,-78 120.11,-78 120.11,-78 1087.47,-78 1087.47,-78"/>
<polygon fill="black" stroke="black" points="1087.47,-81.5 1097.47,-78 1087.47,-74.5 1087.47,-81.5"/>
</g>
<!-- core&#45;service&#45;web&#45;support&#45;&gt;core&#45;service&#45;module -->
<g id="edge28" class="edge">
<title>core&#45;service&#45;web&#45;support&#45;&gt;core&#45;service&#45;module</title>
<path fill="none" stroke="black" d="M359.11,-425.7C359.11,-352.55 359.11,-85 359.11,-85 359.11,-85 1072.34,-85 1072.34,-85"/>
<polygon fill="black" stroke="black" points="1072.34,-88.5 1082.34,-85 1072.34,-81.5 1072.34,-88.5"/>
</g>
<!-- core&#45;service&#45;api&#45;support -->
<g id="node5" class="node">
<title>core&#45;service&#45;api&#45;support</title>
<ellipse fill="none" stroke="black" cx="1749.11" cy="-800" rx="96.57" ry="18"/>
<text text-anchor="middle" x="1749.11" y="-795.8" font-family="Times,serif" font-size="14.00">core&#45;service&#45;api&#45;support</text>
</g>
<!-- core&#45;service&#45;api&#45;support&#45;&gt;core&#45;service&#45;module -->
<g id="edge4" class="edge">
<title>core&#45;service&#45;api&#45;support&#45;&gt;core&#45;service&#45;module</title>
<path fill="none" stroke="black" d="M1716.93,-782.77C1716.93,-741.24 1716.93,-639 1716.93,-639 1716.93,-639 1168.32,-639 1168.32,-639 1168.32,-639 1168.32,-116.99 1168.32,-116.99"/>
<polygon fill="black" stroke="black" points="1171.82,-116.99 1168.32,-106.99 1164.82,-116.99 1171.82,-116.99"/>
</g>
<!-- core&#45;service&#45;web&#45;common -->
<g id="node7" class="node">
<title>core&#45;service&#45;web&#45;common</title>
<ellipse fill="none" stroke="black" cx="1512.11" cy="-444" rx="104.76" ry="18"/>
<text text-anchor="middle" x="1512.11" y="-439.8" font-family="Times,serif" font-size="14.00">core&#45;service&#45;web&#45;common</text>
</g>
<!-- core&#45;service&#45;api&#45;support&#45;&gt;core&#45;service&#45;web&#45;common -->
<g id="edge5" class="edge">
<title>core&#45;service&#45;api&#45;support&#45;&gt;core&#45;service&#45;web&#45;common</title>
<path fill="none" stroke="black" d="M1781.29,-782.84C1781.29,-718.74 1781.29,-497 1781.29,-497 1781.29,-497 1529.28,-497 1529.28,-497 1529.28,-497 1529.28,-471.94 1529.28,-471.94"/>
<polygon fill="black" stroke="black" points="1532.78,-471.94 1529.28,-461.94 1525.78,-471.94 1532.78,-471.94"/>
</g>
<!-- core&#45;service&#45;bus&#45;support -->
<g id="node8" class="node">
<title>core&#45;service&#45;bus&#45;support</title>
<ellipse fill="none" stroke="black" cx="575.11" cy="-444" rx="98.03" ry="18"/>
<text text-anchor="middle" x="575.11" y="-439.8" font-family="Times,serif" font-size="14.00">core&#45;service&#45;bus&#45;support</text>
</g>
<!-- core&#45;service&#45;bus&#45;support&#45;&gt;core&#45;service&#45;module -->
<g id="edge6" class="edge">
<title>core&#45;service&#45;bus&#45;support&#45;&gt;core&#45;service&#45;module</title>
<path fill="none" stroke="black" d="M575.11,-425.57C575.11,-353.14 575.11,-92 575.11,-92 575.11,-92 1071.35,-92 1071.35,-92"/>
<polygon fill="black" stroke="black" points="1071.35,-95.5 1081.35,-92 1071.35,-88.5 1071.35,-95.5"/>
</g>
<!-- core&#45;service&#45;cache&#45;support -->
<g id="node9" class="node">
<title>core&#45;service&#45;cache&#45;support</title>
<ellipse fill="none" stroke="black" cx="1969.11" cy="-800" rx="105.7" ry="18"/>
<text text-anchor="middle" x="1969.11" y="-795.8" font-family="Times,serif" font-size="14.00">core&#45;service&#45;cache&#45;support</text>
</g>
<!-- core&#45;service&#45;cache&#45;support&#45;&gt;core&#45;service&#45;module -->
<g id="edge7" class="edge">
<title>core&#45;service&#45;cache&#45;support&#45;&gt;core&#45;service&#45;module</title>
<path fill="none" stroke="black" d="M1970.05,-781.84C1970.05,-670.05 1970.05,-80 1970.05,-80 1970.05,-80 1245.08,-80 1245.08,-80"/>
<polygon fill="black" stroke="black" points="1245.08,-76.5 1235.08,-80 1245.08,-83.5 1245.08,-76.5"/>
</g>
<!-- core&#45;service&#45;config&#45;server -->
<g id="node10" class="node">
<title>core&#45;service&#45;config&#45;server</title>
<ellipse fill="none" stroke="black" cx="822.11" cy="-800" rx="102.82" ry="18"/>
<text text-anchor="middle" x="822.11" y="-795.8" font-family="Times,serif" font-size="14.00">core&#45;service&#45;config&#45;server</text>
</g>
<!-- core&#45;service&#45;config&#45;server&#45;&gt;core&#45;service&#45;logging&#45;support -->
<g id="edge8" class="edge">
<title>core&#45;service&#45;config&#45;server&#45;&gt;core&#45;service&#45;logging&#45;support</title>
<path fill="none" stroke="black" d="M785.09,-782.83C785.09,-782.83 785.09,-471.84 785.09,-471.84"/>
<polygon fill="black" stroke="black" points="788.59,-471.84 785.09,-461.84 781.59,-471.84 788.59,-471.84"/>
</g>
<!-- core&#45;service&#45;config&#45;support -->
<g id="node11" class="node">
<title>core&#45;service&#45;config&#45;support</title>
<ellipse fill="none" stroke="black" cx="1281.11" cy="-444" rx="107.68" ry="18"/>
<text text-anchor="middle" x="1281.11" y="-439.8" font-family="Times,serif" font-size="14.00">core&#45;service&#45;config&#45;support</text>
</g>
<!-- core&#45;service&#45;config&#45;support&#45;&gt;core&#45;service&#45;module -->
<g id="edge9" class="edge">
<title>core&#45;service&#45;config&#45;support&#45;&gt;core&#45;service&#45;module</title>
<path fill="none" stroke="black" d="M1209.58,-430.52C1209.58,-430.52 1209.58,-114.06 1209.58,-114.06"/>
<polygon fill="black" stroke="black" points="1213.08,-114.06 1209.58,-104.06 1206.08,-114.06 1213.08,-114.06"/>
</g>
<!-- core&#45;service&#45;discovery&#45;server -->
<g id="node12" class="node">
<title>core&#45;service&#45;discovery&#45;server</title>
<ellipse fill="none" stroke="black" cx="586.11" cy="-800" rx="115.37" ry="18"/>
<text text-anchor="middle" x="586.11" y="-795.8" font-family="Times,serif" font-size="14.00">core&#45;service&#45;discovery&#45;server</text>
</g>
<!-- core&#45;service&#45;discovery&#45;server&#45;&gt;core&#45;service&#45;logging&#45;support -->
<g id="edge10" class="edge">
<title>core&#45;service&#45;discovery&#45;server&#45;&gt;core&#45;service&#45;logging&#45;support</title>
<path fill="none" stroke="black" d="M697.98,-795.5C697.98,-795.5 697.98,-460.22 697.98,-460.22"/>
<polygon fill="black" stroke="black" points="701.48,-460.22 697.98,-450.22 694.48,-460.22 701.48,-460.22"/>
</g>
<!-- core&#45;service&#45;endpoint&#45;support -->
<g id="node13" class="node">
<title>core&#45;service&#45;endpoint&#45;support</title>
<ellipse fill="none" stroke="black" cx="1307.11" cy="-800" rx="116.86" ry="18"/>
<text text-anchor="middle" x="1307.11" y="-795.8" font-family="Times,serif" font-size="14.00">core&#45;service&#45;endpoint&#45;support</text>
</g>
<!-- core&#45;service&#45;endpoint&#45;support&#45;&gt;core&#45;service&#45;logging&#45;support -->
<g id="edge15" class="edge">
<title>core&#45;service&#45;endpoint&#45;support&#45;&gt;core&#45;service&#45;logging&#45;support</title>
<path fill="none" stroke="black" d="M1322.78,-782.09C1322.78,-747.53 1322.78,-675 1322.78,-675 1322.78,-675 850.97,-675 850.97,-675 850.97,-675 850.97,-470.61 850.97,-470.61"/>
<polygon fill="black" stroke="black" points="854.47,-470.61 850.97,-460.61 847.47,-470.61 854.47,-470.61"/>
</g>
<!-- core&#45;service&#45;endpoint&#45;support&#45;&gt;core&#45;service&#45;web&#45;support -->
<g id="edge13" class="edge">
<title>core&#45;service&#45;endpoint&#45;support&#45;&gt;core&#45;service&#45;web&#45;support</title>
<path fill="none" stroke="black" d="M1256.6,-783.49C1256.6,-757.51 1256.6,-710 1256.6,-710 1256.6,-710 355.83,-710 355.83,-710 355.83,-710 355.83,-472.28 355.83,-472.28"/>
<polygon fill="black" stroke="black" points="359.33,-472.28 355.83,-462.28 352.33,-472.28 359.33,-472.28"/>
</g>
<!-- core&#45;service&#45;endpoint&#45;support&#45;&gt;core&#45;service&#45;web&#45;common -->
<g id="edge12" class="edge">
<title>core&#45;service&#45;endpoint&#45;support&#45;&gt;core&#45;service&#45;web&#45;common</title>
<path fill="none" stroke="black" d="M1415.51,-793.21C1415.51,-793.21 1415.51,-461.16 1415.51,-461.16"/>
<polygon fill="black" stroke="black" points="1419.01,-461.16 1415.51,-451.16 1412.01,-461.16 1419.01,-461.16"/>
</g>
<!-- core&#45;service&#45;swagger&#45;support -->
<g id="node14" class="node">
<title>core&#45;service&#45;swagger&#45;support</title>
<ellipse fill="none" stroke="black" cx="1750.11" cy="-444" rx="115.05" ry="18"/>
<text text-anchor="middle" x="1750.11" y="-439.8" font-family="Times,serif" font-size="14.00">core&#45;service&#45;swagger&#45;support</text>
</g>
<!-- core&#45;service&#45;endpoint&#45;support&#45;&gt;core&#45;service&#45;swagger&#45;support -->
<g id="edge14" class="edge">
<title>core&#45;service&#45;endpoint&#45;support&#45;&gt;core&#45;service&#45;swagger&#45;support</title>
<path fill="none" stroke="black" d="M1419.65,-795.15C1419.65,-761.84 1419.65,-568 1419.65,-568 1419.65,-568 1643.83,-568 1643.83,-568 1643.83,-568 1643.83,-461.02 1643.83,-461.02"/>
<polygon fill="black" stroke="black" points="1647.33,-461.02 1643.83,-451.02 1640.33,-461.02 1647.33,-461.02"/>
</g>
<!-- core&#45;service&#45;swagger&#45;support&#45;&gt;core&#45;service&#45;module -->
<g id="edge23" class="edge">
<title>core&#45;service&#45;swagger&#45;support&#45;&gt;core&#45;service&#45;module</title>
<path fill="none" stroke="black" d="M1750.11,-425.91C1750.11,-353.57 1750.11,-89 1750.11,-89 1750.11,-89 1255.97,-89 1255.97,-89"/>
<polygon fill="black" stroke="black" points="1255.97,-85.5 1245.97,-89 1255.97,-92.5 1255.97,-85.5"/>
</g>
<!-- core&#45;service&#45;gateway&#45;server -->
<g id="node15" class="node">
<title>core&#45;service&#45;gateway&#45;server</title>
<ellipse fill="none" stroke="black" cx="1053.11" cy="-800" rx="110.03" ry="18"/>
<text text-anchor="middle" x="1053.11" y="-795.8" font-family="Times,serif" font-size="14.00">core&#45;service&#45;gateway&#45;server</text>
</g>
<!-- core&#45;service&#45;gateway&#45;server&#45;&gt;core&#45;service&#45;logging&#45;support -->
<g id="edge18" class="edge">
<title>core&#45;service&#45;gateway&#45;server&#45;&gt;core&#45;service&#45;logging&#45;support</title>
<path fill="none" stroke="black" d="M942.64,-800C934.81,-800 929.92,-800 929.92,-800 929.92,-800 929.92,-444 929.92,-444 929.92,-444 926.93,-444 926.93,-444"/>
<polygon fill="black" stroke="black" points="926.93,-440.5 916.93,-444 926.93,-447.5 926.93,-440.5"/>
</g>
<!-- core&#45;service&#45;gateway&#45;server&#45;&gt;core&#45;service&#45;discovery&#45;support -->
<g id="edge19" class="edge">
<title>core&#45;service&#45;gateway&#45;server&#45;&gt;core&#45;service&#45;discovery&#45;support</title>
<path fill="none" stroke="black" d="M1013.69,-782.91C1013.69,-767.09 1013.69,-746 1013.69,-746 1013.69,-746 160.15,-746 160.15,-746 160.15,-746 160.15,-471.1 160.15,-471.1"/>
<polygon fill="black" stroke="black" points="163.65,-471.1 160.15,-461.1 156.65,-471.1 163.65,-471.1"/>
</g>
<!-- core&#45;service&#45;gateway&#45;server&#45;&gt;core&#45;service&#45;web&#45;common -->
<g id="edge16" class="edge">
<title>core&#45;service&#45;gateway&#45;server&#45;&gt;core&#45;service&#45;web&#45;common</title>
<path fill="none" stroke="black" d="M1158.05,-794.42C1158.05,-756.08 1158.05,-533 1158.05,-533 1158.05,-533 1411.37,-533 1411.37,-533 1411.37,-533 1411.37,-459.04 1411.37,-459.04"/>
<polygon fill="black" stroke="black" points="1414.87,-459.04 1411.37,-449.04 1407.87,-459.04 1414.87,-459.04"/>
</g>
<!-- core&#45;service&#45;gateway&#45;server&#45;&gt;core&#45;service&#45;config&#45;support -->
<g id="edge17" class="edge">
<title>core&#45;service&#45;gateway&#45;server&#45;&gt;core&#45;service&#45;config&#45;support</title>
<path fill="none" stroke="black" d="M1160.71,-796C1160.71,-756.89 1160.71,-444 1160.71,-444 1160.71,-444 1163.15,-444 1163.15,-444"/>
<polygon fill="black" stroke="black" points="1163.15,-447.5 1173.15,-444 1163.15,-440.5 1163.15,-447.5"/>
</g>
<!-- core&#45;service&#45;tracing&#45;support -->
<g id="node16" class="node">
<title>core&#45;service&#45;tracing&#45;support</title>
<ellipse fill="none" stroke="black" cx="1045.11" cy="-444" rx="110.07" ry="18"/>
<text text-anchor="middle" x="1045.11" y="-439.8" font-family="Times,serif" font-size="14.00">core&#45;service&#45;tracing&#45;support</text>
</g>
<!-- core&#45;service&#45;gateway&#45;server&#45;&gt;core&#45;service&#45;tracing&#45;support -->
<g id="edge20" class="edge">
<title>core&#45;service&#45;gateway&#45;server&#45;&gt;core&#45;service&#45;tracing&#45;support</title>
<path fill="none" stroke="black" d="M1084.54,-782.35C1084.54,-782.35 1084.54,-470.93 1084.54,-470.93"/>
<polygon fill="black" stroke="black" points="1088.04,-470.93 1084.54,-460.93 1081.04,-470.93 1088.04,-470.93"/>
</g>
<!-- core&#45;service&#45;tracing&#45;support&#45;&gt;core&#45;service&#45;module -->
<g id="edge24" class="edge">
<title>core&#45;service&#45;tracing&#45;support&#45;&gt;core&#45;service&#45;module</title>
<path fill="none" stroke="black" d="M1117.86,-430.08C1117.86,-430.08 1117.86,-114.39 1117.86,-114.39"/>
<polygon fill="black" stroke="black" points="1121.36,-114.39 1117.86,-104.39 1114.36,-114.39 1121.36,-114.39"/>
</g>
<!-- core&#45;service&#45;jpa&#45;support -->
<g id="node17" class="node">
<title>core&#45;service&#45;jpa&#45;support</title>
<ellipse fill="none" stroke="black" cx="1538.11" cy="-800" rx="96.57" ry="18"/>
<text text-anchor="middle" x="1538.11" y="-795.8" font-family="Times,serif" font-size="14.00">core&#45;service&#45;jpa&#45;support</text>
</g>
<!-- core&#45;service&#45;jpa&#45;support&#45;&gt;core&#45;service&#45;module -->
<g id="edge21" class="edge">
<title>core&#45;service&#45;jpa&#45;support&#45;&gt;core&#45;service&#45;module</title>
<path fill="none" stroke="black" d="M1625.82,-792.12C1625.82,-714.99 1625.82,-98 1625.82,-98 1625.82,-98 1244.9,-98 1244.9,-98"/>
<polygon fill="black" stroke="black" points="1244.9,-94.5 1234.9,-98 1244.9,-101.5 1244.9,-94.5"/>
</g>
<!-- core&#45;service&#45;trigger&#45;server -->
<g id="node18" class="node">
<title>core&#45;service&#45;trigger&#45;server</title>
<ellipse fill="none" stroke="black" cx="1307.11" cy="-1156" rx="104.41" ry="18"/>
<text text-anchor="middle" x="1307.11" y="-1151.8" font-family="Times,serif" font-size="14.00">core&#45;service&#45;trigger&#45;server</text>
</g>
<!-- core&#45;service&#45;trigger&#45;server&#45;&gt;core&#45;service&#45;discovery&#45;support -->
<g id="edge26" class="edge">
<title>core&#45;service&#45;trigger&#45;server&#45;&gt;core&#45;service&#45;discovery&#45;support</title>
<path fill="none" stroke="black" d="M1202.76,-1156C906.25,-1156 80.07,-1156 80.07,-1156 80.07,-1156 80.07,-471.25 80.07,-471.25"/>
<polygon fill="black" stroke="black" points="83.57,-471.25 80.07,-461.25 76.57,-471.25 83.57,-471.25"/>
</g>
<!-- core&#45;service&#45;trigger&#45;server&#45;&gt;core&#45;service&#45;endpoint&#45;support -->
<g id="edge25" class="edge">
<title>core&#45;service&#45;trigger&#45;server&#45;&gt;core&#45;service&#45;endpoint&#45;support</title>
<path fill="none" stroke="black" d="M1307.11,-1137.86C1307.11,-1137.86 1307.11,-828.11 1307.11,-828.11"/>
<polygon fill="black" stroke="black" points="1310.61,-828.11 1307.11,-818.11 1303.61,-828.11 1310.61,-828.11"/>
</g>
<!-- core&#45;service&#45;trigger&#45;server&#45;&gt;core&#45;service&#45;jpa&#45;support -->
<g id="edge27" class="edge">
<title>core&#45;service&#45;trigger&#45;server&#45;&gt;core&#45;service&#45;jpa&#45;support</title>
<path fill="none" stroke="black" d="M1405.38,-1150C1450.57,-1150 1494.32,-1150 1494.32,-1150 1494.32,-1150 1494.32,-826.41 1494.32,-826.41"/>
<polygon fill="black" stroke="black" points="1497.82,-826.41 1494.32,-816.41 1490.82,-826.41 1497.82,-826.41"/>
</g>
<!-- examples&#45;debug&#45;service -->
<g id="node19" class="node">
<title>examples&#45;debug&#45;service</title>
<ellipse fill="none" stroke="black" cx="1643.11" cy="-1156" rx="96.09" ry="18"/>
<text text-anchor="middle" x="1643.11" y="-1151.8" font-family="Times,serif" font-size="14.00">examples&#45;debug&#45;service</text>
</g>
<!-- examples&#45;debug&#45;service&#45;&gt;core&#45;service&#45;api&#45;support -->
<g id="edge32" class="edge">
<title>examples&#45;debug&#45;service&#45;&gt;core&#45;service&#45;api&#45;support</title>
<path fill="none" stroke="black" d="M1695.87,-1140.7C1695.87,-1140.7 1695.87,-825.24 1695.87,-825.24"/>
<polygon fill="black" stroke="black" points="1699.37,-825.24 1695.87,-815.24 1692.37,-825.24 1699.37,-825.24"/>
</g>
<!-- examples&#45;debug&#45;service&#45;&gt;core&#45;service&#45;cache&#45;support -->
<g id="edge31" class="edge">
<title>examples&#45;debug&#45;service&#45;&gt;core&#45;service&#45;cache&#45;support</title>
<path fill="none" stroke="black" d="M1739.16,-1156C1835.32,-1156 1969.11,-1156 1969.11,-1156 1969.11,-1156 1969.11,-828.14 1969.11,-828.14"/>
<polygon fill="black" stroke="black" points="1972.61,-828.14 1969.11,-818.14 1965.61,-828.14 1972.61,-828.14"/>
</g>
<!-- examples&#45;debug&#45;service&#45;&gt;core&#45;service&#45;endpoint&#45;support -->
<g id="edge29" class="edge">
<title>examples&#45;debug&#45;service&#45;&gt;core&#45;service&#45;endpoint&#45;support</title>
<path fill="none" stroke="black" d="M1552.34,-1162C1489.66,-1162 1417.55,-1162 1417.55,-1162 1417.55,-1162 1417.55,-815.98 1417.55,-815.98"/>
<polygon fill="black" stroke="black" points="1421.05,-815.98 1417.55,-805.98 1414.05,-815.98 1421.05,-815.98"/>
</g>
<!-- examples&#45;debug&#45;service&#45;&gt;core&#45;service&#45;jpa&#45;support -->
<g id="edge30" class="edge">
<title>examples&#45;debug&#45;service&#45;&gt;core&#45;service&#45;jpa&#45;support</title>
<path fill="none" stroke="black" d="M1590.85,-1140.7C1590.85,-1140.7 1590.85,-825.24 1590.85,-825.24"/>
<polygon fill="black" stroke="black" points="1594.35,-825.24 1590.85,-815.24 1587.35,-825.24 1594.35,-825.24"/>
</g>
</g>
</svg>
