<?xml version="1.0" encoding="UTF-8" standalone="no"?>
<!DOCTYPE svg PUBLIC "-//W3C//DTD SVG 1.1//EN"
 "http://www.w3.org/Graphics/SVG/1.1/DTD/svg11.dtd">
<!-- Generated by graphviz version 2.40.1 (20161225.0304)
 -->
<!-- Title: %3 Pages: 1 -->
<svg width="2152pt" height="1294pt"
 viewBox="0.00 0.00 2151.60 1293.80" xmlns="http://www.w3.org/2000/svg" xmlns:xlink="http://www.w3.org/1999/xlink">
<g id="graph0" class="graph" transform="scale(1 1) rotate(0) translate(4 1289.8)">
<title>%3</title>
<polygon fill="#ffffff" stroke="transparent" points="-4,4 -4,-1289.8 2147.595,-1289.8 2147.595,4 -4,4"/>
<!-- core&#45;service&#45;admin&#45;server -->
<g id="node1" class="node">
<title>core&#45;service&#45;admin&#45;server</title>
<ellipse fill="none" stroke="#000000" cx="1565.852" cy="-827" rx="102.8142" ry="18"/>
<text text-anchor="middle" x="1565.852" y="-822.8" font-family="Times,serif" font-size="14.00" fill="#000000">core&#45;service&#45;admin&#45;server</text>
</g>
<!-- core&#45;service&#45;logging&#45;support -->
<g id="node2" class="node">
<title>core&#45;service&#45;logging&#45;support</title>
<ellipse fill="none" stroke="#000000" cx="1279.852" cy="-459" rx="112.5052" ry="18"/>
<text text-anchor="middle" x="1279.852" y="-454.8" font-family="Times,serif" font-size="14.00" fill="#000000">core&#45;service&#45;logging&#45;support</text>
</g>
<!-- core&#45;service&#45;admin&#45;server&#45;&gt;core&#45;service&#45;logging&#45;support -->
<g id="edge1" class="edge">
<title>core&#45;service&#45;admin&#45;server&#45;&gt;core&#45;service&#45;logging&#45;support</title>
<path fill="none" stroke="#000000" d="M1527.893,-810.1414C1527.893,-753.8641 1527.893,-576 1527.893,-576 1527.893,-576 1315.7725,-576 1315.7725,-576 1315.7725,-576 1315.7725,-486.2638 1315.7725,-486.2638"/>
<polygon fill="#000000" stroke="#000000" points="1319.2726,-486.2637 1315.7725,-476.2638 1312.2726,-486.2638 1319.2726,-486.2637"/>
</g>
<!-- core&#45;service&#45;discovery&#45;support -->
<g id="node3" class="node">
<title>core&#45;service&#45;discovery&#45;support</title>
<ellipse fill="none" stroke="#000000" cx="962.852" cy="-459" rx="120.2209" ry="18"/>
<text text-anchor="middle" x="962.852" y="-454.8" font-family="Times,serif" font-size="14.00" fill="#000000">core&#45;service&#45;discovery&#45;support</text>
</g>
<!-- core&#45;service&#45;admin&#45;server&#45;&gt;core&#45;service&#45;discovery&#45;support -->
<g id="edge2" class="edge">
<title>core&#45;service&#45;admin&#45;server&#45;&gt;core&#45;service&#45;discovery&#45;support</title>
<path fill="none" stroke="#000000" d="M1495.419,-813.7672C1495.419,-771.5776 1495.419,-643 1495.419,-643 1495.419,-643 1052.1978,-643 1052.1978,-643 1052.1978,-643 1052.1978,-481.0728 1052.1978,-481.0728"/>
<polygon fill="#000000" stroke="#000000" points="1055.6979,-481.0727 1052.1978,-471.0728 1048.6979,-481.0728 1055.6979,-481.0727"/>
</g>
<!-- core&#45;service&#45;web&#45;support -->
<g id="node4" class="node">
<title>core&#45;service&#45;web&#45;support</title>
<ellipse fill="none" stroke="#000000" cx="1524.852" cy="-459" rx="100.4261" ry="18"/>
<text text-anchor="middle" x="1524.852" y="-454.8" font-family="Times,serif" font-size="14.00" fill="#000000">core&#45;service&#45;web&#45;support</text>
</g>
<!-- core&#45;service&#45;admin&#45;server&#45;&gt;core&#45;service&#45;web&#45;support -->
<g id="edge3" class="edge">
<title>core&#45;service&#45;admin&#45;server&#45;&gt;core&#45;service&#45;web&#45;support</title>
<path fill="none" stroke="#000000" d="M1560.367,-809.0015C1560.367,-809.0015 1560.367,-486.1081 1560.367,-486.1081"/>
<polygon fill="#000000" stroke="#000000" points="1563.8671,-486.1081 1560.367,-476.1081 1556.8671,-486.1081 1563.8671,-486.1081"/>
</g>
<!-- core&#45;service&#45;module -->
<g id="node8" class="node">
<title>core&#45;service&#45;module</title>
<ellipse fill="none" stroke="#000000" cx="962.852" cy="-92" rx="82.5614" ry="18"/>
<text text-anchor="middle" x="962.852" y="-87.8" font-family="Times,serif" font-size="14.00" fill="#000000">core&#45;service&#45;module</text>
</g>
<!-- core&#45;service&#45;logging&#45;support&#45;&gt;core&#45;service&#45;module -->
<g id="edge22" class="edge">
<title>core&#45;service&#45;logging&#45;support&#45;&gt;core&#45;service&#45;module</title>
<path fill="none" stroke="#000000" d="M1279.852,-440.7545C1279.852,-367.8011 1279.852,-101 1279.852,-101 1279.852,-101 1044.7842,-101 1044.7842,-101"/>
<polygon fill="#000000" stroke="#000000" points="1044.7843,-97.5001 1034.7842,-101 1044.7842,-104.5001 1044.7843,-97.5001"/>
</g>
<!-- core&#45;service&#45;discovery&#45;support&#45;&gt;core&#45;service&#45;module -->
<g id="edge10" class="edge">
<title>core&#45;service&#45;discovery&#45;support&#45;&gt;core&#45;service&#45;module</title>
<path fill="none" stroke="#000000" d="M962.852,-440.8004C962.852,-440.8004 962.852,-120.3094 962.852,-120.3094"/>
<polygon fill="#000000" stroke="#000000" points="966.3521,-120.3094 962.852,-110.3094 959.3521,-120.3095 966.3521,-120.3094"/>
</g>
<!-- core&#45;service&#45;web&#45;support&#45;&gt;core&#45;service&#45;module -->
<g id="edge28" class="edge">
<title>core&#45;service&#45;web&#45;support&#45;&gt;core&#45;service&#45;module</title>
<path fill="none" stroke="#000000" d="M1524.852,-440.8004C1524.852,-366.7474 1524.852,-92 1524.852,-92 1524.852,-92 1055.7771,-92 1055.7771,-92"/>
<polygon fill="#000000" stroke="#000000" points="1055.7771,-88.5001 1045.7771,-92 1055.777,-95.5001 1055.7771,-88.5001"/>
</g>
<!-- core&#45;service&#45;api&#45;support -->
<g id="node5" class="node">
<title>core&#45;service&#45;api&#45;support</title>
<ellipse fill="none" stroke="#000000" cx="2033.852" cy="-459" rx="96.5671" ry="18"/>
<text text-anchor="middle" x="2033.852" y="-454.8" font-family="Times,serif" font-size="14.00" fill="#000000">core&#45;service&#45;api&#45;support</text>
</g>
<!-- core&#45;service&#45;web&#45;common&#45;lib -->
<g id="node6" class="node">
<title>core&#45;service&#45;web&#45;common&#45;lib</title>
<ellipse fill="none" stroke="#000000" cx="1900.852" cy="-92" rx="117.3225" ry="18"/>
<text text-anchor="middle" x="1900.852" y="-87.8" font-family="Times,serif" font-size="14.00" fill="#000000">core&#45;service&#45;web&#45;common&#45;lib</text>
</g>
<!-- core&#45;service&#45;api&#45;support&#45;&gt;core&#45;service&#45;web&#45;common&#45;lib -->
<g id="edge4" class="edge">
<title>core&#45;service&#45;api&#45;support&#45;&gt;core&#45;service&#45;web&#45;common&#45;lib</title>
<path fill="none" stroke="#000000" d="M1977.6658,-444.1586C1977.6658,-444.1586 1977.6658,-115.8346 1977.6658,-115.8346"/>
<polygon fill="#000000" stroke="#000000" points="1981.1659,-115.8345 1977.6658,-105.8346 1974.1659,-115.8346 1981.1659,-115.8345"/>
</g>
<!-- core&#45;service&#45;bus&#45;support -->
<g id="node7" class="node">
<title>core&#45;service&#45;bus&#45;support</title>
<ellipse fill="none" stroke="#000000" cx="216.852" cy="-459" rx="98.0293" ry="18"/>
<text text-anchor="middle" x="216.852" y="-454.8" font-family="Times,serif" font-size="14.00" fill="#000000">core&#45;service&#45;bus&#45;support</text>
</g>
<!-- core&#45;service&#45;bus&#45;support&#45;&gt;core&#45;service&#45;module -->
<g id="edge5" class="edge">
<title>core&#45;service&#45;bus&#45;support&#45;&gt;core&#45;service&#45;module</title>
<path fill="none" stroke="#000000" d="M216.852,-440.7569C216.852,-365.8699 216.852,-86 216.852,-86 216.852,-86 874.7778,-86 874.7778,-86"/>
<polygon fill="#000000" stroke="#000000" points="874.7779,-89.5001 884.7778,-86 874.7778,-82.5001 874.7779,-89.5001"/>
</g>
<!-- core&#45;service&#45;cache&#45;support -->
<g id="node9" class="node">
<title>core&#45;service&#45;cache&#45;support</title>
<ellipse fill="none" stroke="#000000" cx="105.852" cy="-827" rx="105.7043" ry="18"/>
<text text-anchor="middle" x="105.852" y="-822.8" font-family="Times,serif" font-size="14.00" fill="#000000">core&#45;service&#45;cache&#45;support</text>
</g>
<!-- core&#45;service&#45;cache&#45;support&#45;&gt;core&#45;service&#45;module -->
<g id="edge6" class="edge">
<title>core&#45;service&#45;cache&#45;support&#45;&gt;core&#45;service&#45;module</title>
<path fill="none" stroke="#000000" d="M59.4187,-810.7031C59.4187,-701.4618 59.4187,-80 59.4187,-80 59.4187,-80 891.111,-80 891.111,-80"/>
<polygon fill="#000000" stroke="#000000" points="891.111,-83.5001 901.111,-80 891.1109,-76.5001 891.111,-83.5001"/>
</g>
<!-- core&#45;service&#45;config&#45;server -->
<g id="node10" class="node">
<title>core&#45;service&#45;config&#45;server</title>
<ellipse fill="none" stroke="#000000" cx="1341.852" cy="-827" rx="102.8229" ry="18"/>
<text text-anchor="middle" x="1341.852" y="-822.8" font-family="Times,serif" font-size="14.00" fill="#000000">core&#45;service&#45;config&#45;server</text>
</g>
<!-- core&#45;service&#45;config&#45;server&#45;&gt;core&#45;service&#45;logging&#45;support -->
<g id="edge7" class="edge">
<title>core&#45;service&#45;config&#45;server&#45;&gt;core&#45;service&#45;logging&#45;support</title>
<path fill="none" stroke="#000000" d="M1277.3566,-812.574C1277.3566,-812.574 1277.3566,-487.1021 1277.3566,-487.1021"/>
<polygon fill="#000000" stroke="#000000" points="1280.8567,-487.1021 1277.3566,-477.1021 1273.8567,-487.1022 1280.8567,-487.1021"/>
</g>
<!-- core&#45;service&#45;config&#45;support -->
<g id="node11" class="node">
<title>core&#45;service&#45;config&#45;support</title>
<ellipse fill="none" stroke="#000000" cx="440.852" cy="-459" rx="107.6769" ry="18"/>
<text text-anchor="middle" x="440.852" y="-454.8" font-family="Times,serif" font-size="14.00" fill="#000000">core&#45;service&#45;config&#45;support</text>
</g>
<!-- core&#45;service&#45;config&#45;support&#45;&gt;core&#45;service&#45;module -->
<g id="edge8" class="edge">
<title>core&#45;service&#45;config&#45;support&#45;&gt;core&#45;service&#45;module</title>
<path fill="none" stroke="#000000" d="M440.852,-440.8004C440.852,-366.7474 440.852,-92 440.852,-92 440.852,-92 869.8512,-92 869.8512,-92"/>
<polygon fill="#000000" stroke="#000000" points="869.8512,-95.5001 879.8512,-92 869.8511,-88.5001 869.8512,-95.5001"/>
</g>
<!-- core&#45;service&#45;discovery&#45;server -->
<g id="node12" class="node">
<title>core&#45;service&#45;discovery&#45;server</title>
<ellipse fill="none" stroke="#000000" cx="1105.852" cy="-827" rx="115.3672" ry="18"/>
<text text-anchor="middle" x="1105.852" y="-822.8" font-family="Times,serif" font-size="14.00" fill="#000000">core&#45;service&#45;discovery&#45;server</text>
</g>
<!-- core&#45;service&#45;discovery&#45;server&#45;&gt;core&#45;service&#45;logging&#45;support -->
<g id="edge9" class="edge">
<title>core&#45;service&#45;discovery&#45;server&#45;&gt;core&#45;service&#45;logging&#45;support</title>
<path fill="none" stroke="#000000" d="M1203.0569,-817.1569C1203.0569,-817.1569 1203.0569,-482.3813 1203.0569,-482.3813"/>
<polygon fill="#000000" stroke="#000000" points="1206.557,-482.3812 1203.0569,-472.3813 1199.557,-482.3813 1206.557,-482.3812"/>
</g>
<!-- core&#45;service&#45;endpoint&#45;support -->
<g id="node13" class="node">
<title>core&#45;service&#45;endpoint&#45;support</title>
<ellipse fill="none" stroke="#000000" cx="1803.852" cy="-827" rx="116.8553" ry="18"/>
<text text-anchor="middle" x="1803.852" y="-822.8" font-family="Times,serif" font-size="14.00" fill="#000000">core&#45;service&#45;endpoint&#45;support</text>
</g>
<!-- core&#45;service&#45;endpoint&#45;support&#45;&gt;core&#45;service&#45;logging&#45;support -->
<g id="edge13" class="edge">
<title>core&#45;service&#45;endpoint&#45;support&#45;&gt;core&#45;service&#45;logging&#45;support</title>
<path fill="none" stroke="#000000" d="M1733.5998,-812.526C1733.5998,-754.6523 1733.5998,-543 1733.5998,-543 1733.5998,-543 1354.1884,-543 1354.1884,-543 1354.1884,-543 1354.1884,-482.8709 1354.1884,-482.8709"/>
<polygon fill="#000000" stroke="#000000" points="1357.6885,-482.8709 1354.1884,-472.8709 1350.6885,-482.8709 1357.6885,-482.8709"/>
</g>
<!-- core&#45;service&#45;endpoint&#45;support&#45;&gt;core&#45;service&#45;web&#45;support -->
<g id="edge11" class="edge">
<title>core&#45;service&#45;endpoint&#45;support&#45;&gt;core&#45;service&#45;web&#45;support</title>
<path fill="none" stroke="#000000" d="M1780.0251,-809.0484C1780.0251,-741.9891 1780.0251,-510 1780.0251,-510 1780.0251,-510 1592.841,-510 1592.841,-510 1592.841,-510 1592.841,-482.3996 1592.841,-482.3996"/>
<polygon fill="#000000" stroke="#000000" points="1596.3411,-482.3996 1592.841,-472.3996 1589.3411,-482.3997 1596.3411,-482.3996"/>
</g>
<!-- core&#45;service&#45;endpoint&#45;support&#45;&gt;core&#45;service&#45;web&#45;common&#45;lib -->
<g id="edge14" class="edge">
<title>core&#45;service&#45;endpoint&#45;support&#45;&gt;core&#45;service&#45;web&#45;common&#45;lib</title>
<path fill="none" stroke="#000000" d="M1896.7026,-816.0396C1896.7026,-816.0396 1896.7026,-120.0068 1896.7026,-120.0068"/>
<polygon fill="#000000" stroke="#000000" points="1900.2027,-120.0067 1896.7026,-110.0068 1893.2027,-120.0068 1900.2027,-120.0067"/>
</g>
<!-- core&#45;service&#45;swagger&#45;support -->
<g id="node14" class="node">
<title>core&#45;service&#45;swagger&#45;support</title>
<ellipse fill="none" stroke="#000000" cx="1757.852" cy="-459" rx="115.0473" ry="18"/>
<text text-anchor="middle" x="1757.852" y="-454.8" font-family="Times,serif" font-size="14.00" fill="#000000">core&#45;service&#45;swagger&#45;support</text>
</g>
<!-- core&#45;service&#45;endpoint&#45;support&#45;&gt;core&#45;service&#45;swagger&#45;support -->
<g id="edge12" class="edge">
<title>core&#45;service&#45;endpoint&#45;support&#45;&gt;core&#45;service&#45;swagger&#45;support</title>
<path fill="none" stroke="#000000" d="M1826.4504,-809.2506C1826.4504,-809.2506 1826.4504,-483.6852 1826.4504,-483.6852"/>
<polygon fill="#000000" stroke="#000000" points="1829.9505,-483.6852 1826.4504,-473.6852 1822.9505,-483.6852 1829.9505,-483.6852"/>
</g>
<!-- core&#45;service&#45;swagger&#45;support&#45;&gt;core&#45;service&#45;module -->
<g id="edge23" class="edge">
<title>core&#45;service&#45;swagger&#45;support&#45;&gt;core&#45;service&#45;module</title>
<path fill="none" stroke="#000000" d="M1713.2596,-442.3586C1713.2596,-369.5913 1713.2596,-83 1713.2596,-83 1713.2596,-83 1044.8043,-83 1044.8043,-83"/>
<polygon fill="#000000" stroke="#000000" points="1044.8043,-79.5001 1034.8043,-83 1044.8042,-86.5001 1044.8043,-79.5001"/>
</g>
<!-- core&#45;service&#45;gateway&#45;server -->
<g id="node15" class="node">
<title>core&#45;service&#45;gateway&#45;server</title>
<ellipse fill="none" stroke="#000000" cx="498.852" cy="-827" rx="110.0307" ry="18"/>
<text text-anchor="middle" x="498.852" y="-822.8" font-family="Times,serif" font-size="14.00" fill="#000000">core&#45;service&#45;gateway&#45;server</text>
</g>
<!-- core&#45;service&#45;gateway&#45;server&#45;&gt;core&#45;service&#45;logging&#45;support -->
<g id="edge17" class="edge">
<title>core&#45;service&#45;gateway&#45;server&#45;&gt;core&#45;service&#45;logging&#45;support</title>
<path fill="none" stroke="#000000" d="M598.4803,-819.1558C598.4803,-798.1133 598.4803,-742 598.4803,-742 598.4803,-742 1185.0783,-742 1185.0783,-742 1185.0783,-742 1185.0783,-479.0721 1185.0783,-479.0721"/>
<polygon fill="#000000" stroke="#000000" points="1188.5784,-479.0721 1185.0783,-469.0721 1181.5784,-479.0722 1188.5784,-479.0721"/>
</g>
<!-- core&#45;service&#45;gateway&#45;server&#45;&gt;core&#45;service&#45;discovery&#45;support -->
<g id="edge18" class="edge">
<title>core&#45;service&#45;gateway&#45;server&#45;&gt;core&#45;service&#45;discovery&#45;support</title>
<path fill="none" stroke="#000000" d="M587.8434,-816.1893C587.8434,-772.2015 587.8434,-609 587.8434,-609 587.8434,-609 860.623,-609 860.623,-609 860.623,-609 860.623,-478.8419 860.623,-478.8419"/>
<polygon fill="#000000" stroke="#000000" points="864.1231,-478.8419 860.623,-468.8419 857.1231,-478.842 864.1231,-478.8419"/>
</g>
<!-- core&#45;service&#45;gateway&#45;server&#45;&gt;core&#45;service&#45;web&#45;common&#45;lib -->
<g id="edge15" class="edge">
<title>core&#45;service&#45;gateway&#45;server&#45;&gt;core&#45;service&#45;web&#45;common&#45;lib</title>
<path fill="none" stroke="#000000" d="M557.63,-811.6602C557.63,-722.5082 557.63,-275 557.63,-275 557.63,-275 1828.2833,-275 1828.2833,-275 1828.2833,-275 1828.2833,-116.3597 1828.2833,-116.3597"/>
<polygon fill="#000000" stroke="#000000" points="1831.7834,-116.3597 1828.2833,-106.3597 1824.7834,-116.3597 1831.7834,-116.3597"/>
</g>
<!-- core&#45;service&#45;gateway&#45;server&#45;&gt;core&#45;service&#45;bus&#45;support -->
<g id="edge20" class="edge">
<title>core&#45;service&#45;gateway&#45;server&#45;&gt;core&#45;service&#45;bus&#45;support</title>
<path fill="none" stroke="#000000" d="M388.3861,-827C334.2227,-827 280.4791,-827 280.4791,-827 280.4791,-827 280.4791,-482.9767 280.4791,-482.9767"/>
<polygon fill="#000000" stroke="#000000" points="283.9792,-482.9766 280.4791,-472.9767 276.9792,-482.9767 283.9792,-482.9766"/>
</g>
<!-- core&#45;service&#45;gateway&#45;server&#45;&gt;core&#45;service&#45;config&#45;support -->
<g id="edge16" class="edge">
<title>core&#45;service&#45;gateway&#45;server&#45;&gt;core&#45;service&#45;config&#45;support</title>
<path fill="none" stroke="#000000" d="M441.9547,-811.1875C441.9547,-811.1875 441.9547,-487.3121 441.9547,-487.3121"/>
<polygon fill="#000000" stroke="#000000" points="445.4548,-487.312 441.9547,-477.3121 438.4548,-487.3121 445.4548,-487.312"/>
</g>
<!-- core&#45;service&#45;tracing&#45;support -->
<g id="node16" class="node">
<title>core&#45;service&#45;tracing&#45;support</title>
<ellipse fill="none" stroke="#000000" cx="676.852" cy="-459" rx="110.0652" ry="18"/>
<text text-anchor="middle" x="676.852" y="-454.8" font-family="Times,serif" font-size="14.00" fill="#000000">core&#45;service&#45;tracing&#45;support</text>
</g>
<!-- core&#45;service&#45;gateway&#45;server&#45;&gt;core&#45;service&#45;tracing&#45;support -->
<g id="edge19" class="edge">
<title>core&#45;service&#45;gateway&#45;server&#45;&gt;core&#45;service&#45;tracing&#45;support</title>
<path fill="none" stroke="#000000" d="M577.2065,-814.3326C577.2065,-814.3326 577.2065,-476.8337 577.2065,-476.8337"/>
<polygon fill="#000000" stroke="#000000" points="580.7066,-476.8337 577.2065,-466.8337 573.7066,-476.8338 580.7066,-476.8337"/>
</g>
<!-- core&#45;service&#45;tracing&#45;support&#45;&gt;core&#45;service&#45;module -->
<g id="edge24" class="edge">
<title>core&#45;service&#45;tracing&#45;support&#45;&gt;core&#45;service&#45;module</title>
<path fill="none" stroke="#000000" d="M676.852,-440.6017C676.852,-367.0369 676.852,-98 676.852,-98 676.852,-98 874.7013,-98 874.7013,-98"/>
<polygon fill="#000000" stroke="#000000" points="874.7013,-101.5001 884.7013,-98 874.7012,-94.5001 874.7013,-101.5001"/>
</g>
<!-- core&#45;service&#45;jpa&#45;support -->
<g id="node17" class="node">
<title>core&#45;service&#45;jpa&#45;support</title>
<ellipse fill="none" stroke="#000000" cx="799.852" cy="-827" rx="96.5671" ry="18"/>
<text text-anchor="middle" x="799.852" y="-822.8" font-family="Times,serif" font-size="14.00" fill="#000000">core&#45;service&#45;jpa&#45;support</text>
</g>
<!-- core&#45;service&#45;jpa&#45;support&#45;&gt;core&#45;service&#45;module -->
<g id="edge21" class="edge">
<title>core&#45;service&#45;jpa&#45;support&#45;&gt;core&#45;service&#45;module</title>
<path fill="none" stroke="#000000" d="M814.938,-809.128C814.938,-697.792 814.938,-104 814.938,-104 814.938,-104 890.9802,-104 890.9802,-104"/>
<polygon fill="#000000" stroke="#000000" points="890.9802,-107.5001 900.9802,-104 890.9802,-100.5001 890.9802,-107.5001"/>
</g>
<!-- core&#45;service&#45;trigger&#45;server -->
<g id="node18" class="node">
<title>core&#45;service&#45;trigger&#45;server</title>
<ellipse fill="none" stroke="#000000" cx="967.852" cy="-1194" rx="104.4054" ry="18"/>
<text text-anchor="middle" x="967.852" y="-1189.8" font-family="Times,serif" font-size="14.00" fill="#000000">core&#45;service&#45;trigger&#45;server</text>
</g>
<!-- core&#45;service&#45;trigger&#45;server&#45;&gt;core&#45;service&#45;discovery&#45;support -->
<g id="edge26" class="edge">
<title>core&#45;service&#45;trigger&#45;server&#45;&gt;core&#45;service&#45;discovery&#45;support</title>
<path fill="none" stroke="#000000" d="M959.2409,-1175.8314C959.2409,-1175.8314 959.2409,-487.1915 959.2409,-487.1915"/>
<polygon fill="#000000" stroke="#000000" points="962.741,-487.1915 959.2409,-477.1915 955.741,-487.1916 962.741,-487.1915"/>
</g>
<!-- core&#45;service&#45;trigger&#45;server&#45;&gt;core&#45;service&#45;endpoint&#45;support -->
<g id="edge25" class="edge">
<title>core&#45;service&#45;trigger&#45;server&#45;&gt;core&#45;service&#45;endpoint&#45;support</title>
<path fill="none" stroke="#000000" d="M1031.3616,-1179.5292C1031.3616,-1151.6018 1031.3616,-1093 1031.3616,-1093 1031.3616,-1093 1827.1875,-1093 1827.1875,-1093 1827.1875,-1093 1827.1875,-854.866 1827.1875,-854.866"/>
<polygon fill="#000000" stroke="#000000" points="1830.6876,-854.866 1827.1875,-844.866 1823.6876,-854.8661 1830.6876,-854.866"/>
</g>
<!-- core&#45;service&#45;trigger&#45;server&#45;&gt;core&#45;service&#45;jpa&#45;support -->
<g id="edge27" class="edge">
<title>core&#45;service&#45;trigger&#45;server&#45;&gt;core&#45;service&#45;jpa&#45;support</title>
<path fill="none" stroke="#000000" d="M874.5615,-1185.6451C874.5615,-1185.6451 874.5615,-848.6345 874.5615,-848.6345"/>
<polygon fill="#000000" stroke="#000000" points="878.0616,-848.6345 874.5615,-838.6345 871.0616,-848.6345 878.0616,-848.6345"/>
</g>
<!-- examples&#45;debug&#45;service -->
<g id="node19" class="node">
<title>examples&#45;debug&#45;service</title>
<ellipse fill="none" stroke="#000000" cx="553.852" cy="-1194" rx="96.0913" ry="18"/>
<text text-anchor="middle" x="553.852" y="-1189.8" font-family="Times,serif" font-size="14.00" fill="#000000">examples&#45;debug&#45;service</text>
</g>
<!-- examples&#45;debug&#45;service&#45;&gt;core&#45;service&#45;discovery&#45;support -->
<g id="edge31" class="edge">
<title>examples&#45;debug&#45;service&#45;&gt;core&#45;service&#45;discovery&#45;support</title>
<path fill="none" stroke="#000000" d="M629.5074,-1182.4895C629.5074,-1109.044 629.5074,-709 629.5074,-709 629.5074,-709 878.5043,-709 878.5043,-709 878.5043,-709 878.5043,-482.0891 878.5043,-482.0891"/>
<polygon fill="#000000" stroke="#000000" points="882.0044,-482.0891 878.5043,-472.0891 875.0044,-482.0891 882.0044,-482.0891"/>
</g>
<!-- examples&#45;debug&#45;service&#45;&gt;core&#45;service&#45;bus&#45;support -->
<g id="edge32" class="edge">
<title>examples&#45;debug&#45;service&#45;&gt;core&#45;service&#45;bus&#45;support</title>
<path fill="none" stroke="#000000" d="M457.7406,-1194C367.4402,-1194 246.0916,-1194 246.0916,-1194 246.0916,-1194 246.0916,-486.4437 246.0916,-486.4437"/>
<polygon fill="#000000" stroke="#000000" points="249.5917,-486.4437 246.0916,-476.4437 242.5917,-486.4437 249.5917,-486.4437"/>
</g>
<!-- examples&#45;debug&#45;service&#45;&gt;core&#45;service&#45;endpoint&#45;support -->
<g id="edge29" class="edge">
<title>examples&#45;debug&#45;service&#45;&gt;core&#45;service&#45;endpoint&#45;support</title>
<path fill="none" stroke="#000000" d="M619.3123,-1180.7672C619.3123,-1138.5776 619.3123,-1010 619.3123,-1010 619.3123,-1010 1733.8455,-1010 1733.8455,-1010 1733.8455,-1010 1733.8455,-851.6663 1733.8455,-851.6663"/>
<polygon fill="#000000" stroke="#000000" points="1737.3456,-851.6663 1733.8455,-841.6663 1730.3456,-851.6663 1737.3456,-851.6663"/>
</g>
<!-- examples&#45;debug&#45;service&#45;&gt;core&#45;service&#45;jpa&#45;support -->
<g id="edge30" class="edge">
<title>examples&#45;debug&#45;service&#45;&gt;core&#45;service&#45;jpa&#45;support</title>
<path fill="none" stroke="#000000" d="M639.7025,-1185.6451C639.7025,-1131.0171 639.7025,-827 639.7025,-827 639.7025,-827 692.9978,-827 692.9978,-827"/>
<polygon fill="#000000" stroke="#000000" points="692.9979,-830.5001 702.9978,-827 692.9978,-823.5001 692.9979,-830.5001"/>
</g>
<!-- examples&#45;order&#45;service -->
<g id="node20" class="node">
<title>examples&#45;order&#45;service</title>
<ellipse fill="none" stroke="#000000" cx="1514.852" cy="-1194" rx="92.8387" ry="18"/>
<text text-anchor="middle" x="1514.852" y="-1189.8" font-family="Times,serif" font-size="14.00" fill="#000000">examples&#45;order&#45;service</text>
</g>
<!-- examples&#45;order&#45;service&#45;&gt;core&#45;service&#45;discovery&#45;support -->
<g id="edge35" class="edge">
<title>examples&#45;order&#45;service&#45;&gt;core&#45;service&#45;discovery&#45;support</title>
<path fill="none" stroke="#000000" d="M1453.8542,-1180.0591C1453.8542,-1107.3562 1453.8542,-775 1453.8542,-775 1453.8542,-775 1021.4332,-775 1021.4332,-775 1021.4332,-775 1021.4332,-485.1049 1021.4332,-485.1049"/>
<polygon fill="#000000" stroke="#000000" points="1024.9333,-485.1049 1021.4332,-475.1049 1017.9333,-485.105 1024.9333,-485.1049"/>
</g>
<!-- examples&#45;order&#45;service&#45;&gt;core&#45;service&#45;endpoint&#45;support -->
<g id="edge33" class="edge">
<title>examples&#45;order&#45;service&#45;&gt;core&#45;service&#45;endpoint&#45;support</title>
<path fill="none" stroke="#000000" d="M1602.6749,-1188C1708.9583,-1188 1873.8585,-1188 1873.8585,-1188 1873.8585,-1188 1873.8585,-851.5987 1873.8585,-851.5987"/>
<polygon fill="#000000" stroke="#000000" points="1877.3586,-851.5987 1873.8585,-841.5987 1870.3586,-851.5988 1877.3586,-851.5987"/>
</g>
<!-- examples&#45;order&#45;service&#45;&gt;core&#45;service&#45;jpa&#45;support -->
<g id="edge34" class="edge">
<title>examples&#45;order&#45;service&#45;&gt;core&#45;service&#45;jpa&#45;support</title>
<path fill="none" stroke="#000000" d="M1433.3481,-1185.1797C1433.3481,-1143.5805 1433.3481,-969 1433.3481,-969 1433.3481,-969 885.4736,-969 885.4736,-969 885.4736,-969 885.4736,-845.4575 885.4736,-845.4575"/>
<polygon fill="#000000" stroke="#000000" points="888.9737,-845.4575 885.4736,-835.4575 881.9737,-845.4575 888.9737,-845.4575"/>
</g>
<!-- examples&#45;user&#45;service&#45;api -->
<g id="node21" class="node">
<title>examples&#45;user&#45;service&#45;api</title>
<ellipse fill="none" stroke="#000000" cx="2040.852" cy="-827" rx="102.9866" ry="18"/>
<text text-anchor="middle" x="2040.852" y="-822.8" font-family="Times,serif" font-size="14.00" fill="#000000">examples&#45;user&#45;service&#45;api</text>
</g>
<!-- examples&#45;order&#45;service&#45;&gt;examples&#45;user&#45;service&#45;api -->
<g id="edge36" class="edge">
<title>examples&#45;order&#45;service&#45;&gt;examples&#45;user&#45;service&#45;api</title>
<path fill="none" stroke="#000000" d="M1602.6987,-1200C1760.3706,-1200 2075.0997,-1200 2075.0997,-1200 2075.0997,-1200 2075.0997,-853.9963 2075.0997,-853.9963"/>
<polygon fill="#000000" stroke="#000000" points="2078.5998,-853.9962 2075.0997,-843.9963 2071.5998,-853.9963 2078.5998,-853.9962"/>
</g>
<!-- examples&#45;user&#45;service&#45;api&#45;&gt;core&#45;service&#45;api&#45;support -->
<g id="edge44" class="edge">
<title>examples&#45;user&#45;service&#45;api&#45;&gt;core&#45;service&#45;api&#45;support</title>
<path fill="none" stroke="#000000" d="M2034.2473,-809.0015C2034.2473,-809.0015 2034.2473,-487.3987 2034.2473,-487.3987"/>
<polygon fill="#000000" stroke="#000000" points="2037.7474,-487.3987 2034.2473,-477.3987 2030.7474,-487.3988 2037.7474,-487.3987"/>
</g>
<!-- examples&#45;user&#45;service -->
<g id="node22" class="node">
<title>examples&#45;user&#45;service</title>
<ellipse fill="none" stroke="#000000" cx="756.852" cy="-1194" rx="88.9883" ry="18"/>
<text text-anchor="middle" x="756.852" y="-1189.8" font-family="Times,serif" font-size="14.00" fill="#000000">examples&#45;user&#45;service</text>
</g>
<!-- examples&#45;user&#45;service&#45;&gt;core&#45;service&#45;discovery&#45;support -->
<g id="edge40" class="edge">
<title>examples&#45;user&#45;service&#45;&gt;core&#45;service&#45;discovery&#45;support</title>
<path fill="none" stroke="#000000" d="M760.3295,-1175.648C760.3295,-1115.3251 760.3295,-927 760.3295,-927 760.3295,-927 927.8133,-927 927.8133,-927 927.8133,-927 927.8133,-486.492 927.8133,-486.492"/>
<polygon fill="#000000" stroke="#000000" points="931.3134,-486.492 927.8133,-476.492 924.3134,-486.492 931.3134,-486.492"/>
</g>
<!-- examples&#45;user&#45;service&#45;&gt;core&#45;service&#45;cache&#45;support -->
<g id="edge38" class="edge">
<title>examples&#45;user&#45;service&#45;&gt;core&#45;service&#45;cache&#45;support</title>
<path fill="none" stroke="#000000" d="M676.723,-1186.077C676.723,-1137.8679 676.723,-886 676.723,-886 676.723,-886 105.852,-886 105.852,-886 105.852,-886 105.852,-855.0225 105.852,-855.0225"/>
<polygon fill="#000000" stroke="#000000" points="109.3521,-855.0225 105.852,-845.0225 102.3521,-855.0226 109.3521,-855.0225"/>
</g>
<!-- examples&#45;user&#45;service&#45;&gt;core&#45;service&#45;config&#45;support -->
<g id="edge41" class="edge">
<title>examples&#45;user&#45;service&#45;&gt;core&#45;service&#45;config&#45;support</title>
<path fill="none" stroke="#000000" d="M685.5882,-1183.1808C685.5882,-1108.7943 685.5882,-676 685.5882,-676 685.5882,-676 495.3225,-676 495.3225,-676 495.3225,-676 495.3225,-484.6061 495.3225,-484.6061"/>
<polygon fill="#000000" stroke="#000000" points="498.8226,-484.6061 495.3225,-474.6061 491.8226,-484.6061 498.8226,-484.6061"/>
</g>
<!-- examples&#45;user&#45;service&#45;&gt;core&#45;service&#45;endpoint&#45;support -->
<g id="edge37" class="edge">
<title>examples&#45;user&#45;service&#45;&gt;core&#45;service&#45;endpoint&#45;support</title>
<path fill="none" stroke="#000000" d="M788.8351,-1177.0345C788.8351,-1139.1553 788.8351,-1051 788.8351,-1051 788.8351,-1051 1780.5165,-1051 1780.5165,-1051 1780.5165,-1051 1780.5165,-854.9522 1780.5165,-854.9522"/>
<polygon fill="#000000" stroke="#000000" points="1784.0166,-854.9522 1780.5165,-844.9522 1777.0166,-854.9522 1784.0166,-854.9522"/>
</g>
<!-- examples&#45;user&#45;service&#45;&gt;core&#45;service&#45;tracing&#45;support -->
<g id="edge42" class="edge">
<title>examples&#45;user&#45;service&#45;&gt;core&#45;service&#45;tracing&#45;support</title>
<path fill="none" stroke="#000000" d="M694.4533,-1180.9308C694.4533,-1180.9308 694.4533,-487.0858 694.4533,-487.0858"/>
<polygon fill="#000000" stroke="#000000" points="697.9534,-487.0858 694.4533,-477.0858 690.9534,-487.0859 697.9534,-487.0858"/>
</g>
<!-- examples&#45;user&#45;service&#45;&gt;core&#45;service&#45;jpa&#45;support -->
<g id="edge39" class="edge">
<title>examples&#45;user&#45;service&#45;&gt;core&#45;service&#45;jpa&#45;support</title>
<path fill="none" stroke="#000000" d="M731.824,-1176.2988C731.824,-1176.2988 731.824,-850.1056 731.824,-850.1056"/>
<polygon fill="#000000" stroke="#000000" points="735.3241,-850.1056 731.824,-840.1056 728.3241,-850.1057 735.3241,-850.1056"/>
</g>
<!-- examples&#45;user&#45;service&#45;&gt;examples&#45;user&#45;service&#45;api -->
<g id="edge43" class="edge">
<title>examples&#45;user&#45;service&#45;&gt;examples&#45;user&#45;service&#45;api</title>
<path fill="none" stroke="#000000" d="M817.3406,-1180.6841C817.3406,-1163.0076 817.3406,-1134 817.3406,-1134 817.3406,-1134 2006.6044,-1134 2006.6044,-1134 2006.6044,-1134 2006.6044,-854.3853 2006.6044,-854.3853"/>
<polygon fill="#000000" stroke="#000000" points="2010.1045,-854.3852 2006.6044,-844.3853 2003.1045,-854.3853 2010.1045,-854.3852"/>
</g>
</g>
</svg>
