<?xml version="1.0" encoding="UTF-8" standalone="no"?>
<!DOCTYPE svg PUBLIC "-//W3C//DTD SVG 1.1//EN"
 "http://www.w3.org/Graphics/SVG/1.1/DTD/svg11.dtd">
<!-- Generated by graphviz version 2.40.1 (20161225.0304)
 -->
<!-- Title: %3 Pages: 1 -->
<svg width="2173pt" height="1306pt"
 viewBox="0.00 0.00 2172.87 1306.40" xmlns="http://www.w3.org/2000/svg" xmlns:xlink="http://www.w3.org/1999/xlink">
<g id="graph0" class="graph" transform="scale(1 1) rotate(0) translate(4 1302.4)">
<title>%3</title>
<polygon fill="#ffffff" stroke="transparent" points="-4,4 -4,-1302.4 2168.8667,-1302.4 2168.8667,4 -4,4"/>
<!-- core&#45;service&#45;admin&#45;server -->
<g id="node1" class="node">
<title>core&#45;service&#45;admin&#45;server</title>
<ellipse fill="none" stroke="#000000" cx="570.0147" cy="-835" rx="102.8142" ry="18"/>
<text text-anchor="middle" x="570.0147" y="-830.8" font-family="Times,serif" font-size="14.00" fill="#000000">core&#45;service&#45;admin&#45;server</text>
</g>
<!-- core&#45;service&#45;logging&#45;support -->
<g id="node2" class="node">
<title>core&#45;service&#45;logging&#45;support</title>
<ellipse fill="none" stroke="#000000" cx="1153.0147" cy="-464" rx="112.5052" ry="18"/>
<text text-anchor="middle" x="1153.0147" y="-459.8" font-family="Times,serif" font-size="14.00" fill="#000000">core&#45;service&#45;logging&#45;support</text>
</g>
<!-- core&#45;service&#45;admin&#45;server&#45;&gt;core&#45;service&#45;logging&#45;support -->
<g id="edge1" class="edge">
<title>core&#45;service&#45;admin&#45;server&#45;&gt;core&#45;service&#45;logging&#45;support</title>
<path fill="none" stroke="#000000" d="M627.1317,-819.9516C627.1317,-757.6284 627.1317,-523 627.1317,-523 627.1317,-523 1073.4963,-523 1073.4963,-523 1073.4963,-523 1073.4963,-486.8021 1073.4963,-486.8021"/>
<polygon fill="#000000" stroke="#000000" points="1076.9964,-486.8021 1073.4963,-476.8021 1069.9964,-486.8022 1076.9964,-486.8021"/>
</g>
<!-- core&#45;service&#45;discovery&#45;support -->
<g id="node3" class="node">
<title>core&#45;service&#45;discovery&#45;support</title>
<ellipse fill="none" stroke="#000000" cx="397.0147" cy="-464" rx="120.2209" ry="18"/>
<text text-anchor="middle" x="397.0147" y="-459.8" font-family="Times,serif" font-size="14.00" fill="#000000">core&#45;service&#45;discovery&#45;support</text>
</g>
<!-- core&#45;service&#45;admin&#45;server&#45;&gt;core&#45;service&#45;discovery&#45;support -->
<g id="edge2" class="edge">
<title>core&#45;service&#45;admin&#45;server&#45;&gt;core&#45;service&#45;discovery&#45;support</title>
<path fill="none" stroke="#000000" d="M477.1111,-827.2511C477.1111,-827.2511 477.1111,-487.4233 477.1111,-487.4233"/>
<polygon fill="#000000" stroke="#000000" points="480.6112,-487.4232 477.1111,-477.4233 473.6112,-487.4233 480.6112,-487.4232"/>
</g>
<!-- core&#45;service&#45;web&#45;support -->
<g id="node4" class="node">
<title>core&#45;service&#45;web&#45;support</title>
<ellipse fill="none" stroke="#000000" cx="636.0147" cy="-464" rx="100.4261" ry="18"/>
<text text-anchor="middle" x="636.0147" y="-459.8" font-family="Times,serif" font-size="14.00" fill="#000000">core&#45;service&#45;web&#45;support</text>
</g>
<!-- core&#45;service&#45;admin&#45;server&#45;&gt;core&#45;service&#45;web&#45;support -->
<g id="edge3" class="edge">
<title>core&#45;service&#45;admin&#45;server&#45;&gt;core&#45;service&#45;web&#45;support</title>
<path fill="none" stroke="#000000" d="M581.3417,-817.1059C581.3417,-817.1059 581.3417,-489.2062 581.3417,-489.2062"/>
<polygon fill="#000000" stroke="#000000" points="584.8418,-489.2062 581.3417,-479.2062 577.8418,-489.2062 584.8418,-489.2062"/>
</g>
<!-- core&#45;service&#45;module -->
<g id="node8" class="node">
<title>core&#45;service&#45;module</title>
<ellipse fill="none" stroke="#000000" cx="869.0147" cy="-93" rx="82.5614" ry="18"/>
<text text-anchor="middle" x="869.0147" y="-88.8" font-family="Times,serif" font-size="14.00" fill="#000000">core&#45;service&#45;module</text>
</g>
<!-- core&#45;service&#45;logging&#45;support&#45;&gt;core&#45;service&#45;module -->
<g id="edge21" class="edge">
<title>core&#45;service&#45;logging&#45;support&#45;&gt;core&#45;service&#45;module</title>
<path fill="none" stroke="#000000" d="M1153.0147,-445.8996C1153.0147,-372.2501 1153.0147,-99 1153.0147,-99 1153.0147,-99 957.3707,-99 957.3707,-99"/>
<polygon fill="#000000" stroke="#000000" points="957.3707,-95.5001 947.3707,-99 957.3707,-102.5001 957.3707,-95.5001"/>
</g>
<!-- core&#45;service&#45;discovery&#45;support&#45;&gt;core&#45;service&#45;module -->
<g id="edge10" class="edge">
<title>core&#45;service&#45;discovery&#45;support&#45;&gt;core&#45;service&#45;module</title>
<path fill="none" stroke="#000000" d="M397.0147,-445.7508C397.0147,-371.496 397.0147,-96 397.0147,-96 397.0147,-96 777.3374,-96 777.3374,-96"/>
<polygon fill="#000000" stroke="#000000" points="777.3374,-99.5001 787.3374,-96 777.3374,-92.5001 777.3374,-99.5001"/>
</g>
<!-- core&#45;service&#45;web&#45;support&#45;&gt;core&#45;service&#45;module -->
<g id="edge27" class="edge">
<title>core&#45;service&#45;web&#45;support&#45;&gt;core&#45;service&#45;module</title>
<path fill="none" stroke="#000000" d="M636.0147,-445.6017C636.0147,-372.0369 636.0147,-103 636.0147,-103 636.0147,-103 790.0527,-103 790.0527,-103"/>
<polygon fill="#000000" stroke="#000000" points="790.0527,-106.5001 800.0527,-103 790.0527,-99.5001 790.0527,-106.5001"/>
</g>
<!-- core&#45;service&#45;api&#45;support -->
<g id="node5" class="node">
<title>core&#45;service&#45;api&#45;support</title>
<ellipse fill="none" stroke="#000000" cx="1929.0147" cy="-464" rx="96.5671" ry="18"/>
<text text-anchor="middle" x="1929.0147" y="-459.8" font-family="Times,serif" font-size="14.00" fill="#000000">core&#45;service&#45;api&#45;support</text>
</g>
<!-- core&#45;service&#45;web&#45;common&#45;lib -->
<g id="node6" class="node">
<title>core&#45;service&#45;web&#45;common&#45;lib</title>
<ellipse fill="none" stroke="#000000" cx="1532.0147" cy="-93" rx="117.3225" ry="18"/>
<text text-anchor="middle" x="1532.0147" y="-88.8" font-family="Times,serif" font-size="14.00" fill="#000000">core&#45;service&#45;web&#45;common&#45;lib</text>
</g>
<!-- core&#45;service&#45;api&#45;support&#45;&gt;core&#45;service&#45;web&#45;common&#45;lib -->
<g id="edge4" class="edge">
<title>core&#45;service&#45;api&#45;support&#45;&gt;core&#45;service&#45;web&#45;common&#45;lib</title>
<path fill="none" stroke="#000000" d="M1929.0147,-445.8548C1929.0147,-371.3692 1929.0147,-93 1929.0147,-93 1929.0147,-93 1659.2484,-93 1659.2484,-93"/>
<polygon fill="#000000" stroke="#000000" points="1659.2484,-89.5001 1649.2484,-93 1659.2483,-96.5001 1659.2484,-89.5001"/>
</g>
<!-- core&#45;service&#45;bus&#45;support -->
<g id="node7" class="node">
<title>core&#45;service&#45;bus&#45;support</title>
<ellipse fill="none" stroke="#000000" cx="98.0147" cy="-464" rx="98.0293" ry="18"/>
<text text-anchor="middle" x="98.0147" y="-459.8" font-family="Times,serif" font-size="14.00" fill="#000000">core&#45;service&#45;bus&#45;support</text>
</g>
<!-- core&#45;service&#45;bus&#45;support&#45;&gt;core&#45;service&#45;module -->
<g id="edge5" class="edge">
<title>core&#45;service&#45;bus&#45;support&#45;&gt;core&#45;service&#45;module</title>
<path fill="none" stroke="#000000" d="M98.0147,-445.8323C98.0147,-369.9168 98.0147,-82 98.0147,-82 98.0147,-82 793.2796,-82 793.2796,-82"/>
<polygon fill="#000000" stroke="#000000" points="793.2797,-85.5001 803.2796,-82 793.2796,-78.5001 793.2797,-85.5001"/>
</g>
<!-- core&#45;service&#45;cache&#45;support -->
<g id="node9" class="node">
<title>core&#45;service&#45;cache&#45;support</title>
<ellipse fill="none" stroke="#000000" cx="2059.0147" cy="-835" rx="105.7043" ry="18"/>
<text text-anchor="middle" x="2059.0147" y="-830.8" font-family="Times,serif" font-size="14.00" fill="#000000">core&#45;service&#45;cache&#45;support</text>
</g>
<!-- core&#45;service&#45;cache&#45;support&#45;&gt;core&#45;service&#45;module -->
<g id="edge6" class="edge">
<title>core&#45;service&#45;cache&#45;support&#45;&gt;core&#45;service&#45;module</title>
<path fill="none" stroke="#000000" d="M2095.2075,-817.9651C2095.2075,-718.9611 2095.2075,-222 2095.2075,-222 2095.2075,-222 910.4049,-222 910.4049,-222 910.4049,-222 910.4049,-118.8179 910.4049,-118.8179"/>
<polygon fill="#000000" stroke="#000000" points="913.905,-118.8179 910.4049,-108.8179 906.905,-118.818 913.905,-118.8179"/>
</g>
<!-- core&#45;service&#45;config&#45;server -->
<g id="node10" class="node">
<title>core&#45;service&#45;config&#45;server</title>
<ellipse fill="none" stroke="#000000" cx="1294.0147" cy="-835" rx="102.8229" ry="18"/>
<text text-anchor="middle" x="1294.0147" y="-830.8" font-family="Times,serif" font-size="14.00" fill="#000000">core&#45;service&#45;config&#45;server</text>
</g>
<!-- core&#45;service&#45;config&#45;server&#45;&gt;core&#45;service&#45;logging&#45;support -->
<g id="edge7" class="edge">
<title>core&#45;service&#45;config&#45;server&#45;&gt;core&#45;service&#45;logging&#45;support</title>
<path fill="none" stroke="#000000" d="M1215.9912,-823.0764C1215.9912,-823.0764 1215.9912,-489.2262 1215.9912,-489.2262"/>
<polygon fill="#000000" stroke="#000000" points="1219.4913,-489.2262 1215.9912,-479.2262 1212.4913,-489.2262 1219.4913,-489.2262"/>
</g>
<!-- core&#45;service&#45;config&#45;support -->
<g id="node11" class="node">
<title>core&#45;service&#45;config&#45;support</title>
<ellipse fill="none" stroke="#000000" cx="1668.0147" cy="-464" rx="107.6769" ry="18"/>
<text text-anchor="middle" x="1668.0147" y="-459.8" font-family="Times,serif" font-size="14.00" fill="#000000">core&#45;service&#45;config&#45;support</text>
</g>
<!-- core&#45;service&#45;config&#45;support&#45;&gt;core&#45;service&#45;module -->
<g id="edge8" class="edge">
<title>core&#45;service&#45;config&#45;support&#45;&gt;core&#45;service&#45;module</title>
<path fill="none" stroke="#000000" d="M1604.6761,-449.3401C1604.6761,-415.3417 1604.6761,-334 1604.6761,-334 1604.6761,-334 869.0147,-334 869.0147,-334 869.0147,-334 869.0147,-121.1142 869.0147,-121.1142"/>
<polygon fill="#000000" stroke="#000000" points="872.5148,-121.1141 869.0147,-111.1142 865.5148,-121.1142 872.5148,-121.1141"/>
</g>
<!-- core&#45;service&#45;discovery&#45;server -->
<g id="node12" class="node">
<title>core&#45;service&#45;discovery&#45;server</title>
<ellipse fill="none" stroke="#000000" cx="1058.0147" cy="-835" rx="115.3672" ry="18"/>
<text text-anchor="middle" x="1058.0147" y="-830.8" font-family="Times,serif" font-size="14.00" fill="#000000">core&#45;service&#45;discovery&#45;server</text>
</g>
<!-- core&#45;service&#45;discovery&#45;server&#45;&gt;core&#45;service&#45;logging&#45;support -->
<g id="edge9" class="edge">
<title>core&#45;service&#45;discovery&#45;server&#45;&gt;core&#45;service&#45;logging&#45;support</title>
<path fill="none" stroke="#000000" d="M1139.9642,-822.2293C1139.9642,-822.2293 1139.9642,-492.1089 1139.9642,-492.1089"/>
<polygon fill="#000000" stroke="#000000" points="1143.4643,-492.1088 1139.9642,-482.1089 1136.4643,-492.1089 1143.4643,-492.1088"/>
</g>
<!-- core&#45;service&#45;endpoint&#45;support -->
<g id="node13" class="node">
<title>core&#45;service&#45;endpoint&#45;support</title>
<ellipse fill="none" stroke="#000000" cx="808.0147" cy="-835" rx="116.8553" ry="18"/>
<text text-anchor="middle" x="808.0147" y="-830.8" font-family="Times,serif" font-size="14.00" fill="#000000">core&#45;service&#45;endpoint&#45;support</text>
</g>
<!-- core&#45;service&#45;endpoint&#45;support&#45;&gt;core&#45;service&#45;logging&#45;support -->
<g id="edge13" class="edge">
<title>core&#45;service&#45;endpoint&#45;support&#45;&gt;core&#45;service&#45;logging&#45;support</title>
<path fill="none" stroke="#000000" d="M839.3416,-817.2845C839.3416,-757.2168 839.3416,-565 839.3416,-565 839.3416,-565 1106.7302,-565 1106.7302,-565 1106.7302,-565 1106.7302,-490.6781 1106.7302,-490.6781"/>
<polygon fill="#000000" stroke="#000000" points="1110.2303,-490.6781 1106.7302,-480.6781 1103.2303,-490.6781 1110.2303,-490.6781"/>
</g>
<!-- core&#45;service&#45;endpoint&#45;support&#45;&gt;core&#45;service&#45;web&#45;support -->
<g id="edge11" class="edge">
<title>core&#45;service&#45;endpoint&#45;support&#45;&gt;core&#45;service&#45;web&#45;support</title>
<path fill="none" stroke="#000000" d="M713.9074,-824.2968C713.9074,-824.2968 713.9074,-485.4717 713.9074,-485.4717"/>
<polygon fill="#000000" stroke="#000000" points="717.4075,-485.4717 713.9074,-475.4717 710.4075,-485.4717 717.4075,-485.4717"/>
</g>
<!-- core&#45;service&#45;endpoint&#45;support&#45;&gt;core&#45;service&#45;web&#45;common&#45;lib -->
<g id="edge14" class="edge">
<title>core&#45;service&#45;endpoint&#45;support&#45;&gt;core&#45;service&#45;web&#45;common&#45;lib</title>
<path fill="none" stroke="#000000" d="M882.0169,-820.7808C882.0169,-803.038 882.0169,-775 882.0169,-775 882.0169,-775 1522.9235,-775 1522.9235,-775 1522.9235,-775 1522.9235,-121.2419 1522.9235,-121.2419"/>
<polygon fill="#000000" stroke="#000000" points="1526.4236,-121.2418 1522.9235,-111.2419 1519.4236,-121.2419 1526.4236,-121.2418"/>
</g>
<!-- core&#45;service&#45;swagger&#45;support -->
<g id="node14" class="node">
<title>core&#45;service&#45;swagger&#45;support</title>
<ellipse fill="none" stroke="#000000" cx="869.0147" cy="-464" rx="115.0473" ry="18"/>
<text text-anchor="middle" x="869.0147" y="-459.8" font-family="Times,serif" font-size="14.00" fill="#000000">core&#45;service&#45;swagger&#45;support</text>
</g>
<!-- core&#45;service&#45;endpoint&#45;support&#45;&gt;core&#45;service&#45;swagger&#45;support -->
<g id="edge12" class="edge">
<title>core&#45;service&#45;endpoint&#45;support&#45;&gt;core&#45;service&#45;swagger&#45;support</title>
<path fill="none" stroke="#000000" d="M796.6663,-816.8548C796.6663,-816.8548 796.6663,-488.3774 796.6663,-488.3774"/>
<polygon fill="#000000" stroke="#000000" points="800.1664,-488.3774 796.6663,-478.3774 793.1664,-488.3775 800.1664,-488.3774"/>
</g>
<!-- core&#45;service&#45;swagger&#45;support&#45;&gt;core&#45;service&#45;module -->
<g id="edge22" class="edge">
<title>core&#45;service&#45;swagger&#45;support&#45;&gt;core&#45;service&#45;module</title>
<path fill="none" stroke="#000000" d="M827.6245,-447.0949C827.6245,-447.0949 827.6245,-118.7469 827.6245,-118.7469"/>
<polygon fill="#000000" stroke="#000000" points="831.1246,-118.7469 827.6245,-108.7469 824.1246,-118.7469 831.1246,-118.7469"/>
</g>
<!-- core&#45;service&#45;gateway&#45;server -->
<g id="node15" class="node">
<title>core&#45;service&#45;gateway&#45;server</title>
<ellipse fill="none" stroke="#000000" cx="1563.0147" cy="-835" rx="110.0307" ry="18"/>
<text text-anchor="middle" x="1563.0147" y="-830.8" font-family="Times,serif" font-size="14.00" fill="#000000">core&#45;service&#45;gateway&#45;server</text>
</g>
<!-- core&#45;service&#45;gateway&#45;server&#45;&gt;core&#45;service&#45;logging&#45;support -->
<g id="edge17" class="edge">
<title>core&#45;service&#45;gateway&#45;server&#45;&gt;core&#45;service&#45;logging&#45;support</title>
<path fill="none" stroke="#000000" d="M1478.5233,-823.38C1478.5233,-776.918 1478.5233,-607 1478.5233,-607 1478.5233,-607 1240.8791,-607 1240.8791,-607 1240.8791,-607 1240.8791,-485.7023 1240.8791,-485.7023"/>
<polygon fill="#000000" stroke="#000000" points="1244.3792,-485.7023 1240.8791,-475.7023 1237.3792,-485.7023 1244.3792,-485.7023"/>
</g>
<!-- core&#45;service&#45;gateway&#45;server&#45;&gt;core&#45;service&#45;discovery&#45;support -->
<g id="edge18" class="edge">
<title>core&#45;service&#45;gateway&#45;server&#45;&gt;core&#45;service&#45;discovery&#45;support</title>
<path fill="none" stroke="#000000" d="M1465.6364,-826.5246C1465.6364,-790.1376 1465.6364,-649 1465.6364,-649 1465.6364,-649 507.1216,-649 507.1216,-649 507.1216,-649 507.1216,-481.4813 507.1216,-481.4813"/>
<polygon fill="#000000" stroke="#000000" points="510.6217,-481.4813 507.1216,-471.4813 503.6217,-481.4814 510.6217,-481.4813"/>
</g>
<!-- core&#45;service&#45;gateway&#45;server&#45;&gt;core&#45;service&#45;web&#45;common&#45;lib -->
<g id="edge15" class="edge">
<title>core&#45;service&#45;gateway&#45;server&#45;&gt;core&#45;service&#45;web&#45;common&#45;lib</title>
<path fill="none" stroke="#000000" d="M1541.5499,-817.026C1541.5499,-817.026 1541.5499,-121.0688 1541.5499,-121.0688"/>
<polygon fill="#000000" stroke="#000000" points="1545.05,-121.0688 1541.5499,-111.0688 1538.05,-121.0689 1545.05,-121.0688"/>
</g>
<!-- core&#45;service&#45;gateway&#45;server&#45;&gt;core&#45;service&#45;config&#45;support -->
<g id="edge16" class="edge">
<title>core&#45;service&#45;gateway&#45;server&#45;&gt;core&#45;service&#45;config&#45;support</title>
<path fill="none" stroke="#000000" d="M1616.7281,-819.0586C1616.7281,-819.0586 1616.7281,-489.882 1616.7281,-489.882"/>
<polygon fill="#000000" stroke="#000000" points="1620.2282,-489.882 1616.7281,-479.882 1613.2282,-489.8821 1620.2282,-489.882"/>
</g>
<!-- core&#45;service&#45;tracing&#45;support -->
<g id="node16" class="node">
<title>core&#45;service&#45;tracing&#45;support</title>
<ellipse fill="none" stroke="#000000" cx="1394.0147" cy="-464" rx="110.0652" ry="18"/>
<text text-anchor="middle" x="1394.0147" y="-459.8" font-family="Times,serif" font-size="14.00" fill="#000000">core&#45;service&#45;tracing&#45;support</text>
</g>
<!-- core&#45;service&#45;gateway&#45;server&#45;&gt;core&#45;service&#45;tracing&#45;support -->
<g id="edge19" class="edge">
<title>core&#45;service&#45;gateway&#45;server&#45;&gt;core&#45;service&#45;tracing&#45;support</title>
<path fill="none" stroke="#000000" d="M1491.4102,-820.9094C1491.4102,-820.9094 1491.4102,-482.7286 1491.4102,-482.7286"/>
<polygon fill="#000000" stroke="#000000" points="1494.9103,-482.7286 1491.4102,-472.7286 1487.9103,-482.7286 1494.9103,-482.7286"/>
</g>
<!-- core&#45;service&#45;tracing&#45;support&#45;&gt;core&#45;service&#45;module -->
<g id="edge23" class="edge">
<title>core&#45;service&#45;tracing&#45;support&#45;&gt;core&#45;service&#45;module</title>
<path fill="none" stroke="#000000" d="M1349.2929,-447.3143C1349.2929,-374.3535 1349.2929,-87 1349.2929,-87 1349.2929,-87 957.2486,-87 957.2486,-87"/>
<polygon fill="#000000" stroke="#000000" points="957.2486,-83.5001 947.2486,-87 957.2486,-90.5001 957.2486,-83.5001"/>
</g>
<!-- core&#45;service&#45;jpa&#45;support -->
<g id="node17" class="node">
<title>core&#45;service&#45;jpa&#45;support</title>
<ellipse fill="none" stroke="#000000" cx="238.0147" cy="-835" rx="96.5671" ry="18"/>
<text text-anchor="middle" x="238.0147" y="-830.8" font-family="Times,serif" font-size="14.00" fill="#000000">core&#45;service&#45;jpa&#45;support</text>
</g>
<!-- core&#45;service&#45;jpa&#45;support&#45;&gt;core&#45;service&#45;module -->
<g id="edge20" class="edge">
<title>core&#45;service&#45;jpa&#45;support&#45;&gt;core&#45;service&#45;module</title>
<path fill="none" stroke="#000000" d="M236.4668,-816.9291C236.4668,-703.0028 236.4668,-89 236.4668,-89 236.4668,-89 778.2596,-89 778.2596,-89"/>
<polygon fill="#000000" stroke="#000000" points="778.2596,-92.5001 788.2596,-89 778.2595,-85.5001 778.2596,-92.5001"/>
</g>
<!-- core&#45;service&#45;trigger&#45;server -->
<g id="node18" class="node">
<title>core&#45;service&#45;trigger&#45;server</title>
<ellipse fill="none" stroke="#000000" cx="363.0147" cy="-1206" rx="104.4054" ry="18"/>
<text text-anchor="middle" x="363.0147" y="-1201.8" font-family="Times,serif" font-size="14.00" fill="#000000">core&#45;service&#45;trigger&#45;server</text>
</g>
<!-- core&#45;service&#45;trigger&#45;server&#45;&gt;core&#45;service&#45;discovery&#45;support -->
<g id="edge25" class="edge">
<title>core&#45;service&#45;trigger&#45;server&#45;&gt;core&#45;service&#45;discovery&#45;support</title>
<path fill="none" stroke="#000000" d="M400.8279,-1189.1082C400.8279,-1189.1082 400.8279,-492.1818 400.8279,-492.1818"/>
<polygon fill="#000000" stroke="#000000" points="404.328,-492.1818 400.8279,-482.1818 397.328,-492.1819 404.328,-492.1818"/>
</g>
<!-- core&#45;service&#45;trigger&#45;server&#45;&gt;core&#45;service&#45;endpoint&#45;support -->
<g id="edge24" class="edge">
<title>core&#45;service&#45;trigger&#45;server&#45;&gt;core&#45;service&#45;endpoint&#45;support</title>
<path fill="none" stroke="#000000" d="M433.9678,-1192.5441C433.9678,-1146.1949 433.9678,-996 433.9678,-996 433.9678,-996 729.1759,-996 729.1759,-996 729.1759,-996 729.1759,-858.4499 729.1759,-858.4499"/>
<polygon fill="#000000" stroke="#000000" points="732.676,-858.4498 729.1759,-848.4499 725.676,-858.4499 732.676,-858.4498"/>
</g>
<!-- core&#45;service&#45;trigger&#45;server&#45;&gt;core&#45;service&#45;jpa&#45;support -->
<g id="edge26" class="edge">
<title>core&#45;service&#45;trigger&#45;server&#45;&gt;core&#45;service&#45;jpa&#45;support</title>
<path fill="none" stroke="#000000" d="M277.7462,-1195.2968C277.7462,-1195.2968 277.7462,-861.7035 277.7462,-861.7035"/>
<polygon fill="#000000" stroke="#000000" points="281.2463,-861.7035 277.7462,-851.7035 274.2463,-861.7036 281.2463,-861.7035"/>
</g>
<!-- examples&#45;debug&#45;service -->
<g id="node19" class="node">
<title>examples&#45;debug&#45;service</title>
<ellipse fill="none" stroke="#000000" cx="129.0147" cy="-1206" rx="96.0913" ry="18"/>
<text text-anchor="middle" x="129.0147" y="-1201.8" font-family="Times,serif" font-size="14.00" fill="#000000">examples&#45;debug&#45;service</text>
</g>
<!-- examples&#45;debug&#45;service&#45;&gt;core&#45;service&#45;discovery&#45;support -->
<g id="edge30" class="edge">
<title>examples&#45;debug&#45;service&#45;&gt;core&#45;service&#45;discovery&#45;support</title>
<path fill="none" stroke="#000000" d="M183.2707,-1190.8254C183.2707,-1129.0809 183.2707,-900 183.2707,-900 183.2707,-900 367.6881,-900 367.6881,-900 367.6881,-900 367.6881,-491.6317 367.6881,-491.6317"/>
<polygon fill="#000000" stroke="#000000" points="371.1882,-491.6317 367.6881,-481.6317 364.1882,-491.6318 371.1882,-491.6317"/>
</g>
<!-- examples&#45;debug&#45;service&#45;&gt;core&#45;service&#45;bus&#45;support -->
<g id="edge31" class="edge">
<title>examples&#45;debug&#45;service&#45;&gt;core&#45;service&#45;bus&#45;support</title>
<path fill="none" stroke="#000000" d="M87.2251,-1189.4619C87.2251,-1189.4619 87.2251,-492.2196 87.2251,-492.2196"/>
<polygon fill="#000000" stroke="#000000" points="90.7252,-492.2195 87.2251,-482.2196 83.7252,-492.2196 90.7252,-492.2195"/>
</g>
<!-- examples&#45;debug&#45;service&#45;&gt;core&#45;service&#45;endpoint&#45;support -->
<g id="edge28" class="edge">
<title>examples&#45;debug&#45;service&#45;&gt;core&#45;service&#45;endpoint&#45;support</title>
<path fill="none" stroke="#000000" d="M204.1655,-1194.5812C204.1655,-1144.6504 204.1655,-948 204.1655,-948 204.1655,-948 710.2565,-948 710.2565,-948 710.2565,-948 710.2565,-855.028 710.2565,-855.028"/>
<polygon fill="#000000" stroke="#000000" points="713.7566,-855.028 710.2565,-845.028 706.7566,-855.028 713.7566,-855.028"/>
</g>
<!-- examples&#45;debug&#45;service&#45;&gt;core&#45;service&#45;jpa&#45;support -->
<g id="edge29" class="edge">
<title>examples&#45;debug&#45;service&#45;&gt;core&#45;service&#45;jpa&#45;support</title>
<path fill="none" stroke="#000000" d="M162.3759,-1189.0949C162.3759,-1189.0949 162.3759,-856.5133 162.3759,-856.5133"/>
<polygon fill="#000000" stroke="#000000" points="165.876,-856.5133 162.3759,-846.5133 158.876,-856.5134 165.876,-856.5133"/>
</g>
<!-- examples&#45;order&#45;service -->
<g id="node20" class="node">
<title>examples&#45;order&#45;service</title>
<ellipse fill="none" stroke="#000000" cx="693.0147" cy="-1206" rx="92.8387" ry="18"/>
<text text-anchor="middle" x="693.0147" y="-1201.8" font-family="Times,serif" font-size="14.00" fill="#000000">examples&#45;order&#45;service</text>
</g>
<!-- examples&#45;order&#45;service&#45;&gt;core&#45;service&#45;discovery&#45;support -->
<g id="edge34" class="edge">
<title>examples&#45;order&#45;service&#45;&gt;core&#45;service&#45;discovery&#45;support</title>
<path fill="none" stroke="#000000" d="M682.1295,-1188.0354C682.1295,-1101.6363 682.1295,-733 682.1295,-733 682.1295,-733 487.1146,-733 487.1146,-733 487.1146,-733 487.1146,-485.9057 487.1146,-485.9057"/>
<polygon fill="#000000" stroke="#000000" points="490.6147,-485.9057 487.1146,-475.9057 483.6147,-485.9057 490.6147,-485.9057"/>
</g>
<!-- examples&#45;order&#45;service&#45;&gt;core&#45;service&#45;endpoint&#45;support -->
<g id="edge32" class="edge">
<title>examples&#45;order&#45;service&#45;&gt;core&#45;service&#45;endpoint&#45;support</title>
<path fill="none" stroke="#000000" d="M748.0953,-1191.4564C748.0953,-1191.4564 748.0953,-860.6676 748.0953,-860.6676"/>
<polygon fill="#000000" stroke="#000000" points="751.5954,-860.6675 748.0953,-850.6676 744.5954,-860.6676 751.5954,-860.6675"/>
</g>
<!-- examples&#45;order&#45;service&#45;&gt;core&#45;service&#45;jpa&#45;support -->
<g id="edge33" class="edge">
<title>examples&#45;order&#45;service&#45;&gt;core&#45;service&#45;jpa&#45;support</title>
<path fill="none" stroke="#000000" d="M636.5086,-1191.5618C636.5086,-1160.886 636.5086,-1092 636.5086,-1092 636.5086,-1092 296.6802,-1092 296.6802,-1092 296.6802,-1092 296.6802,-859.5538 296.6802,-859.5538"/>
<polygon fill="#000000" stroke="#000000" points="300.1803,-859.5538 296.6802,-849.5538 293.1803,-859.5538 300.1803,-859.5538"/>
</g>
<!-- examples&#45;user&#45;service&#45;api -->
<g id="node21" class="node">
<title>examples&#45;user&#45;service&#45;api</title>
<ellipse fill="none" stroke="#000000" cx="1794.0147" cy="-835" rx="102.9866" ry="18"/>
<text text-anchor="middle" x="1794.0147" y="-830.8" font-family="Times,serif" font-size="14.00" fill="#000000">examples&#45;user&#45;service&#45;api</text>
</g>
<!-- examples&#45;order&#45;service&#45;&gt;examples&#45;user&#45;service&#45;api -->
<g id="edge35" class="edge">
<title>examples&#45;order&#45;service&#45;&gt;examples&#45;user&#45;service&#45;api</title>
<path fill="none" stroke="#000000" d="M767.0146,-1195.1014C767.0146,-1176.3556 767.0146,-1140 767.0146,-1140 767.0146,-1140 1759.767,-1140 1759.767,-1140 1759.767,-1140 1759.767,-862.272 1759.767,-862.272"/>
<polygon fill="#000000" stroke="#000000" points="1763.2671,-862.272 1759.767,-852.272 1756.2671,-862.272 1763.2671,-862.272"/>
</g>
<!-- examples&#45;user&#45;service&#45;api&#45;&gt;core&#45;service&#45;api&#45;support -->
<g id="edge43" class="edge">
<title>examples&#45;user&#45;service&#45;api&#45;&gt;core&#45;service&#45;api&#45;support</title>
<path fill="none" stroke="#000000" d="M1864.6194,-821.7959C1864.6194,-821.7959 1864.6194,-487.4336 1864.6194,-487.4336"/>
<polygon fill="#000000" stroke="#000000" points="1868.1195,-487.4335 1864.6194,-477.4336 1861.1195,-487.4336 1868.1195,-487.4335"/>
</g>
<!-- examples&#45;user&#45;service -->
<g id="node22" class="node">
<title>examples&#45;user&#45;service</title>
<ellipse fill="none" stroke="#000000" cx="1425.0147" cy="-1206" rx="88.9883" ry="18"/>
<text text-anchor="middle" x="1425.0147" y="-1201.8" font-family="Times,serif" font-size="14.00" fill="#000000">examples&#45;user&#45;service</text>
</g>
<!-- examples&#45;user&#45;service&#45;&gt;core&#45;service&#45;discovery&#45;support -->
<g id="edge39" class="edge">
<title>examples&#45;user&#45;service&#45;&gt;core&#45;service&#45;discovery&#45;support</title>
<path fill="none" stroke="#000000" d="M1415.5339,-1187.9728C1415.5339,-1096.8215 1415.5339,-691 1415.5339,-691 1415.5339,-691 497.1181,-691 497.1181,-691 497.1181,-691 497.1181,-484.0468 497.1181,-484.0468"/>
<polygon fill="#000000" stroke="#000000" points="500.6182,-484.0468 497.1181,-474.0468 493.6182,-484.0468 500.6182,-484.0468"/>
</g>
<!-- examples&#45;user&#45;service&#45;&gt;core&#45;service&#45;cache&#45;support -->
<g id="edge37" class="edge">
<title>examples&#45;user&#45;service&#45;&gt;core&#45;service&#45;cache&#45;support</title>
<path fill="none" stroke="#000000" d="M1502.1217,-1215C1671.0838,-1215 2059.0147,-1215 2059.0147,-1215 2059.0147,-1215 2059.0147,-863.0725 2059.0147,-863.0725"/>
<polygon fill="#000000" stroke="#000000" points="2062.5148,-863.0725 2059.0147,-853.0725 2055.5148,-863.0726 2062.5148,-863.0725"/>
</g>
<!-- examples&#45;user&#45;service&#45;&gt;core&#45;service&#45;config&#45;support -->
<g id="edge40" class="edge">
<title>examples&#45;user&#45;service&#45;&gt;core&#45;service&#45;config&#45;support</title>
<path fill="none" stroke="#000000" d="M1502.2015,-1197C1577.9793,-1197 1682.2757,-1197 1682.2757,-1197 1682.2757,-1197 1682.2757,-492.1192 1682.2757,-492.1192"/>
<polygon fill="#000000" stroke="#000000" points="1685.7758,-492.1192 1682.2757,-482.1192 1678.7758,-492.1192 1685.7758,-492.1192"/>
</g>
<!-- examples&#45;user&#45;service&#45;&gt;core&#45;service&#45;endpoint&#45;support -->
<g id="edge36" class="edge">
<title>examples&#45;user&#45;service&#45;&gt;core&#45;service&#45;endpoint&#45;support</title>
<path fill="none" stroke="#000000" d="M1335.9988,-1206C1175.7702,-1206 855.3131,-1206 855.3131,-1206 855.3131,-1206 855.3131,-861.9051 855.3131,-861.9051"/>
<polygon fill="#000000" stroke="#000000" points="858.8132,-861.9051 855.3131,-851.9051 851.8132,-861.9052 858.8132,-861.9051"/>
</g>
<!-- examples&#45;user&#45;service&#45;&gt;core&#45;service&#45;tracing&#45;support -->
<g id="edge41" class="edge">
<title>examples&#45;user&#45;service&#45;&gt;core&#45;service&#45;tracing&#45;support</title>
<path fill="none" stroke="#000000" d="M1434.1417,-1188.026C1434.1417,-1188.026 1434.1417,-491.0833 1434.1417,-491.0833"/>
<polygon fill="#000000" stroke="#000000" points="1437.6418,-491.0833 1434.1417,-481.0833 1430.6418,-491.0833 1437.6418,-491.0833"/>
</g>
<!-- examples&#45;user&#45;service&#45;&gt;core&#45;service&#45;jpa&#45;support -->
<g id="edge38" class="edge">
<title>examples&#45;user&#45;service&#45;&gt;core&#45;service&#45;jpa&#45;support</title>
<path fill="none" stroke="#000000" d="M1366.4733,-1192.188C1366.4733,-1153.0118 1366.4733,-1044 1366.4733,-1044 1366.4733,-1044 315.6142,-1044 315.6142,-1044 315.6142,-1044 315.6142,-855.9425 315.6142,-855.9425"/>
<polygon fill="#000000" stroke="#000000" points="319.1143,-855.9424 315.6142,-845.9425 312.1143,-855.9425 319.1143,-855.9424"/>
</g>
<!-- examples&#45;user&#45;service&#45;&gt;examples&#45;user&#45;service&#45;api -->
<g id="edge42" class="edge">
<title>examples&#45;user&#45;service&#45;&gt;examples&#45;user&#45;service&#45;api</title>
<path fill="none" stroke="#000000" d="M1514.5084,-1206C1633.3084,-1206 1828.2623,-1206 1828.2623,-1206 1828.2623,-1206 1828.2623,-862.3965 1828.2623,-862.3965"/>
<polygon fill="#000000" stroke="#000000" points="1831.7624,-862.3965 1828.2623,-852.3965 1824.7624,-862.3965 1831.7624,-862.3965"/>
</g>
</g>
</svg>
