<?xml version="1.0" encoding="UTF-8" standalone="no"?>
<!DOCTYPE svg PUBLIC "-//W3C//DTD SVG 1.1//EN"
 "http://www.w3.org/Graphics/SVG/1.1/DTD/svg11.dtd">
<!-- Generated by graphviz version 2.40.1 (20161225.0304)
 -->
<!-- Title: %3 Pages: 1 -->
<svg width="1944pt" height="1169pt"
 viewBox="0.00 0.00 1943.93 1169.00" xmlns="http://www.w3.org/2000/svg" xmlns:xlink="http://www.w3.org/1999/xlink">
<g id="graph0" class="graph" transform="scale(1 1) rotate(0) translate(4 1165)">
<title>%3</title>
<polygon fill="#ffffff" stroke="transparent" points="-4,4 -4,-1165 1939.9264,-1165 1939.9264,4 -4,4"/>
<!-- core&#45;service&#45;api&#45;support -->
<g id="node1" class="node">
<title>core&#45;service&#45;api&#45;support</title>
<ellipse fill="none" stroke="#000000" cx="204.743" cy="-415" rx="96.5671" ry="18"/>
<text text-anchor="middle" x="204.743" y="-410.8" font-family="Times,serif" font-size="14.00" fill="#000000">core&#45;service&#45;api&#45;support</text>
</g>
<!-- core&#45;service&#45;web&#45;common&#45;lib -->
<g id="node2" class="node">
<title>core&#45;service&#45;web&#45;common&#45;lib</title>
<ellipse fill="none" stroke="#000000" cx="559.743" cy="-83" rx="117.3225" ry="18"/>
<text text-anchor="middle" x="559.743" y="-78.8" font-family="Times,serif" font-size="14.00" fill="#000000">core&#45;service&#45;web&#45;common&#45;lib</text>
</g>
<!-- core&#45;service&#45;api&#45;support&#45;&gt;core&#45;service&#45;web&#45;common&#45;lib -->
<g id="edge1" class="edge">
<title>core&#45;service&#45;api&#45;support&#45;&gt;core&#45;service&#45;web&#45;common&#45;lib</title>
<path fill="none" stroke="#000000" d="M301.3364,-415C370.3073,-415 450.9309,-415 450.9309,-415 450.9309,-415 450.9309,-99.9343 450.9309,-99.9343"/>
<polygon fill="#000000" stroke="#000000" points="454.431,-99.9343 450.9309,-89.9343 447.431,-99.9343 454.431,-99.9343"/>
</g>
<!-- core&#45;service&#45;bus&#45;support -->
<g id="node3" class="node">
<title>core&#45;service&#45;bus&#45;support</title>
<ellipse fill="none" stroke="#000000" cx="1041.743" cy="-746" rx="98.0293" ry="18"/>
<text text-anchor="middle" x="1041.743" y="-741.8" font-family="Times,serif" font-size="14.00" fill="#000000">core&#45;service&#45;bus&#45;support</text>
</g>
<!-- core&#45;service&#45;module -->
<g id="node4" class="node">
<title>core&#45;service&#45;module</title>
<ellipse fill="none" stroke="#000000" cx="1033.743" cy="-83" rx="82.5614" ry="18"/>
<text text-anchor="middle" x="1033.743" y="-78.8" font-family="Times,serif" font-size="14.00" fill="#000000">core&#45;service&#45;module</text>
</g>
<!-- core&#45;service&#45;bus&#45;support&#45;&gt;core&#45;service&#45;module -->
<g id="edge2" class="edge">
<title>core&#45;service&#45;bus&#45;support&#45;&gt;core&#45;service&#45;module</title>
<path fill="none" stroke="#000000" d="M1034.1589,-727.9225C1034.1589,-727.9225 1034.1589,-111.0613 1034.1589,-111.0613"/>
<polygon fill="#000000" stroke="#000000" points="1037.659,-111.0613 1034.1589,-101.0613 1030.659,-111.0613 1037.659,-111.0613"/>
</g>
<!-- core&#45;service&#45;cache&#45;support -->
<g id="node5" class="node">
<title>core&#45;service&#45;cache&#45;support</title>
<ellipse fill="none" stroke="#000000" cx="1167.743" cy="-415" rx="105.7043" ry="18"/>
<text text-anchor="middle" x="1167.743" y="-410.8" font-family="Times,serif" font-size="14.00" fill="#000000">core&#45;service&#45;cache&#45;support</text>
</g>
<!-- core&#45;service&#45;cache&#45;support&#45;&gt;core&#45;service&#45;module -->
<g id="edge3" class="edge">
<title>core&#45;service&#45;cache&#45;support&#45;&gt;core&#45;service&#45;module</title>
<path fill="none" stroke="#000000" d="M1089.2072,-402.7902C1089.2072,-402.7902 1089.2072,-106.3985 1089.2072,-106.3985"/>
<polygon fill="#000000" stroke="#000000" points="1092.7073,-106.3985 1089.2072,-96.3985 1085.7073,-106.3985 1092.7073,-106.3985"/>
</g>
<!-- core&#45;service&#45;config&#45;server -->
<g id="node6" class="node">
<title>core&#45;service&#45;config&#45;server</title>
<ellipse fill="none" stroke="#000000" cx="1652.743" cy="-1078" rx="102.8229" ry="18"/>
<text text-anchor="middle" x="1652.743" y="-1073.8" font-family="Times,serif" font-size="14.00" fill="#000000">core&#45;service&#45;config&#45;server</text>
</g>
<!-- core&#45;service&#45;config&#45;support -->
<g id="node7" class="node">
<title>core&#45;service&#45;config&#45;support</title>
<ellipse fill="none" stroke="#000000" cx="1303.743" cy="-746" rx="107.6769" ry="18"/>
<text text-anchor="middle" x="1303.743" y="-741.8" font-family="Times,serif" font-size="14.00" fill="#000000">core&#45;service&#45;config&#45;support</text>
</g>
<!-- core&#45;service&#45;config&#45;support&#45;&gt;core&#45;service&#45;module -->
<g id="edge4" class="edge">
<title>core&#45;service&#45;config&#45;support&#45;&gt;core&#45;service&#45;module</title>
<path fill="none" stroke="#000000" d="M1342.5882,-729.1764C1342.5882,-626.8104 1342.5882,-92 1342.5882,-92 1342.5882,-92 1115.7637,-92 1115.7637,-92"/>
<polygon fill="#000000" stroke="#000000" points="1115.7637,-88.5001 1105.7637,-92 1115.7637,-95.5001 1115.7637,-88.5001"/>
</g>
<!-- core&#45;service&#45;discovery&#45;server -->
<g id="node8" class="node">
<title>core&#45;service&#45;discovery&#45;server</title>
<ellipse fill="none" stroke="#000000" cx="1820.743" cy="-746" rx="115.3672" ry="18"/>
<text text-anchor="middle" x="1820.743" y="-741.8" font-family="Times,serif" font-size="14.00" fill="#000000">core&#45;service&#45;discovery&#45;server</text>
</g>
<!-- core&#45;service&#45;logging&#45;support -->
<g id="node9" class="node">
<title>core&#45;service&#45;logging&#45;support</title>
<ellipse fill="none" stroke="#000000" cx="1820.743" cy="-415" rx="112.5052" ry="18"/>
<text text-anchor="middle" x="1820.743" y="-410.8" font-family="Times,serif" font-size="14.00" fill="#000000">core&#45;service&#45;logging&#45;support</text>
</g>
<!-- core&#45;service&#45;discovery&#45;server&#45;&gt;core&#45;service&#45;logging&#45;support -->
<g id="edge5" class="edge">
<title>core&#45;service&#45;discovery&#45;server&#45;&gt;core&#45;service&#45;logging&#45;support</title>
<path fill="none" stroke="#000000" d="M1858.3271,-728.67C1858.3271,-728.67 1858.3271,-442.1584 1858.3271,-442.1584"/>
<polygon fill="#000000" stroke="#000000" points="1861.8272,-442.1584 1858.3271,-432.1584 1854.8272,-442.1584 1861.8272,-442.1584"/>
</g>
<!-- core&#45;service&#45;logging&#45;support&#45;&gt;core&#45;service&#45;module -->
<g id="edge17" class="edge">
<title>core&#45;service&#45;logging&#45;support&#45;&gt;core&#45;service&#45;module</title>
<path fill="none" stroke="#000000" d="M1820.743,-396.6664C1820.743,-325.8372 1820.743,-74 1820.743,-74 1820.743,-74 1115.6703,-74 1115.6703,-74"/>
<polygon fill="#000000" stroke="#000000" points="1115.6703,-70.5001 1105.6703,-74 1115.6703,-77.5001 1115.6703,-70.5001"/>
</g>
<!-- core&#45;service&#45;discovery&#45;support -->
<g id="node10" class="node">
<title>core&#45;service&#45;discovery&#45;support</title>
<ellipse fill="none" stroke="#000000" cx="805.743" cy="-746" rx="120.2209" ry="18"/>
<text text-anchor="middle" x="805.743" y="-741.8" font-family="Times,serif" font-size="14.00" fill="#000000">core&#45;service&#45;discovery&#45;support</text>
</g>
<!-- core&#45;service&#45;discovery&#45;support&#45;&gt;core&#45;service&#45;module -->
<g id="edge6" class="edge">
<title>core&#45;service&#45;discovery&#45;support&#45;&gt;core&#45;service&#45;module</title>
<path fill="none" stroke="#000000" d="M921.31,-741.0445C921.31,-680.3738 921.31,-83 921.31,-83 921.31,-83 940.8505,-83 940.8505,-83"/>
<polygon fill="#000000" stroke="#000000" points="940.8505,-86.5001 950.8505,-83 940.8504,-79.5001 940.8505,-86.5001"/>
</g>
<!-- core&#45;service&#45;endpoint&#45;support -->
<g id="node11" class="node">
<title>core&#45;service&#45;endpoint&#45;support</title>
<ellipse fill="none" stroke="#000000" cx="550.743" cy="-746" rx="116.8553" ry="18"/>
<text text-anchor="middle" x="550.743" y="-741.8" font-family="Times,serif" font-size="14.00" fill="#000000">core&#45;service&#45;endpoint&#45;support</text>
</g>
<!-- core&#45;service&#45;endpoint&#45;support&#45;&gt;core&#45;service&#45;logging&#45;support -->
<g id="edge9" class="edge">
<title>core&#45;service&#45;endpoint&#45;support&#45;&gt;core&#45;service&#45;logging&#45;support</title>
<path fill="none" stroke="#000000" d="M662.6108,-740.6687C662.6108,-717.7801 662.6108,-629 662.6108,-629 662.6108,-629 1783.1589,-629 1783.1589,-629 1783.1589,-629 1783.1589,-442.1508 1783.1589,-442.1508"/>
<polygon fill="#000000" stroke="#000000" points="1786.659,-442.1507 1783.1589,-432.1508 1779.659,-442.1508 1786.659,-442.1507"/>
</g>
<!-- core&#45;service&#45;web&#45;support -->
<g id="node12" class="node">
<title>core&#45;service&#45;web&#45;support</title>
<ellipse fill="none" stroke="#000000" cx="559.743" cy="-415" rx="100.4261" ry="18"/>
<text text-anchor="middle" x="559.743" y="-410.8" font-family="Times,serif" font-size="14.00" fill="#000000">core&#45;service&#45;web&#45;support</text>
</g>
<!-- core&#45;service&#45;endpoint&#45;support&#45;&gt;core&#45;service&#45;web&#45;support -->
<g id="edge7" class="edge">
<title>core&#45;service&#45;endpoint&#45;support&#45;&gt;core&#45;service&#45;web&#45;support</title>
<path fill="none" stroke="#000000" d="M559.743,-727.7325C559.743,-727.7325 559.743,-443.211 559.743,-443.211"/>
<polygon fill="#000000" stroke="#000000" points="563.2431,-443.211 559.743,-433.211 556.2431,-443.2111 563.2431,-443.211"/>
</g>
<!-- core&#45;service&#45;swagger&#45;support -->
<g id="node13" class="node">
<title>core&#45;service&#45;swagger&#45;support</title>
<ellipse fill="none" stroke="#000000" cx="801.743" cy="-415" rx="115.0473" ry="18"/>
<text text-anchor="middle" x="801.743" y="-410.8" font-family="Times,serif" font-size="14.00" fill="#000000">core&#45;service&#45;swagger&#45;support</text>
</g>
<!-- core&#45;service&#45;endpoint&#45;support&#45;&gt;core&#45;service&#45;swagger&#45;support -->
<g id="edge8" class="edge">
<title>core&#45;service&#45;endpoint&#45;support&#45;&gt;core&#45;service&#45;swagger&#45;support</title>
<path fill="none" stroke="#000000" d="M665.0157,-742.3501C665.0157,-706.6445 665.0157,-421 665.0157,-421 665.0157,-421 683.0144,-421 683.0144,-421"/>
<polygon fill="#000000" stroke="#000000" points="683.0145,-424.5001 693.0144,-421 683.0144,-417.5001 683.0145,-424.5001"/>
</g>
<!-- core&#45;service&#45;web&#45;support&#45;&gt;core&#45;service&#45;web&#45;common&#45;lib -->
<g id="edge21" class="edge">
<title>core&#45;service&#45;web&#45;support&#45;&gt;core&#45;service&#45;web&#45;common&#45;lib</title>
<path fill="none" stroke="#000000" d="M559.743,-396.6773C559.743,-396.6773 559.743,-111.266 559.743,-111.266"/>
<polygon fill="#000000" stroke="#000000" points="563.2431,-111.266 559.743,-101.266 556.2431,-111.2661 563.2431,-111.266"/>
</g>
<!-- core&#45;service&#45;web&#45;support&#45;&gt;core&#45;service&#45;module -->
<g id="edge20" class="edge">
<title>core&#45;service&#45;web&#45;support&#45;&gt;core&#45;service&#45;module</title>
<path fill="none" stroke="#000000" d="M654.6429,-409C669.37,-409 679.8136,-409 679.8136,-409 679.8136,-409 679.8136,-74 679.8136,-74 679.8136,-74 951.6935,-74 951.6935,-74"/>
<polygon fill="#000000" stroke="#000000" points="951.6935,-77.5001 961.6935,-74 951.6935,-70.5001 951.6935,-77.5001"/>
</g>
<!-- core&#45;service&#45;swagger&#45;support&#45;&gt;core&#45;service&#45;module -->
<g id="edge18" class="edge">
<title>core&#45;service&#45;swagger&#45;support&#45;&gt;core&#45;service&#45;module</title>
<path fill="none" stroke="#000000" d="M916.8056,-415C950.6032,-415 978.6947,-415 978.6947,-415 978.6947,-415 978.6947,-106.8429 978.6947,-106.8429"/>
<polygon fill="#000000" stroke="#000000" points="982.1948,-106.8429 978.6947,-96.8429 975.1948,-106.843 982.1948,-106.8429"/>
</g>
<!-- core&#45;service&#45;gateway&#45;server -->
<g id="node14" class="node">
<title>core&#45;service&#45;gateway&#45;server</title>
<ellipse fill="none" stroke="#000000" cx="1421.743" cy="-1078" rx="110.0307" ry="18"/>
<text text-anchor="middle" x="1421.743" y="-1073.8" font-family="Times,serif" font-size="14.00" fill="#000000">core&#45;service&#45;gateway&#45;server</text>
</g>
<!-- core&#45;service&#45;gateway&#45;server&#45;&gt;core&#45;service&#45;web&#45;common&#45;lib -->
<g id="edge10" class="edge">
<title>core&#45;service&#45;gateway&#45;server&#45;&gt;core&#45;service&#45;web&#45;common&#45;lib</title>
<path fill="none" stroke="#000000" d="M1317.5783,-1084C1174.5305,-1084 934.7908,-1084 934.7908,-1084 934.7908,-1084 934.7908,-92 934.7908,-92 934.7908,-92 671.2363,-92 671.2363,-92"/>
<polygon fill="#000000" stroke="#000000" points="671.2364,-88.5001 661.2363,-92 671.2363,-95.5001 671.2364,-88.5001"/>
</g>
<!-- core&#45;service&#45;gateway&#45;server&#45;&gt;core&#45;service&#45;bus&#45;support -->
<g id="edge15" class="edge">
<title>core&#45;service&#45;gateway&#45;server&#45;&gt;core&#45;service&#45;bus&#45;support</title>
<path fill="none" stroke="#000000" d="M1339.431,-1066C1236.7213,-1066 1074.4145,-1066 1074.4145,-1066 1074.4145,-1066 1074.4145,-773.2046 1074.4145,-773.2046"/>
<polygon fill="#000000" stroke="#000000" points="1077.9146,-773.2046 1074.4145,-763.2046 1070.9146,-773.2046 1077.9146,-773.2046"/>
</g>
<!-- core&#45;service&#45;gateway&#45;server&#45;&gt;core&#45;service&#45;config&#45;support -->
<g id="edge11" class="edge">
<title>core&#45;service&#45;gateway&#45;server&#45;&gt;core&#45;service&#45;config&#45;support</title>
<path fill="none" stroke="#000000" d="M1361.5296,-1062.8719C1361.5296,-1062.8719 1361.5296,-771.2169 1361.5296,-771.2169"/>
<polygon fill="#000000" stroke="#000000" points="1365.0297,-771.2169 1361.5296,-761.2169 1358.0297,-771.2169 1365.0297,-771.2169"/>
</g>
<!-- core&#45;service&#45;gateway&#45;server&#45;&gt;core&#45;service&#45;logging&#45;support -->
<g id="edge12" class="edge">
<title>core&#45;service&#45;gateway&#45;server&#45;&gt;core&#45;service&#45;logging&#45;support</title>
<path fill="none" stroke="#000000" d="M1420.521,-1059.9225C1420.521,-953.6628 1420.521,-415 1420.521,-415 1420.521,-415 1697.9271,-415 1697.9271,-415"/>
<polygon fill="#000000" stroke="#000000" points="1697.9271,-418.5001 1707.9271,-415 1697.927,-411.5001 1697.9271,-418.5001"/>
</g>
<!-- core&#45;service&#45;gateway&#45;server&#45;&gt;core&#45;service&#45;discovery&#45;support -->
<g id="edge13" class="edge">
<title>core&#45;service&#45;gateway&#45;server&#45;&gt;core&#45;service&#45;discovery&#45;support</title>
<path fill="none" stroke="#000000" d="M1339.286,-1090C1194.6231,-1090 910.2953,-1090 910.2953,-1090 910.2953,-1090 910.2953,-765.2012 910.2953,-765.2012"/>
<polygon fill="#000000" stroke="#000000" points="913.7954,-765.2011 910.2953,-755.2012 906.7954,-765.2012 913.7954,-765.2011"/>
</g>
<!-- core&#45;service&#45;tracing&#45;support -->
<g id="node15" class="node">
<title>core&#45;service&#45;tracing&#45;support</title>
<ellipse fill="none" stroke="#000000" cx="1539.743" cy="-746" rx="110.0652" ry="18"/>
<text text-anchor="middle" x="1539.743" y="-741.8" font-family="Times,serif" font-size="14.00" fill="#000000">core&#45;service&#45;tracing&#45;support</text>
</g>
<!-- core&#45;service&#45;gateway&#45;server&#45;&gt;core&#45;service&#45;tracing&#45;support -->
<g id="edge14" class="edge">
<title>core&#45;service&#45;gateway&#45;server&#45;&gt;core&#45;service&#45;tracing&#45;support</title>
<path fill="none" stroke="#000000" d="M1497.8256,-1064.574C1497.8256,-1064.574 1497.8256,-772.6612 1497.8256,-772.6612"/>
<polygon fill="#000000" stroke="#000000" points="1501.3257,-772.6611 1497.8256,-762.6612 1494.3257,-772.6612 1501.3257,-772.6611"/>
</g>
<!-- core&#45;service&#45;tracing&#45;support&#45;&gt;core&#45;service&#45;module -->
<g id="edge19" class="edge">
<title>core&#45;service&#45;tracing&#45;support&#45;&gt;core&#45;service&#45;module</title>
<path fill="none" stroke="#000000" d="M1539.743,-727.9225C1539.743,-621.6628 1539.743,-83 1539.743,-83 1539.743,-83 1126.732,-83 1126.732,-83"/>
<polygon fill="#000000" stroke="#000000" points="1126.732,-79.5001 1116.732,-83 1126.732,-86.5001 1126.732,-79.5001"/>
</g>
<!-- core&#45;service&#45;jpa&#45;support -->
<g id="node16" class="node">
<title>core&#45;service&#45;jpa&#45;support</title>
<ellipse fill="none" stroke="#000000" cx="319.743" cy="-746" rx="96.5671" ry="18"/>
<text text-anchor="middle" x="319.743" y="-741.8" font-family="Times,serif" font-size="14.00" fill="#000000">core&#45;service&#45;jpa&#45;support</text>
</g>
<!-- core&#45;service&#45;jpa&#45;support&#45;&gt;core&#45;service&#45;module -->
<g id="edge16" class="edge">
<title>core&#45;service&#45;jpa&#45;support&#45;&gt;core&#45;service&#45;module</title>
<path fill="none" stroke="#000000" d="M358.7766,-729.4863C358.7766,-679.1414 358.7766,-531 358.7766,-531 358.7766,-531 1006.4268,-531 1006.4268,-531 1006.4268,-531 1006.4268,-110.0151 1006.4268,-110.0151"/>
<polygon fill="#000000" stroke="#000000" points="1009.9269,-110.015 1006.4268,-100.0151 1002.9269,-110.0151 1009.9269,-110.015"/>
</g>
<!-- examples&#45;debug&#45;service -->
<g id="node17" class="node">
<title>examples&#45;debug&#45;service</title>
<ellipse fill="none" stroke="#000000" cx="576.743" cy="-1078" rx="96.0913" ry="18"/>
<text text-anchor="middle" x="576.743" y="-1073.8" font-family="Times,serif" font-size="14.00" fill="#000000">examples&#45;debug&#45;service</text>
</g>
<!-- examples&#45;debug&#45;service&#45;&gt;core&#45;service&#45;bus&#45;support -->
<g id="edge25" class="edge">
<title>examples&#45;debug&#45;service&#45;&gt;core&#45;service&#45;bus&#45;support</title>
<path fill="none" stroke="#000000" d="M620.7397,-1061.9284C620.7397,-1024.1759 620.7397,-933 620.7397,-933 620.7397,-933 1009.0714,-933 1009.0714,-933 1009.0714,-933 1009.0714,-773.2573 1009.0714,-773.2573"/>
<polygon fill="#000000" stroke="#000000" points="1012.5715,-773.2573 1009.0714,-763.2573 1005.5715,-773.2574 1012.5715,-773.2573"/>
</g>
<!-- examples&#45;debug&#45;service&#45;&gt;core&#45;service&#45;discovery&#45;support -->
<g id="edge24" class="edge">
<title>examples&#45;debug&#45;service&#45;&gt;core&#45;service&#45;discovery&#45;support</title>
<path fill="none" stroke="#000000" d="M667.4824,-1072C689.2686,-1072 706.3768,-1072 706.3768,-1072 706.3768,-1072 706.3768,-766.114 706.3768,-766.114"/>
<polygon fill="#000000" stroke="#000000" points="709.8769,-766.114 706.3768,-756.114 702.8769,-766.114 709.8769,-766.114"/>
</g>
<!-- examples&#45;debug&#45;service&#45;&gt;core&#45;service&#45;endpoint&#45;support -->
<g id="edge22" class="edge">
<title>examples&#45;debug&#45;service&#45;&gt;core&#45;service&#45;endpoint&#45;support</title>
<path fill="none" stroke="#000000" d="M574.0589,-1059.6773C574.0589,-1059.6773 574.0589,-773.8608 574.0589,-773.8608"/>
<polygon fill="#000000" stroke="#000000" points="577.559,-773.8607 574.0589,-763.8608 570.559,-773.8608 577.559,-773.8607"/>
</g>
<!-- examples&#45;debug&#45;service&#45;&gt;core&#45;service&#45;jpa&#45;support -->
<g id="edge23" class="edge">
<title>examples&#45;debug&#45;service&#45;&gt;core&#45;service&#45;jpa&#45;support</title>
<path fill="none" stroke="#000000" d="M527.3782,-1062.5519C527.3782,-1010.9831 527.3782,-848 527.3782,-848 527.3782,-848 340.5501,-848 340.5501,-848 340.5501,-848 340.5501,-773.767 340.5501,-773.767"/>
<polygon fill="#000000" stroke="#000000" points="344.0502,-773.767 340.5501,-763.767 337.0502,-773.7671 344.0502,-773.767"/>
</g>
<!-- examples&#45;order&#45;service -->
<g id="node18" class="node">
<title>examples&#45;order&#45;service</title>
<ellipse fill="none" stroke="#000000" cx="357.743" cy="-1078" rx="92.8387" ry="18"/>
<text text-anchor="middle" x="357.743" y="-1073.8" font-family="Times,serif" font-size="14.00" fill="#000000">examples&#45;order&#45;service</text>
</g>
<!-- examples&#45;order&#45;service&#45;&gt;core&#45;service&#45;discovery&#45;support -->
<g id="edge28" class="edge">
<title>examples&#45;order&#45;service&#45;&gt;core&#45;service&#45;discovery&#45;support</title>
<path fill="none" stroke="#000000" d="M445.13,-1071.7449C445.13,-1039.124 445.13,-890 445.13,-890 445.13,-890 696.0047,-890 696.0047,-890 696.0047,-890 696.0047,-763.339 696.0047,-763.339"/>
<polygon fill="#000000" stroke="#000000" points="699.5048,-763.3389 696.0047,-753.339 692.5048,-763.339 699.5048,-763.3389"/>
</g>
<!-- examples&#45;order&#45;service&#45;&gt;core&#45;service&#45;endpoint&#45;support -->
<g id="edge26" class="edge">
<title>examples&#45;order&#45;service&#45;&gt;core&#45;service&#45;endpoint&#45;support</title>
<path fill="none" stroke="#000000" d="M439.5978,-1069.4596C439.5978,-1069.4596 439.5978,-761.7035 439.5978,-761.7035"/>
<polygon fill="#000000" stroke="#000000" points="443.0979,-761.7035 439.5978,-751.7035 436.0979,-761.7036 443.0979,-761.7035"/>
</g>
<!-- examples&#45;order&#45;service&#45;&gt;core&#45;service&#45;jpa&#45;support -->
<g id="edge27" class="edge">
<title>examples&#45;order&#45;service&#45;&gt;core&#45;service&#45;jpa&#45;support</title>
<path fill="none" stroke="#000000" d="M302.6869,-1063.306C302.6869,-1063.306 302.6869,-774.068 302.6869,-774.068"/>
<polygon fill="#000000" stroke="#000000" points="306.187,-774.068 302.6869,-764.068 299.187,-774.068 306.187,-774.068"/>
</g>
<!-- examples&#45;user&#45;service&#45;api -->
<g id="node19" class="node">
<title>examples&#45;user&#45;service&#45;api</title>
<ellipse fill="none" stroke="#000000" cx="102.743" cy="-746" rx="102.9866" ry="18"/>
<text text-anchor="middle" x="102.743" y="-741.8" font-family="Times,serif" font-size="14.00" fill="#000000">examples&#45;user&#45;service&#45;api</text>
</g>
<!-- examples&#45;order&#45;service&#45;&gt;examples&#45;user&#45;service&#45;api -->
<g id="edge29" class="edge">
<title>examples&#45;order&#45;service&#45;&gt;examples&#45;user&#45;service&#45;api</title>
<path fill="none" stroke="#000000" d="M264.6311,-1078C180.0748,-1078 68.4953,-1078 68.4953,-1078 68.4953,-1078 68.4953,-773.3823 68.4953,-773.3823"/>
<polygon fill="#000000" stroke="#000000" points="71.9954,-773.3823 68.4953,-763.3823 64.9954,-773.3824 71.9954,-773.3823"/>
</g>
<!-- examples&#45;user&#45;service&#45;api&#45;&gt;core&#45;service&#45;api&#45;support -->
<g id="edge37" class="edge">
<title>examples&#45;user&#45;service&#45;api&#45;&gt;core&#45;service&#45;api&#45;support</title>
<path fill="none" stroke="#000000" d="M156.8477,-730.4791C156.8477,-730.4791 156.8477,-440.8724 156.8477,-440.8724"/>
<polygon fill="#000000" stroke="#000000" points="160.3478,-440.8724 156.8477,-430.8724 153.3478,-440.8725 160.3478,-440.8724"/>
</g>
<!-- examples&#45;user&#45;service -->
<g id="node20" class="node">
<title>examples&#45;user&#45;service</title>
<ellipse fill="none" stroke="#000000" cx="805.743" cy="-1078" rx="88.9883" ry="18"/>
<text text-anchor="middle" x="805.743" y="-1073.8" font-family="Times,serif" font-size="14.00" fill="#000000">examples&#45;user&#45;service</text>
</g>
<!-- examples&#45;user&#45;service&#45;&gt;core&#45;service&#45;cache&#45;support -->
<g id="edge31" class="edge">
<title>examples&#45;user&#45;service&#45;&gt;core&#45;service&#45;cache&#45;support</title>
<path fill="none" stroke="#000000" d="M889.7234,-1072C996.6879,-1072 1167.8312,-1072 1167.8312,-1072 1167.8312,-1072 1167.8312,-443.2577 1167.8312,-443.2577"/>
<polygon fill="#000000" stroke="#000000" points="1171.3313,-443.2576 1167.8312,-433.2577 1164.3313,-443.2577 1171.3313,-443.2576"/>
</g>
<!-- examples&#45;user&#45;service&#45;&gt;core&#45;service&#45;config&#45;support -->
<g id="edge34" class="edge">
<title>examples&#45;user&#45;service&#45;&gt;core&#45;service&#45;config&#45;support</title>
<path fill="none" stroke="#000000" d="M894.7787,-1078C1025.414,-1078 1253.6913,-1078 1253.6913,-1078 1253.6913,-1078 1253.6913,-772.0131 1253.6913,-772.0131"/>
<polygon fill="#000000" stroke="#000000" points="1257.1914,-772.013 1253.6913,-762.0131 1250.1914,-772.0131 1257.1914,-772.013"/>
</g>
<!-- examples&#45;user&#45;service&#45;&gt;core&#45;service&#45;discovery&#45;support -->
<g id="edge33" class="edge">
<title>examples&#45;user&#45;service&#45;&gt;core&#45;service&#45;discovery&#45;support</title>
<path fill="none" stroke="#000000" d="M823.5418,-1060.1502C823.5418,-1060.1502 823.5418,-773.938 823.5418,-773.938"/>
<polygon fill="#000000" stroke="#000000" points="827.0419,-773.938 823.5418,-763.938 820.0419,-773.9381 827.0419,-773.938"/>
</g>
<!-- examples&#45;user&#45;service&#45;&gt;core&#45;service&#45;endpoint&#45;support -->
<g id="edge30" class="edge">
<title>examples&#45;user&#45;service&#45;&gt;core&#45;service&#45;endpoint&#45;support</title>
<path fill="none" stroke="#000000" d="M721.6474,-1084C700.0228,-1084 682.7231,-1084 682.7231,-1084 682.7231,-1084 682.7231,-746 682.7231,-746 682.7231,-746 677.5833,-746 677.5833,-746"/>
<polygon fill="#000000" stroke="#000000" points="677.5833,-742.5001 667.5833,-746 677.5833,-749.5001 677.5833,-742.5001"/>
</g>
<!-- examples&#45;user&#45;service&#45;&gt;core&#45;service&#45;tracing&#45;support -->
<g id="edge35" class="edge">
<title>examples&#45;user&#45;service&#45;&gt;core&#45;service&#45;tracing&#45;support</title>
<path fill="none" stroke="#000000" d="M859.1395,-1063.5439C859.1395,-1045.5053 859.1395,-1017 859.1395,-1017 859.1395,-1017 1463.6431,-1017 1463.6431,-1017 1463.6431,-1017 1463.6431,-769.0709 1463.6431,-769.0709"/>
<polygon fill="#000000" stroke="#000000" points="1467.1432,-769.0709 1463.6431,-759.0709 1460.1432,-769.0709 1467.1432,-769.0709"/>
</g>
<!-- examples&#45;user&#45;service&#45;&gt;core&#45;service&#45;jpa&#45;support -->
<g id="edge32" class="edge">
<title>examples&#45;user&#45;service&#45;&gt;core&#45;service&#45;jpa&#45;support</title>
<path fill="none" stroke="#000000" d="M787.9442,-1060.1533C787.9442,-999.6406 787.9442,-806 787.9442,-806 787.9442,-806 378.4133,-806 378.4133,-806 378.4133,-806 378.4133,-770.5243 378.4133,-770.5243"/>
<polygon fill="#000000" stroke="#000000" points="381.9134,-770.5243 378.4133,-760.5243 374.9134,-770.5244 381.9134,-770.5243"/>
</g>
<!-- examples&#45;user&#45;service&#45;&gt;examples&#45;user&#45;service&#45;api -->
<g id="edge36" class="edge">
<title>examples&#45;user&#45;service&#45;&gt;examples&#45;user&#45;service&#45;api</title>
<path fill="none" stroke="#000000" d="M752.3465,-1063.2426C752.3465,-1034.7622 752.3465,-975 752.3465,-975 752.3465,-975 136.9907,-975 136.9907,-975 136.9907,-975 136.9907,-773.2122 136.9907,-773.2122"/>
<polygon fill="#000000" stroke="#000000" points="140.4908,-773.2122 136.9907,-763.2122 133.4908,-773.2123 140.4908,-773.2122"/>
</g>
</g>
</svg>
