<?xml version="1.0" encoding="UTF-8" standalone="no"?>
<!DOCTYPE svg PUBLIC "-//W3C//DTD SVG 1.1//EN"
 "http://www.w3.org/Graphics/SVG/1.1/DTD/svg11.dtd">
<!-- Generated by graphviz version 2.40.1 (20161225.0304)
 -->
<!-- Title: %3 Pages: 1 -->
<svg width="1916pt" height="1153pt"
 viewBox="0.00 0.00 1916.44 1152.80" xmlns="http://www.w3.org/2000/svg" xmlns:xlink="http://www.w3.org/1999/xlink">
<g id="graph0" class="graph" transform="scale(1 1) rotate(0) translate(4 1148.8)">
<title>%3</title>
<polygon fill="#ffffff" stroke="transparent" points="-4,4 -4,-1148.8 1912.445,-1148.8 1912.445,4 -4,4"/>
<!-- core&#45;service&#45;api&#45;support -->
<g id="node1" class="node">
<title>core&#45;service&#45;api&#45;support</title>
<ellipse fill="none" stroke="#000000" cx="982.5336" cy="-409" rx="96.5671" ry="18"/>
<text text-anchor="middle" x="982.5336" y="-404.8" font-family="Times,serif" font-size="14.00" fill="#000000">core&#45;service&#45;api&#45;support</text>
</g>
<!-- core&#45;service&#45;web&#45;common&#45;lib -->
<g id="node2" class="node">
<title>core&#45;service&#45;web&#45;common&#45;lib</title>
<ellipse fill="none" stroke="#000000" cx="982.5336" cy="-82" rx="117.3225" ry="18"/>
<text text-anchor="middle" x="982.5336" y="-77.8" font-family="Times,serif" font-size="14.00" fill="#000000">core&#45;service&#45;web&#45;common&#45;lib</text>
</g>
<!-- core&#45;service&#45;api&#45;support&#45;&gt;core&#45;service&#45;web&#45;common&#45;lib -->
<g id="edge1" class="edge">
<title>core&#45;service&#45;api&#45;support&#45;&gt;core&#45;service&#45;web&#45;common&#45;lib</title>
<path fill="none" stroke="#000000" d="M982.5336,-390.9533C982.5336,-390.9533 982.5336,-110.394 982.5336,-110.394"/>
<polygon fill="#000000" stroke="#000000" points="986.0337,-110.394 982.5336,-100.394 979.0337,-110.3941 986.0337,-110.394"/>
</g>
<!-- core&#45;service&#45;cache&#45;support -->
<g id="node3" class="node">
<title>core&#45;service&#45;cache&#45;support</title>
<ellipse fill="none" stroke="#000000" cx="1202.5336" cy="-409" rx="105.7043" ry="18"/>
<text text-anchor="middle" x="1202.5336" y="-404.8" font-family="Times,serif" font-size="14.00" fill="#000000">core&#45;service&#45;cache&#45;support</text>
</g>
<!-- core&#45;service&#45;module -->
<g id="node4" class="node">
<title>core&#45;service&#45;module</title>
<ellipse fill="none" stroke="#000000" cx="740.5336" cy="-82" rx="82.5614" ry="18"/>
<text text-anchor="middle" x="740.5336" y="-77.8" font-family="Times,serif" font-size="14.00" fill="#000000">core&#45;service&#45;module</text>
</g>
<!-- core&#45;service&#45;cache&#45;support&#45;&gt;core&#45;service&#45;module -->
<g id="edge2" class="edge">
<title>core&#45;service&#45;cache&#45;support&#45;&gt;core&#45;service&#45;module</title>
<path fill="none" stroke="#000000" d="M1204.0401,-390.7933C1204.0401,-353.9441 1204.0401,-274 1204.0401,-274 1204.0401,-274 723.9775,-274 723.9775,-274 723.9775,-274 723.9775,-109.7188 723.9775,-109.7188"/>
<polygon fill="#000000" stroke="#000000" points="727.4776,-109.7187 723.9775,-99.7188 720.4776,-109.7188 727.4776,-109.7187"/>
</g>
<!-- core&#45;service&#45;config&#45;server -->
<g id="node5" class="node">
<title>core&#45;service&#45;config&#45;server</title>
<ellipse fill="none" stroke="#000000" cx="1805.5336" cy="-1063" rx="102.8229" ry="18"/>
<text text-anchor="middle" x="1805.5336" y="-1058.8" font-family="Times,serif" font-size="14.00" fill="#000000">core&#45;service&#45;config&#45;server</text>
</g>
<!-- core&#45;service&#45;config&#45;support -->
<g id="node6" class="node">
<title>core&#45;service&#45;config&#45;support</title>
<ellipse fill="none" stroke="#000000" cx="1338.5336" cy="-736" rx="107.6769" ry="18"/>
<text text-anchor="middle" x="1338.5336" y="-731.8" font-family="Times,serif" font-size="14.00" fill="#000000">core&#45;service&#45;config&#45;support</text>
</g>
<!-- core&#45;service&#45;config&#45;support&#45;&gt;core&#45;service&#45;module -->
<g id="edge3" class="edge">
<title>core&#45;service&#45;config&#45;support&#45;&gt;core&#45;service&#45;module</title>
<path fill="none" stroke="#000000" d="M1377.3788,-718.9943C1377.3788,-629.3757 1377.3788,-216 1377.3788,-216 1377.3788,-216 757.0897,-216 757.0897,-216 757.0897,-216 757.0897,-109.7942 757.0897,-109.7942"/>
<polygon fill="#000000" stroke="#000000" points="760.5898,-109.7941 757.0897,-99.7942 753.5898,-109.7942 760.5898,-109.7941"/>
</g>
<!-- core&#45;service&#45;discovery&#45;server -->
<g id="node7" class="node">
<title>core&#45;service&#45;discovery&#45;server</title>
<ellipse fill="none" stroke="#000000" cx="577.5336" cy="-736" rx="115.3672" ry="18"/>
<text text-anchor="middle" x="577.5336" y="-731.8" font-family="Times,serif" font-size="14.00" fill="#000000">core&#45;service&#45;discovery&#45;server</text>
</g>
<!-- core&#45;service&#45;logging&#45;support -->
<g id="node8" class="node">
<title>core&#45;service&#45;logging&#45;support</title>
<ellipse fill="none" stroke="#000000" cx="716.5336" cy="-409" rx="112.5052" ry="18"/>
<text text-anchor="middle" x="716.5336" y="-404.8" font-family="Times,serif" font-size="14.00" fill="#000000">core&#45;service&#45;logging&#45;support</text>
</g>
<!-- core&#45;service&#45;discovery&#45;server&#45;&gt;core&#45;service&#45;logging&#45;support -->
<g id="edge4" class="edge">
<title>core&#45;service&#45;discovery&#45;server&#45;&gt;core&#45;service&#45;logging&#45;support</title>
<path fill="none" stroke="#000000" d="M663.0717,-723.5805C663.0717,-723.5805 663.0717,-435.1532 663.0717,-435.1532"/>
<polygon fill="#000000" stroke="#000000" points="666.5718,-435.1532 663.0717,-425.1532 659.5718,-435.1532 666.5718,-435.1532"/>
</g>
<!-- core&#45;service&#45;logging&#45;support&#45;&gt;core&#45;service&#45;module -->
<g id="edge15" class="edge">
<title>core&#45;service&#45;logging&#45;support&#45;&gt;core&#45;service&#45;module</title>
<path fill="none" stroke="#000000" d="M690.8653,-391.4191C690.8653,-391.4191 690.8653,-106.6057 690.8653,-106.6057"/>
<polygon fill="#000000" stroke="#000000" points="694.3654,-106.6057 690.8653,-96.6057 687.3654,-106.6057 694.3654,-106.6057"/>
</g>
<!-- core&#45;service&#45;discovery&#45;support -->
<g id="node9" class="node">
<title>core&#45;service&#45;discovery&#45;support</title>
<ellipse fill="none" stroke="#000000" cx="830.5336" cy="-736" rx="120.2209" ry="18"/>
<text text-anchor="middle" x="830.5336" y="-731.8" font-family="Times,serif" font-size="14.00" fill="#000000">core&#45;service&#45;discovery&#45;support</text>
</g>
<!-- core&#45;service&#45;discovery&#45;support&#45;&gt;core&#45;service&#45;module -->
<g id="edge5" class="edge">
<title>core&#45;service&#45;discovery&#45;support&#45;&gt;core&#45;service&#45;module</title>
<path fill="none" stroke="#000000" d="M847.3292,-718.1679C847.3292,-613.3507 847.3292,-82 847.3292,-82 847.3292,-82 833.3622,-82 833.3622,-82"/>
<polygon fill="#000000" stroke="#000000" points="833.3622,-78.5001 823.3622,-82 833.3621,-85.5001 833.3622,-78.5001"/>
</g>
<!-- core&#45;service&#45;endpoint&#45;support -->
<g id="node10" class="node">
<title>core&#45;service&#45;endpoint&#45;support</title>
<ellipse fill="none" stroke="#000000" cx="327.5336" cy="-736" rx="116.8553" ry="18"/>
<text text-anchor="middle" x="327.5336" y="-731.8" font-family="Times,serif" font-size="14.00" fill="#000000">core&#45;service&#45;endpoint&#45;support</text>
</g>
<!-- core&#45;service&#45;endpoint&#45;support&#45;&gt;core&#45;service&#45;logging&#45;support -->
<g id="edge8" class="edge">
<title>core&#45;service&#45;endpoint&#45;support&#45;&gt;core&#45;service&#45;logging&#45;support</title>
<path fill="none" stroke="#000000" d="M424.4976,-725.7411C424.4976,-689.8375 424.4976,-572 424.4976,-572 424.4976,-572 633.4265,-572 633.4265,-572 633.4265,-572 633.4265,-431.2515 633.4265,-431.2515"/>
<polygon fill="#000000" stroke="#000000" points="636.9266,-431.2515 633.4265,-421.2515 629.9266,-431.2515 636.9266,-431.2515"/>
</g>
<!-- core&#45;service&#45;web&#45;support -->
<g id="node11" class="node">
<title>core&#45;service&#45;web&#45;support</title>
<ellipse fill="none" stroke="#000000" cx="485.5336" cy="-409" rx="100.4261" ry="18"/>
<text text-anchor="middle" x="485.5336" y="-404.8" font-family="Times,serif" font-size="14.00" fill="#000000">core&#45;service&#45;web&#45;support</text>
</g>
<!-- core&#45;service&#45;endpoint&#45;support&#45;&gt;core&#45;service&#45;web&#45;support -->
<g id="edge6" class="edge">
<title>core&#45;service&#45;endpoint&#45;support&#45;&gt;core&#45;service&#45;web&#45;support</title>
<path fill="none" stroke="#000000" d="M404.784,-722.3655C404.784,-722.3655 404.784,-429.9266 404.784,-429.9266"/>
<polygon fill="#000000" stroke="#000000" points="408.2841,-429.9265 404.784,-419.9266 401.2841,-429.9266 408.2841,-429.9265"/>
</g>
<!-- core&#45;service&#45;swagger&#45;support -->
<g id="node12" class="node">
<title>core&#45;service&#45;swagger&#45;support</title>
<ellipse fill="none" stroke="#000000" cx="252.5336" cy="-409" rx="115.0473" ry="18"/>
<text text-anchor="middle" x="252.5336" y="-404.8" font-family="Times,serif" font-size="14.00" fill="#000000">core&#45;service&#45;swagger&#45;support</text>
</g>
<!-- core&#45;service&#45;endpoint&#45;support&#45;&gt;core&#45;service&#45;swagger&#45;support -->
<g id="edge7" class="edge">
<title>core&#45;service&#45;endpoint&#45;support&#45;&gt;core&#45;service&#45;swagger&#45;support</title>
<path fill="none" stroke="#000000" d="M289.2066,-718.8795C289.2066,-718.8795 289.2066,-436.3456 289.2066,-436.3456"/>
<polygon fill="#000000" stroke="#000000" points="292.7067,-436.3455 289.2066,-426.3456 285.7067,-436.3456 292.7067,-436.3455"/>
</g>
<!-- core&#45;service&#45;web&#45;support&#45;&gt;core&#45;service&#45;web&#45;common&#45;lib -->
<g id="edge19" class="edge">
<title>core&#45;service&#45;web&#45;support&#45;&gt;core&#45;service&#45;web&#45;common&#45;lib</title>
<path fill="none" stroke="#000000" d="M452.0459,-391.9112C452.0459,-369.2264 452.0459,-332 452.0459,-332 452.0459,-332 875.6862,-332 875.6862,-332 875.6862,-332 875.6862,-99.482 875.6862,-99.482"/>
<polygon fill="#000000" stroke="#000000" points="879.1863,-99.482 875.6862,-89.482 872.1863,-99.482 879.1863,-99.482"/>
</g>
<!-- core&#45;service&#45;web&#45;support&#45;&gt;core&#45;service&#45;module -->
<g id="edge18" class="edge">
<title>core&#45;service&#45;web&#45;support&#45;&gt;core&#45;service&#45;module</title>
<path fill="none" stroke="#000000" d="M519.0212,-391.9029C519.0212,-325.8511 519.0212,-91 519.0212,-91 519.0212,-91 658.6149,-91 658.6149,-91"/>
<polygon fill="#000000" stroke="#000000" points="658.6149,-94.5001 668.6149,-91 658.6148,-87.5001 658.6149,-94.5001"/>
</g>
<!-- core&#45;service&#45;swagger&#45;support&#45;&gt;core&#45;service&#45;module -->
<g id="edge16" class="edge">
<title>core&#45;service&#45;swagger&#45;support&#45;&gt;core&#45;service&#45;module</title>
<path fill="none" stroke="#000000" d="M252.5336,-390.9533C252.5336,-322.4013 252.5336,-82 252.5336,-82 252.5336,-82 647.751,-82 647.751,-82"/>
<polygon fill="#000000" stroke="#000000" points="647.7511,-85.5001 657.751,-82 647.751,-78.5001 647.7511,-85.5001"/>
</g>
<!-- core&#45;service&#45;gateway&#45;server -->
<g id="node13" class="node">
<title>core&#45;service&#45;gateway&#45;server</title>
<ellipse fill="none" stroke="#000000" cx="1574.5336" cy="-1063" rx="110.0307" ry="18"/>
<text text-anchor="middle" x="1574.5336" y="-1058.8" font-family="Times,serif" font-size="14.00" fill="#000000">core&#45;service&#45;gateway&#45;server</text>
</g>
<!-- core&#45;service&#45;gateway&#45;server&#45;&gt;core&#45;service&#45;web&#45;common&#45;lib -->
<g id="edge9" class="edge">
<title>core&#45;service&#45;gateway&#45;server&#45;&gt;core&#45;service&#45;web&#45;common&#45;lib</title>
<path fill="none" stroke="#000000" d="M1492.3451,-1051C1470.2398,-1051 1452.3317,-1051 1452.3317,-1051 1452.3317,-1051 1452.3317,-82 1452.3317,-82 1452.3317,-82 1109.8716,-82 1109.8716,-82"/>
<polygon fill="#000000" stroke="#000000" points="1109.8716,-78.5001 1099.8716,-82 1109.8716,-85.5001 1109.8716,-78.5001"/>
</g>
<!-- core&#45;service&#45;gateway&#45;server&#45;&gt;core&#45;service&#45;config&#45;support -->
<g id="edge10" class="edge">
<title>core&#45;service&#45;gateway&#45;server&#45;&gt;core&#45;service&#45;config&#45;support</title>
<path fill="none" stroke="#000000" d="M1470.405,-1057C1421.7954,-1057 1374.4797,-1057 1374.4797,-1057 1374.4797,-1057 1374.4797,-763.2584 1374.4797,-763.2584"/>
<polygon fill="#000000" stroke="#000000" points="1377.9798,-763.2583 1374.4797,-753.2584 1370.9798,-763.2584 1377.9798,-763.2583"/>
</g>
<!-- core&#45;service&#45;gateway&#45;server&#45;&gt;core&#45;service&#45;logging&#45;support -->
<g id="edge11" class="edge">
<title>core&#45;service&#45;gateway&#45;server&#45;&gt;core&#45;service&#45;logging&#45;support</title>
<path fill="none" stroke="#000000" d="M1519.401,-1047.227C1519.401,-1002.4888 1519.401,-878 1519.401,-878 1519.401,-878 701.5701,-878 701.5701,-878 701.5701,-878 701.5701,-437.098 701.5701,-437.098"/>
<polygon fill="#000000" stroke="#000000" points="705.0702,-437.0979 701.5701,-427.098 698.0702,-437.098 705.0702,-437.0979"/>
</g>
<!-- core&#45;service&#45;gateway&#45;server&#45;&gt;core&#45;service&#45;discovery&#45;support -->
<g id="edge12" class="edge">
<title>core&#45;service&#45;gateway&#45;server&#45;&gt;core&#45;service&#45;discovery&#45;support</title>
<path fill="none" stroke="#000000" d="M1574.5336,-1044.8875C1574.5336,-991.2586 1574.5336,-837 1574.5336,-837 1574.5336,-837 892.2469,-837 892.2469,-837 892.2469,-837 892.2469,-761.7813 892.2469,-761.7813"/>
<polygon fill="#000000" stroke="#000000" points="895.747,-761.7812 892.2469,-751.7813 888.747,-761.7813 895.747,-761.7812"/>
</g>
<!-- core&#45;service&#45;tracing&#45;support -->
<g id="node14" class="node">
<title>core&#45;service&#45;tracing&#45;support</title>
<ellipse fill="none" stroke="#000000" cx="1574.5336" cy="-736" rx="110.0652" ry="18"/>
<text text-anchor="middle" x="1574.5336" y="-731.8" font-family="Times,serif" font-size="14.00" fill="#000000">core&#45;service&#45;tracing&#45;support</text>
</g>
<!-- core&#45;service&#45;gateway&#45;server&#45;&gt;core&#45;service&#45;tracing&#45;support -->
<g id="edge13" class="edge">
<title>core&#45;service&#45;gateway&#45;server&#45;&gt;core&#45;service&#45;tracing&#45;support</title>
<path fill="none" stroke="#000000" d="M1629.6661,-1047.2281C1629.6661,-1047.2281 1629.6661,-761.6136 1629.6661,-761.6136"/>
<polygon fill="#000000" stroke="#000000" points="1633.1662,-761.6136 1629.6661,-751.6136 1626.1662,-761.6137 1633.1662,-761.6136"/>
</g>
<!-- core&#45;service&#45;tracing&#45;support&#45;&gt;core&#45;service&#45;module -->
<g id="edge17" class="edge">
<title>core&#45;service&#45;tracing&#45;support&#45;&gt;core&#45;service&#45;module</title>
<path fill="none" stroke="#000000" d="M1574.5336,-717.747C1574.5336,-619.4983 1574.5336,-158 1574.5336,-158 1574.5336,-158 790.2018,-158 790.2018,-158 790.2018,-158 790.2018,-106.6536 790.2018,-106.6536"/>
<polygon fill="#000000" stroke="#000000" points="793.7019,-106.6535 790.2018,-96.6536 786.7019,-106.6536 793.7019,-106.6535"/>
</g>
<!-- core&#45;service&#45;jpa&#45;support -->
<g id="node15" class="node">
<title>core&#45;service&#45;jpa&#45;support</title>
<ellipse fill="none" stroke="#000000" cx="96.5336" cy="-736" rx="96.5671" ry="18"/>
<text text-anchor="middle" x="96.5336" y="-731.8" font-family="Times,serif" font-size="14.00" fill="#000000">core&#45;service&#45;jpa&#45;support</text>
</g>
<!-- core&#45;service&#45;jpa&#45;support&#45;&gt;core&#45;service&#45;module -->
<g id="edge14" class="edge">
<title>core&#45;service&#45;jpa&#45;support&#45;&gt;core&#45;service&#45;module</title>
<path fill="none" stroke="#000000" d="M68.755,-718.6071C68.755,-613.9998 68.755,-73 68.755,-73 68.755,-73 658.6415,-73 658.6415,-73"/>
<polygon fill="#000000" stroke="#000000" points="658.6415,-76.5001 668.6415,-73 658.6415,-69.5001 658.6415,-76.5001"/>
</g>
<!-- examples&#45;debug&#45;service -->
<g id="node16" class="node">
<title>examples&#45;debug&#45;service</title>
<ellipse fill="none" stroke="#000000" cx="327.5336" cy="-1063" rx="96.0913" ry="18"/>
<text text-anchor="middle" x="327.5336" y="-1058.8" font-family="Times,serif" font-size="14.00" fill="#000000">examples&#45;debug&#45;service</text>
</g>
<!-- examples&#45;debug&#45;service&#45;&gt;core&#45;service&#45;discovery&#45;support -->
<g id="edge22" class="edge">
<title>examples&#45;debug&#45;service&#45;&gt;core&#45;service&#45;discovery&#45;support</title>
<path fill="none" stroke="#000000" d="M359.5488,-1045.8277C359.5488,-986.6773 359.5488,-795 359.5488,-795 359.5488,-795 732.0997,-795 732.0997,-795 732.0997,-795 732.0997,-756.548 732.0997,-756.548"/>
<polygon fill="#000000" stroke="#000000" points="735.5998,-756.548 732.0997,-746.548 728.5998,-756.5481 735.5998,-756.548"/>
</g>
<!-- examples&#45;debug&#45;service&#45;&gt;core&#45;service&#45;endpoint&#45;support -->
<g id="edge20" class="edge">
<title>examples&#45;debug&#45;service&#45;&gt;core&#45;service&#45;endpoint&#45;support</title>
<path fill="none" stroke="#000000" d="M295.5184,-1045.8795C295.5184,-1045.8795 295.5184,-763.3456 295.5184,-763.3456"/>
<polygon fill="#000000" stroke="#000000" points="299.0185,-763.3455 295.5184,-753.3456 292.0185,-763.3456 299.0185,-763.3455"/>
</g>
<!-- examples&#45;debug&#45;service&#45;&gt;core&#45;service&#45;jpa&#45;support -->
<g id="edge21" class="edge">
<title>examples&#45;debug&#45;service&#45;&gt;core&#45;service&#45;jpa&#45;support</title>
<path fill="none" stroke="#000000" d="M231.4258,-1063C150.6439,-1063 48.2668,-1063 48.2668,-1063 48.2668,-1063 48.2668,-761.7719 48.2668,-761.7719"/>
<polygon fill="#000000" stroke="#000000" points="51.7669,-761.7719 48.2668,-751.7719 44.7669,-761.7719 51.7669,-761.7719"/>
</g>
<!-- examples&#45;order&#45;service -->
<g id="node17" class="node">
<title>examples&#45;order&#45;service</title>
<ellipse fill="none" stroke="#000000" cx="682.5336" cy="-1063" rx="92.8387" ry="18"/>
<text text-anchor="middle" x="682.5336" y="-1058.8" font-family="Times,serif" font-size="14.00" fill="#000000">examples&#45;order&#45;service</text>
</g>
<!-- examples&#45;order&#45;service&#45;&gt;core&#45;service&#45;discovery&#45;support -->
<g id="edge25" class="edge">
<title>examples&#45;order&#45;service&#45;&gt;core&#45;service&#45;discovery&#45;support</title>
<path fill="none" stroke="#000000" d="M753.7763,-1051.3619C753.7763,-1051.3619 753.7763,-759.9854 753.7763,-759.9854"/>
<polygon fill="#000000" stroke="#000000" points="757.2764,-759.9853 753.7763,-749.9854 750.2764,-759.9854 757.2764,-759.9853"/>
</g>
<!-- examples&#45;order&#45;service&#45;&gt;core&#45;service&#45;endpoint&#45;support -->
<g id="edge23" class="edge">
<title>examples&#45;order&#45;service&#45;&gt;core&#45;service&#45;endpoint&#45;support</title>
<path fill="none" stroke="#000000" d="M589.3856,-1063C517.5782,-1063 430.4565,-1063 430.4565,-1063 430.4565,-1063 430.4565,-754.7465 430.4565,-754.7465"/>
<polygon fill="#000000" stroke="#000000" points="433.9566,-754.7464 430.4565,-744.7465 426.9566,-754.7465 433.9566,-754.7464"/>
</g>
<!-- examples&#45;order&#45;service&#45;&gt;core&#45;service&#45;jpa&#45;support -->
<g id="edge24" class="edge">
<title>examples&#45;order&#45;service&#45;&gt;core&#45;service&#45;jpa&#45;support</title>
<path fill="none" stroke="#000000" d="M641.1656,-1046.6047C641.1656,-1028.8398 641.1656,-1003 641.1656,-1003 641.1656,-1003 96.5336,-1003 96.5336,-1003 96.5336,-1003 96.5336,-764.352 96.5336,-764.352"/>
<polygon fill="#000000" stroke="#000000" points="100.0337,-764.352 96.5336,-754.352 93.0337,-764.352 100.0337,-764.352"/>
</g>
<!-- examples&#45;user&#45;service&#45;api -->
<g id="node18" class="node">
<title>examples&#45;user&#45;service&#45;api</title>
<ellipse fill="none" stroke="#000000" cx="1071.5336" cy="-736" rx="102.9866" ry="18"/>
<text text-anchor="middle" x="1071.5336" y="-731.8" font-family="Times,serif" font-size="14.00" fill="#000000">examples&#45;user&#45;service&#45;api</text>
</g>
<!-- examples&#45;order&#45;service&#45;&gt;examples&#45;user&#45;service&#45;api -->
<g id="edge26" class="edge">
<title>examples&#45;order&#45;service&#45;&gt;examples&#45;user&#45;service&#45;api</title>
<path fill="none" stroke="#000000" d="M770.4827,-1069C856.8264,-1069 975.665,-1069 975.665,-1069 975.665,-1069 975.665,-752.6518 975.665,-752.6518"/>
<polygon fill="#000000" stroke="#000000" points="979.1651,-752.6518 975.665,-742.6518 972.1651,-752.6518 979.1651,-752.6518"/>
</g>
<!-- examples&#45;user&#45;service&#45;api&#45;&gt;core&#45;service&#45;api&#45;support -->
<g id="edge34" class="edge">
<title>examples&#45;user&#45;service&#45;api&#45;&gt;core&#45;service&#45;api&#45;support</title>
<path fill="none" stroke="#000000" d="M1023.9289,-719.784C1023.9289,-719.784 1023.9289,-435.3139 1023.9289,-435.3139"/>
<polygon fill="#000000" stroke="#000000" points="1027.429,-435.3138 1023.9289,-425.3139 1020.429,-435.3139 1027.429,-435.3138"/>
</g>
<!-- examples&#45;user&#45;service -->
<g id="node19" class="node">
<title>examples&#45;user&#45;service</title>
<ellipse fill="none" stroke="#000000" cx="1071.5336" cy="-1063" rx="88.9883" ry="18"/>
<text text-anchor="middle" x="1071.5336" y="-1058.8" font-family="Times,serif" font-size="14.00" fill="#000000">examples&#45;user&#45;service</text>
</g>
<!-- examples&#45;user&#45;service&#45;&gt;core&#45;service&#45;cache&#45;support -->
<g id="edge28" class="edge">
<title>examples&#45;user&#45;service&#45;&gt;core&#45;service&#45;cache&#45;support</title>
<path fill="none" stroke="#000000" d="M1160.6917,-1063C1183.8784,-1063 1202.4859,-1063 1202.4859,-1063 1202.4859,-1063 1202.4859,-437.1743 1202.4859,-437.1743"/>
<polygon fill="#000000" stroke="#000000" points="1205.986,-437.1743 1202.4859,-427.1743 1198.986,-437.1743 1205.986,-437.1743"/>
</g>
<!-- examples&#45;user&#45;service&#45;&gt;core&#45;service&#45;config&#45;support -->
<g id="edge31" class="edge">
<title>examples&#45;user&#45;service&#45;&gt;core&#45;service&#45;config&#45;support</title>
<path fill="none" stroke="#000000" d="M1155.6029,-1069C1221.6669,-1069 1302.5874,-1069 1302.5874,-1069 1302.5874,-1069 1302.5874,-762.9713 1302.5874,-762.9713"/>
<polygon fill="#000000" stroke="#000000" points="1306.0875,-762.9713 1302.5874,-752.9713 1299.0875,-762.9714 1306.0875,-762.9713"/>
</g>
<!-- examples&#45;user&#45;service&#45;&gt;core&#45;service&#45;discovery&#45;support -->
<g id="edge30" class="edge">
<title>examples&#45;user&#45;service&#45;&gt;core&#45;service&#45;discovery&#45;support</title>
<path fill="none" stroke="#000000" d="M987.4007,-1057C919.0265,-1057 833.8499,-1057 833.8499,-1057 833.8499,-1057 833.8499,-764.1781 833.8499,-764.1781"/>
<polygon fill="#000000" stroke="#000000" points="837.35,-764.178 833.8499,-754.1781 830.35,-764.1781 837.35,-764.178"/>
</g>
<!-- examples&#45;user&#45;service&#45;&gt;core&#45;service&#45;endpoint&#45;support -->
<g id="edge27" class="edge">
<title>examples&#45;user&#45;service&#45;&gt;core&#45;service&#45;endpoint&#45;support</title>
<path fill="none" stroke="#000000" d="M1071.5336,-1044.889C1071.5336,-1006.4097 1071.5336,-920 1071.5336,-920 1071.5336,-920 437.3338,-920 437.3338,-920 437.3338,-920 437.3338,-752.122 437.3338,-752.122"/>
<polygon fill="#000000" stroke="#000000" points="440.8339,-752.122 437.3338,-742.122 433.8339,-752.122 440.8339,-752.122"/>
</g>
<!-- examples&#45;user&#45;service&#45;&gt;core&#45;service&#45;tracing&#45;support -->
<g id="edge32" class="edge">
<title>examples&#45;user&#45;service&#45;&gt;core&#45;service&#45;tracing&#45;support</title>
<path fill="none" stroke="#000000" d="M1138.0196,-1075C1248.5994,-1075 1458.2914,-1075 1458.2914,-1075 1458.2914,-1075 1458.2914,-736 1458.2914,-736 1458.2914,-736 1458.8838,-736 1458.8838,-736"/>
<polygon fill="#000000" stroke="#000000" points="1454.2158,-739.5002 1464.2157,-736 1454.2156,-732.5002 1454.2158,-739.5002"/>
</g>
<!-- examples&#45;user&#45;service&#45;&gt;core&#45;service&#45;jpa&#45;support -->
<g id="edge29" class="edge">
<title>examples&#45;user&#45;service&#45;&gt;core&#45;service&#45;jpa&#45;support</title>
<path fill="none" stroke="#000000" d="M1027.0365,-1047.0625C1027.0365,-1018.375 1027.0365,-961 1027.0365,-961 1027.0365,-961 144.8003,-961 144.8003,-961 144.8003,-961 144.8003,-761.8216 144.8003,-761.8216"/>
<polygon fill="#000000" stroke="#000000" points="148.3004,-761.8215 144.8003,-751.8216 141.3004,-761.8216 148.3004,-761.8215"/>
</g>
<!-- examples&#45;user&#45;service&#45;&gt;examples&#45;user&#45;service&#45;api -->
<g id="edge33" class="edge">
<title>examples&#45;user&#45;service&#45;&gt;examples&#45;user&#45;service&#45;api</title>
<path fill="none" stroke="#000000" d="M1116.0306,-1047.2281C1116.0306,-1047.2281 1116.0306,-762.3839 1116.0306,-762.3839"/>
<polygon fill="#000000" stroke="#000000" points="1119.5307,-762.3839 1116.0306,-752.3839 1112.5307,-762.384 1119.5307,-762.3839"/>
</g>
</g>
</svg>
